<svg width="48" height="48" viewBox="0 0 48 48" fill="none" xmlns="http://www.w3.org/2000/svg">
<path d="M16.215 3C11.211 3.1155 8.76029 9.05093 11.9103 12.7529C9.06679 15.0552 7.12717 18.2883 6.43471 21.8809L2.46596 39.6777C2.38047 40.0647 2.34431 40.4578 2.32631 40.7998L2.32533 40.8379V40.875C2.32397 41.9895 2.65335 43.0793 3.2726 44.0059C3.89201 44.9325 4.77343 45.6542 5.80385 46.0791C6.83433 46.504 7.96812 46.6133 9.06068 46.3926C10.153 46.1718 11.155 45.6313 11.9396 44.8398C12.4628 45.3653 13.085 45.7825 13.7697 46.0674C14.4542 46.3523 15.1884 46.4991 15.9298 46.5C16.6715 46.5008 17.4062 46.3543 18.091 46.0693C18.7758 45.7843 19.3978 45.3666 19.9201 44.8398C20.4432 45.3652 21.0647 45.7825 21.7492 46.0674C22.4338 46.3523 23.1687 46.4991 23.9103 46.5C24.6521 46.5005 25.3866 46.3536 26.0714 46.0684C26.7562 45.7831 27.3775 45.3649 27.8996 44.8379C28.4265 45.3711 29.056 45.7926 29.7492 46.0781C30.4422 46.3636 31.1853 46.5074 31.9347 46.5C34.7757 46.4805 37.0472 44.3401 37.4523 41.6582C37.8615 41.8833 38.3212 42.0009 38.7882 42C40.7636 42 42.0974 39.9902 41.3537 38.1543L40.0187 34.9648C39.8492 34.5629 39.5897 34.2162 39.2687 33.9492C40.9635 33.4962 42.6104 32.6805 44.0548 31.2227C44.8138 30.4622 45.0716 29.581 44.9591 28.6855C44.884 28.0932 44.6276 27.4781 44.4581 27.0732L44.3839 26.8906L44.3595 26.8301L44.3292 26.7754C43.3888 24.9095 42.2534 23.4048 40.839 22.3008C39.6434 21.3705 38.249 20.7289 36.7648 20.4258C36.7348 20.3308 36.7031 20.2356 36.6701 20.1406C37.1704 19.3159 37.4562 18.3787 37.5001 17.415C37.5583 16.1204 37.1827 14.8431 36.4328 13.7861C35.6828 12.7291 34.6007 11.9529 33.3595 11.5801C32.8647 11.43 32.5353 10.9796 32.5353 10.4697V10.4551C32.5353 7.24508 29.9396 4.65039 26.7296 4.65039C25.8899 4.65044 25.095 4.82966 24.3751 5.14453C23.2352 5.6545 21.8849 5.46027 20.9249 4.65039C19.6624 3.59395 18.0712 3.0101 16.4249 3H16.215ZM41.7814 29.25C40.5724 30.408 39.1453 30.9841 37.5148 31.2646V29.25H41.7814ZM37.4425 23.7617C37.9976 23.9908 38.5194 24.2941 38.9923 24.6641C39.8908 25.366 40.7082 26.3641 41.4552 27.75H37.5148V25.29C37.5148 24.7751 37.4905 24.2657 37.4425 23.7617ZM27.1203 22.125C27.7169 22.1251 28.2892 22.3623 28.7111 22.7842C29.133 23.2061 29.3703 23.7783 29.3703 24.375C29.3703 24.9717 29.133 25.5439 28.7111 25.9658C28.2892 26.3877 27.7169 26.6249 27.1203 26.625C26.5236 26.625 25.9514 26.3877 25.5294 25.9658C25.1075 25.5439 24.8703 24.9717 24.8703 24.375C24.8703 23.7783 25.1075 23.2061 25.5294 22.7842C25.9514 22.3623 26.5236 22.125 27.1203 22.125Z" fill="#121417"/>
</svg>
