<svg width="48" height="48" viewBox="0 0 48 48" fill="none" xmlns="http://www.w3.org/2000/svg">
<g clip-path="url(#clip0_37_2)">
<path d="M36.5184 11.3684L25.1878 10.1053L11.3392 11.3684L10.0801 24.0002L11.339 36.6318L23.9287 38.2107L36.5184 36.6318L37.7774 23.6845L36.5184 11.3684Z" fill="white"/>
<path d="M16.504 30.9663C15.5629 30.3283 14.9114 29.3968 14.5557 28.1651L16.74 27.2621C16.9384 28.02 17.2845 28.6072 17.7787 29.0242C18.2698 29.441 18.8678 29.6463 19.5665 29.6463C20.281 29.6463 20.8948 29.4283 21.4077 28.9925C21.9205 28.5567 22.1789 28.0008 22.1789 27.3283C22.1789 26.64 21.9081 26.0776 21.3667 25.6421C20.8255 25.2064 20.1457 24.9883 19.3335 24.9883H18.0714V22.8189H19.2043C19.9031 22.8189 20.4917 22.6296 20.9701 22.2506C21.4485 21.8717 21.6877 21.3538 21.6877 20.6938C21.6877 20.1064 21.4737 19.6389 21.0457 19.2885C20.6178 18.9381 20.0763 18.7613 19.4185 18.7613C18.7765 18.7613 18.2665 18.9319 17.8887 19.276C17.5111 19.6202 17.2371 20.0434 17.0642 20.5423L14.902 19.6392C15.1884 18.8243 15.7141 18.1043 16.4851 17.4823C17.2562 16.8602 18.2413 16.5475 19.4373 16.5475C20.3217 16.5475 21.1179 16.7181 21.8231 17.0623C22.5281 17.4064 23.0821 17.8834 23.4817 18.4896C23.8815 19.0989 24.0797 19.7813 24.0797 20.5389C24.0797 21.3127 23.8941 21.9663 23.5227 22.5031C23.1512 23.04 22.6948 23.4504 22.1535 23.7379V23.8672C22.8679 24.1672 23.4502 24.6251 23.9097 25.241C24.3661 25.8568 24.5958 26.5927 24.5958 27.4517C24.5958 28.3106 24.3786 29.0779 23.9442 29.7506C23.5098 30.4234 22.9086 30.9538 22.147 31.3389C21.3823 31.7242 20.5231 31.92 19.5693 31.92C18.4647 31.9231 17.4451 31.6042 16.504 30.9663Z" fill="#1A73E8"/>
<path d="M29.9086 20.0906L27.5228 21.8306L26.3237 20.0053L30.6262 16.8915H32.2756V31.5789H29.9086V20.0906Z" fill="#1A73E8"/>
<path d="M36.5183 48L47.8489 36.6317L42.1836 34.1055L36.5183 36.6317L34.0005 42.3159L36.5183 48Z" fill="#EA4335"/>
<path d="M8.8208 42.3158L11.3386 48H36.5179V36.6317H11.3386L8.8208 42.3158Z" fill="#34A853"/>
<path d="M3.78506 0C1.6985 0 0.00830078 1.69584 0.00830078 3.78936V36.6314L5.67357 39.1576L11.3388 36.6314V11.3683H36.5181L39.0359 5.68416L36.5182 0H3.78506Z" fill="#4285F4"/>
<path d="M0.00830078 36.6317V44.2107C0.00830078 46.3045 1.6985 48 3.78506 48H11.3388V36.6317H0.00830078Z" fill="#188038"/>
<path d="M36.5181 11.3683V36.6314H47.8486V11.3683L42.1833 8.84204L36.5181 11.3683Z" fill="#FBBC04"/>
<path d="M47.8486 11.3683V3.78936C47.8486 1.6956 46.1584 0 44.0719 0H36.5181V11.3683H47.8486Z" fill="#1967D2"/>
</g>
<defs>
<clipPath id="clip0_37_2">
<rect width="48" height="48" fill="white"/>
</clipPath>
</defs>
</svg>
