<svg width="46" height="48" viewBox="0 0 46 48" fill="none" xmlns="http://www.w3.org/2000/svg">
<g clip-path="url(#clip0_37_12)">
<path d="M10.5415 25.8925V10.2917H3.76053C1.76445 10.2917 0.150391 11.9238 0.150391 13.9303V46.1783C0.150391 47.8008 2.09872 48.6072 3.23525 47.4648L10.6943 39.9667H31.9349C33.9311 39.9667 35.545 38.3443 35.545 36.3378V29.5214H14.1612C12.1651 29.5214 10.5415 27.899 10.5415 25.8925Z" fill="#00AC47"/>
<path d="M42.3263 0H14.1614C12.1653 0 10.5513 1.62248 10.5513 3.62898V10.2917H31.9352C33.9312 10.2917 35.5453 11.9142 35.5453 13.9207V29.5118H42.3263C44.3224 29.5118 45.9364 27.8894 45.9364 25.8829V3.62898C45.9364 1.62248 44.3224 0 42.3263 0Z" fill="#5BB974"/>
<path d="M31.9349 10.2917H10.5415V25.8829C10.5415 27.8894 12.1556 29.5118 14.1516 29.5118H35.5355V13.9303C35.5451 11.9238 33.9311 10.2917 31.9349 10.2917Z" fill="#00832D"/>
</g>
<defs>
<clipPath id="clip0_37_12">
<rect width="46" height="48" fill="white"/>
</clipPath>
</defs>
</svg>
