<svg width="60" height="48" viewBox="0 0 60 48" fill="none" xmlns="http://www.w3.org/2000/svg">
<g clip-path="url(#clip0_37_16)">
<path d="M38.0046 13.2177H39.8285L45.027 8.03318L45.2822 5.83202C42.3043 3.21056 38.7053 1.38952 34.8255 0.540931C30.9457 -0.307661 26.9129 -0.155791 23.1083 0.982194C19.3036 2.12018 15.8527 4.2067 13.0814 7.04469C10.3101 9.88266 8.31002 13.3784 7.27002 17.2016C7.84915 16.965 8.49067 16.9266 9.09402 17.0925L19.4909 15.3825C19.4909 15.3825 20.0198 14.5093 20.2933 14.5639C22.5212 12.1238 25.5998 10.6253 28.8992 10.375C32.1984 10.1248 35.4688 11.1417 38.041 13.2177H38.0046Z" fill="#EA4335"/>
<path d="M52.4323 17.2013C51.2374 12.8129 48.7842 8.86771 45.3735 5.84985L38.0774 13.1264C39.5981 14.3655 40.8165 15.9329 41.6413 17.7101C42.4659 19.4875 42.8751 21.4283 42.8381 23.3864V24.6779C43.6909 24.6779 44.5352 24.8455 45.3231 25.1709C46.1108 25.4963 46.8266 25.9735 47.4297 26.5747C48.0326 27.1762 48.511 27.8901 48.8373 28.6759C49.1636 29.4615 49.3316 30.3037 49.3316 31.1541C49.3316 32.0045 49.1636 32.8467 48.8373 33.6323C48.511 34.4181 48.0326 35.132 47.4297 35.7335C46.8266 36.3347 46.1108 36.8119 45.3231 37.1373C44.5352 37.4627 43.6909 37.6303 42.8381 37.6303H29.8511L28.5562 38.94V46.7077L29.8511 47.9994H42.8381C46.4647 48.0275 50.0039 46.8907 52.9325 44.7571C55.8611 42.6237 58.0232 39.6067 59.0994 36.1527C60.1754 32.6984 60.108 28.9907 58.9073 25.5776C57.7067 22.1647 55.4365 19.2277 52.4323 17.2013Z" fill="#4285F4"/>
<path d="M16.8455 47.9272H29.8325V37.5581H16.8455C15.9203 37.5579 15.0059 37.3594 14.1643 36.976L12.3403 37.5399L7.10541 42.7245L6.64941 44.5435C9.58503 46.7544 13.1671 47.9431 16.8455 47.9272Z" fill="#34A853"/>
<path d="M16.846 14.2911C13.3272 14.312 9.90279 15.4286 7.0511 17.4848C4.19943 19.541 2.06287 22.4341 0.939863 25.76C-0.183149 29.0861 -0.236537 32.6787 0.787158 36.0365C1.81086 39.3943 3.8605 42.3493 6.64984 44.4888L14.183 36.9757C13.2257 36.5443 12.3876 35.8879 11.7406 35.0624C11.0937 34.237 10.6572 33.2674 10.4686 32.2368C10.28 31.2061 10.3449 30.1451 10.6578 29.1451C10.9706 28.145 11.5221 27.2355 12.2649 26.4947C13.0077 25.7538 13.9196 25.2039 14.9224 24.8917C15.9252 24.5797 16.9889 24.5149 18.0224 24.7031C19.0557 24.8912 20.0281 25.3266 20.8555 25.9717C21.6832 26.617 22.3416 27.4528 22.7741 28.4075L30.3072 20.8946C28.726 18.833 26.6882 17.1642 24.3529 16.0186C22.0177 14.8731 19.4484 14.2818 16.846 14.2911Z" fill="#FBBC05"/>
</g>
<defs>
<clipPath id="clip0_37_16">
<rect width="60" height="48" fill="white"/>
</clipPath>
</defs>
</svg>
