<svg width="54" height="48" viewBox="0 0 54 48" fill="none" xmlns="http://www.w3.org/2000/svg">
<g clip-path="url(#clip0_37_21)">
<path d="M4.17792 41.1384L6.55067 45.2307C7.0437 46.0922 7.75245 46.7691 8.58445 47.2614L17.0585 32.6154H0.110352C0.110352 33.5691 0.356871 34.523 0.849909 35.3845L4.17792 41.1384Z" fill="#0066DA"/>
<path d="M27.0118 15.3847L18.5377 0.738586C17.7057 1.23089 16.997 1.90782 16.5039 2.76935L0.849909 29.8462C0.365937 30.6893 0.110996 31.6438 0.110352 32.6155H17.0585L27.0118 15.3847Z" fill="#00AC47"/>
<path d="M45.4391 47.2614C46.2711 46.7691 46.9798 46.0922 47.4729 45.2307L48.459 43.5384L53.1736 35.3845C53.6667 34.523 53.9133 33.5691 53.9133 32.6154H36.9639L40.5703 39.6922L45.4391 47.2614Z" fill="#EA4335"/>
<path d="M27.0118 15.3846L35.4859 0.738462C34.6538 0.246154 33.6986 0 32.7125 0H21.311C20.3249 0 19.3697 0.276923 18.5376 0.738462L27.0118 15.3846Z" fill="#00832D"/>
<path d="M36.965 32.6154H17.0585L8.58447 47.2614C9.41647 47.7538 10.3717 48 11.3578 48H42.6657C43.6518 48 44.607 47.723 45.4391 47.2614L36.965 32.6154Z" fill="#2684FC"/>
<path d="M45.3466 16.3078L37.5196 2.76935C37.0266 1.90782 36.3178 1.23089 35.4859 0.738586L27.0117 15.3847L36.965 32.6155H53.8824C53.8824 31.6616 53.6358 30.7078 53.1428 29.8462L45.3466 16.3078Z" fill="#FFBA00"/>
</g>
<defs>
<clipPath id="clip0_37_21">
<rect width="54" height="48" fill="white"/>
</clipPath>
</defs>
</svg>
