<svg width="64" height="48" viewBox="0 0 64 48" fill="none" xmlns="http://www.w3.org/2000/svg">
<g clip-path="url(#clip0_37_28)">
<path d="M4.42486 48.0002H14.5787V23.2792L0.0732422 12.373V43.6376C0.0732422 46.0515 2.02422 48.0002 4.42486 48.0002Z" fill="#4285F4"/>
<path d="M49.3916 48.0002H59.5454C61.9533 48.0002 63.8971 46.0442 63.8971 43.6376V12.373L49.3916 23.2792" fill="#34A853"/>
<path d="M49.3916 4.37488V23.279L63.8971 12.3728V6.55613C63.8971 1.16117 57.7541 -1.9144 53.4531 1.32113" fill="#FBBC04"/>
<path d="M14.5786 23.2792V4.375L31.9851 17.4626L49.3916 4.375V23.2792L31.9851 36.3667" fill="#EA4335"/>
<path d="M0.0732422 6.55613V12.3728L14.5787 23.279V4.37488L10.5171 1.32113C6.20904 -1.9144 0.0732422 1.16117 0.0732422 6.55613Z" fill="#C5221F"/>
</g>
<defs>
<clipPath id="clip0_37_28">
<rect width="64" height="48" fill="white"/>
</clipPath>
</defs>
</svg>
