<svg width="35" height="48" viewBox="0 0 35 48" fill="none" xmlns="http://www.w3.org/2000/svg">
<g clip-path="url(#clip0_37_34)">
<path d="M22.9518 12L29.5253 13.2436L34.9381 12L22.9518 0L21.2983 5.68909L22.9518 12Z" fill="#F29900"/>
<path d="M26.1486 12C24.3834 12 22.9522 10.5673 22.9522 8.8V0H3.33832C1.53221 0 0.0693359 1.46455 0.0693359 3.27272V44.7272C0.0693359 46.5355 1.53221 48 3.33832 48H31.6696C33.4757 48 34.9385 46.5355 34.9385 44.7272V12H26.1486Z" fill="#FBBC04"/>
<path d="M21.3175 34.9091H13.6899V32.1818H21.3175V34.9091ZM21.2766 29.4546H13.7307C11.7421 28.2 10.4209 25.9827 10.4209 23.4546C10.4209 19.5381 13.5918 16.3635 17.5037 16.3635C21.4157 16.3635 24.5865 19.5381 24.5865 23.4546C24.5865 25.9827 23.2652 28.2 21.2766 29.4546Z" fill="white"/>
</g>
<defs>
<clipPath id="clip0_37_34">
<rect width="35" height="48" fill="white"/>
</clipPath>
</defs>
</svg>
