<svg width="34" height="48" viewBox="0 0 34 48" fill="none" xmlns="http://www.w3.org/2000/svg">
<g clip-path="url(#clip0_37_38)">
<path d="M9.31982 35.5586C10.8184 37.4107 12.3447 39.7395 13.1434 41.1463C14.1161 42.9749 14.5194 44.2098 15.243 46.4215C15.6661 47.6328 16.0694 48 16.9155 48C17.8408 48 18.2638 47.3827 18.5881 46.4215C19.2643 44.3466 19.7862 42.7679 20.6126 41.2635C23.7995 35.324 28.9951 31.1039 31.9212 25.3208C31.9212 25.3208 33.8467 21.7883 33.8467 16.8415C33.8467 12.2306 31.9488 9.02643 31.9488 9.02643L9.33169 35.5976L9.31982 35.5586Z" fill="#34A853"/>
<path d="M1.64878 24.6955C3.47158 28.7984 6.94719 32.3933 9.31962 35.5584L21.8935 20.8271C21.8935 20.8271 20.1181 23.1247 16.9114 23.1247C13.3369 23.1247 10.4268 20.3112 10.4268 16.7554C10.4268 14.3093 11.9016 12.6135 11.9016 12.6135C2.64916 13.9733 3.16317 16.1888 1.62109 24.6877L1.64878 24.6955Z" fill="#FBBC04"/>
<path d="M22.052 0.769836C26.2432 2.1023 29.8018 4.91182 31.937 9.01471L21.8938 20.8546C21.8938 20.8546 23.3686 19.1509 23.3686 16.7125C23.3686 13.0824 20.2686 10.3433 16.9235 10.3433C13.7484 10.3433 11.9414 12.6135 11.9414 12.6135C12.7124 10.8786 20.6798 1.35987 22.0638 0.773745L22.052 0.769836Z" fill="#4285F4"/>
<path d="M3.94238 5.97851C6.44133 3.04005 10.8224 0 16.8721 0C19.7942 0 22.0123 0.765874 22.0123 0.765874L11.9295 12.6057C11.2495 12.2411 4.61458 7.13514 3.94238 5.96288V5.97851Z" fill="#1A73E8"/>
<path d="M1.64884 24.6955C1.64884 24.6955 0 21.46 0 16.8023C0 12.3868 1.74768 8.51833 3.95404 6.01752L11.9412 12.6603L1.66069 24.6955H1.64884Z" fill="#EA4335"/>
</g>
<defs>
<clipPath id="clip0_37_38">
<rect width="34" height="48" fill="white"/>
</clipPath>
</defs>
</svg>
