<svg width="24" height="24" viewBox="0 0 24 24" fill="none" xmlns="http://www.w3.org/2000/svg">
<path d="M6 20C5.45 20 4.97933 19.8043 4.588 19.413C4.19667 19.0217 4.00067 18.5507 4 18C3.99934 17.4493 4.19533 16.9787 4.588 16.588C4.98067 16.1973 5.45134 16.0013 6 16C6.54867 15.9987 7.01967 16.1947 7.413 16.588C7.80634 16.9813 8.002 17.452 8 18C7.998 18.548 7.80234 19.019 7.413 19.413C7.02367 19.807 6.55267 20.0027 6 20ZM12 20C11.45 20 10.9793 19.8043 10.588 19.413C10.1967 19.0217 10.0007 18.5507 10 18C9.99934 17.4493 10.1953 16.9787 10.588 16.588C10.9807 16.1973 11.4513 16.0013 12 16C12.5487 15.9987 13.0197 16.1947 13.413 16.588C13.8063 16.9813 14.002 17.452 14 18C13.998 18.548 13.8023 19.019 13.413 19.413C13.0237 19.807 12.5527 20.0027 12 20ZM18 20C17.45 20 16.9793 19.8043 16.588 19.413C16.1967 19.0217 16.0007 18.5507 16 18C15.9993 17.4493 16.1953 16.9787 16.588 16.588C16.9807 16.1973 17.4513 16.0013 18 16C18.5487 15.9987 19.0197 16.1947 19.413 16.588C19.8063 16.9813 20.002 17.452 20 18C19.998 18.548 19.8023 19.019 19.413 19.413C19.0237 19.807 18.5527 20.0027 18 20ZM6 14C5.45 14 4.97933 13.8043 4.588 13.413C4.19667 13.0217 4.00067 12.5507 4 12C3.99934 11.4493 4.19533 10.9787 4.588 10.588C4.98067 10.1973 5.45134 10.0013 6 10C6.54867 9.99867 7.01967 10.1947 7.413 10.588C7.80634 10.9813 8.002 11.452 8 12C7.998 12.548 7.80234 13.019 7.413 13.413C7.02367 13.807 6.55267 14.0027 6 14ZM12 14C11.45 14 10.9793 13.8043 10.588 13.413C10.1967 13.0217 10.0007 12.5507 10 12C9.99934 11.4493 10.1953 10.9787 10.588 10.588C10.9807 10.1973 11.4513 10.0013 12 10C12.5487 9.99867 13.0197 10.1947 13.413 10.588C13.8063 10.9813 14.002 11.452 14 12C13.998 12.548 13.8023 13.019 13.413 13.413C13.0237 13.807 12.5527 14.0027 12 14ZM18 14C17.45 14 16.9793 13.8043 16.588 13.413C16.1967 13.0217 16.0007 12.5507 16 12C15.9993 11.4493 16.1953 10.9787 16.588 10.588C16.9807 10.1973 17.4513 10.0013 18 10C18.5487 9.99867 19.0197 10.1947 19.413 10.588C19.8063 10.9813 20.002 11.452 20 12C19.998 12.548 19.8023 13.019 19.413 13.413C19.0237 13.807 18.5527 14.0027 18 14ZM6 8C5.45 8 4.97933 7.80433 4.588 7.413C4.19667 7.02167 4.00067 6.55067 4 6C3.99934 5.44933 4.19533 4.97867 4.588 4.588C4.98067 4.19733 5.45134 4.00133 6 4C6.54867 3.99867 7.01967 4.19467 7.413 4.588C7.80634 4.98133 8.002 5.452 8 6C7.998 6.548 7.80234 7.019 7.413 7.413C7.02367 7.807 6.55267 8.00267 6 8ZM12 8C11.45 8 10.9793 7.80433 10.588 7.413C10.1967 7.02167 10.0007 6.55067 10 6C9.99934 5.44933 10.1953 4.97867 10.588 4.588C10.9807 4.19733 11.4513 4.00133 12 4C12.5487 3.99867 13.0197 4.19467 13.413 4.588C13.8063 4.98133 14.002 5.452 14 6C13.998 6.548 13.8023 7.019 13.413 7.413C13.0237 7.807 12.5527 8.00267 12 8ZM18 8C17.45 8 16.9793 7.80433 16.588 7.413C16.1967 7.02167 16.0007 6.55067 16 6C15.9993 5.44933 16.1953 4.97867 16.588 4.588C16.9807 4.19733 17.4513 4.00133 18 4C18.5487 3.99867 19.0197 4.19467 19.413 4.588C19.8063 4.98133 20.002 5.452 20 6C19.998 6.548 19.8023 7.019 19.413 7.413C19.0237 7.807 18.5527 8.00267 18 8Z" fill="#383C42"/>
</svg>
