<svg width="58" height="48" viewBox="0 0 58 48" fill="none" xmlns="http://www.w3.org/2000/svg">
<g clip-path="url(#clip0_37_46)">
<path d="M44.189 33.4369V31.743V29.4038V18.3931V16.0539L45.9839 12.303L54.9586 5.16421C56.1553 4.15592 57.9503 5.00289 57.9503 6.57584V40.6968C57.9503 42.2696 56.1155 43.1166 54.9188 42.1083L44.189 33.4369Z" fill="#00AC47"/>
<path d="M14.4938 0L0.00830078 14.5455H14.4938V0Z" fill="#EA4335"/>
<path d="M14.4938 14.5455H0.00830078V33.4546H14.4938V14.5455Z" fill="#2684FC"/>
<path d="M0.00830078 33.4546V43.1515C0.00830078 45.8183 2.18113 48 4.83683 48H14.4938V33.4546H0.00830078Z" fill="#0066DA"/>
<path d="M45.9997 4.79288C45.9997 2.1568 43.873 0 41.2738 0H31.8219H14.4937V14.5455H32.2384V24L45.9997 23.5648V4.79288Z" fill="#FFBA00"/>
<path d="M32.2384 33.4546H14.4937V48H31.8219H41.2738C43.873 48 45.9997 45.8464 45.9997 43.2141V24H32.2384V33.4546Z" fill="#00AC47"/>
<path d="M46.0001 12.3636V34.9091L32.2388 24L46.0001 12.3636Z" fill="#00832D"/>
</g>
<defs>
<clipPath id="clip0_37_46">
<rect width="58" height="48" fill="white"/>
</clipPath>
</defs>
</svg>
