<svg width="59" height="48" viewBox="0 0 59 48" fill="none" xmlns="http://www.w3.org/2000/svg">
<g clip-path="url(#clip0_37_54)">
<path d="M46.8385 32.5603C46.8385 33.3771 46.1635 34.0461 45.3388 34.0461H13.6006C12.7759 34.0461 12.1011 33.3771 12.1011 32.5603V1.48576C12.1011 0.668992 12.7759 0 13.6006 0H45.3398C46.1645 0 46.8393 0.668992 46.8393 1.48576V32.5603H46.8385Z" fill="#0C9D58"/>
<path opacity="0.2" d="M46.8379 7.98847L34.9429 6.46063L46.8379 9.64529V7.98847Z" fill="#004D40"/>
<path opacity="0.2" d="M30.0432 1.62013L12.0298 9.64715L31.9386 2.41541V2.3957C31.5886 1.64701 30.7361 1.29773 30.0432 1.62013Z" fill="#004D40"/>
<path opacity="0.2" d="M45.3398 0H13.6006C12.7759 0 12.1011 0.668992 12.1011 1.48576V1.81891C12.1011 1.00215 12.7759 0.333154 13.6006 0.333154H45.3398C46.1645 0.333154 46.8393 1.00215 46.8393 1.81891V1.48576C46.8385 0.668992 46.1645 0 45.3398 0Z" fill="white"/>
<path d="M19.8029 31.6056C19.5884 32.4035 20.0165 33.2176 20.7541 33.4147L50.1512 41.3046C50.8889 41.5016 51.6677 41.0099 51.8813 40.212L58.8066 14.4195C59.0211 13.6216 58.593 12.8075 57.8554 12.6105L28.4583 4.72047C27.7206 4.52344 26.9418 5.01511 26.7282 5.81308L19.8029 31.6056Z" fill="#EA4335"/>
<path opacity="0.2" d="M52.1831 23.6261L53.7294 33L52.1831 38.7613V23.6261Z" fill="#3E2723"/>
<path opacity="0.2" d="M35.082 6.84314L36.4677 7.2148L37.3274 13.0002L35.082 6.84314Z" fill="#3E2723"/>
<path opacity="0.2" d="M57.8565 12.6105L28.4595 4.72047C27.7219 4.52344 26.9429 5.01511 26.7293 5.81308L19.8042 31.6056C19.7925 31.6486 19.7898 31.6925 19.7817 31.7355L26.6549 6.13816C26.8694 5.34021 27.6483 4.84853 28.385 5.04556L57.7821 12.9356C58.4793 13.1218 58.893 13.8607 58.7557 14.6157L58.8086 14.4195C59.0222 13.6216 58.5941 12.8075 57.8565 12.6105Z" fill="white"/>
<path d="M42.955 28.4291C43.2378 29.2056 42.8824 30.0536 42.1654 30.3143L11.145 41.5815C10.4271 41.8421 9.60867 41.4203 9.32598 40.6439L0.174321 15.5517C-0.108359 14.7752 0.247011 13.9271 0.964031 13.6665L31.9844 2.3993C32.7023 2.13869 33.5208 2.56052 33.8034 3.33696L42.955 28.4291Z" fill="#FFC107"/>
<path opacity="0.2" d="M0.291874 15.8677C0.00919319 15.0913 0.364563 14.2432 1.08158 13.9825L32.1019 2.71445C32.8118 2.45653 33.6186 2.86761 33.9102 3.62794L33.8034 3.33599C33.5198 2.55953 32.7013 2.13772 31.9844 2.39833L0.964024 13.6664C0.246106 13.927 -0.109263 14.7751 0.174315 15.5516L9.32598 40.6438C9.32867 40.6518 9.33405 40.659 9.33764 40.668L0.291874 15.8677Z" fill="white"/>
<path d="M52.1831 46.5C52.1831 47.3248 51.5065 48 50.68 48H8.25999C7.43348 48 6.75684 47.3248 6.75684 46.5V14.5003C6.75684 13.6754 7.43348 13.0002 8.25999 13.0002H50.68C51.5065 13.0002 52.1831 13.6754 52.1831 14.5003V46.5Z" fill="#4285F4"/>
<path d="M44.0835 25.667H31.3906V22.3337H44.0835C44.4522 22.3337 44.7511 22.632 44.7511 23V24.9998C44.7511 25.368 44.4522 25.667 44.0835 25.667ZM44.0835 38.3331H31.3906V34.9998H44.0835C44.4522 34.9998 44.7511 35.2981 44.7511 35.6661V37.6659C44.7511 38.0349 44.4522 38.3331 44.0835 38.3331ZM46.0872 31.9997H31.3906V28.6664H46.0872C46.4561 28.6664 46.755 28.9646 46.755 29.3326V31.3325C46.755 31.7014 46.4561 31.9997 46.0872 31.9997Z" fill="white"/>
<path opacity="0.2" d="M50.68 47.6669H8.25999C7.43348 47.6669 6.75684 46.9915 6.75684 46.1667V46.4999C6.75684 47.3247 7.43348 48 8.25999 48H50.68C51.5065 48 52.1831 47.3247 52.1831 46.4999V46.1667C52.1831 46.9915 51.5065 47.6669 50.68 47.6669Z" fill="#1A237E"/>
<path opacity="0.2" d="M8.25999 13.3333H50.68C51.5065 13.3333 52.1831 14.0086 52.1831 14.8334V14.5003C52.1831 13.6754 51.5065 13.0002 50.68 13.0002H8.25999C7.43348 13.0002 6.75684 13.6754 6.75684 14.5003V14.8334C6.75684 14.0086 7.43348 13.3333 8.25999 13.3333Z" fill="white"/>
<path d="M20.0335 29.0003V32.0069H24.3562C23.999 33.8382 22.3855 35.1664 20.0335 35.1664C17.4095 35.1664 15.2817 32.9517 15.2817 30.3329C15.2817 27.7144 17.4095 25.4995 20.0335 25.4995C21.2153 25.4995 22.2734 25.9053 23.1089 26.6997V26.7014L25.3963 24.4187C24.0072 23.1264 22.1953 22.3337 20.0325 22.3337C15.6057 22.3337 12.0161 25.9152 12.0161 30.3339C12.0161 34.7526 15.6048 38.3341 20.0325 38.3341C24.6623 38.3341 27.708 35.0857 27.708 30.5157C27.708 29.9918 27.6596 29.4867 27.5815 29.0003H20.0335Z" fill="white"/>
<g opacity="0.2">
<path d="M20.1177 32.0068V32.34H24.3596C24.391 32.2307 24.4179 32.1196 24.4404 32.0068H20.1177Z" fill="#1A237E"/>
<path d="M20.1174 38.3332C15.7463 38.3332 12.1944 34.8414 12.1055 30.4996C12.1047 30.5552 12.1011 30.6107 12.1011 30.6662C12.1011 35.0849 15.6898 38.6664 20.1174 38.6664C24.7472 38.6664 27.7929 35.4182 27.7929 30.848C27.7929 30.8113 27.7884 30.7772 27.7884 30.7406C27.6888 35.1915 24.6709 38.3332 20.1174 38.3332ZM23.193 26.6998C22.3574 25.9062 21.2986 25.4996 20.1174 25.4996C17.4935 25.4996 15.3658 27.7144 15.3658 30.3331C15.3658 30.3896 15.3721 30.4441 15.3739 30.4996C15.4627 27.9544 17.5492 25.8328 20.1174 25.8328C21.2994 25.8328 22.3574 26.2385 23.193 27.0329V27.0347L25.6473 24.5852C25.5899 24.5315 25.5262 24.4841 25.4669 24.4321L23.1938 26.7016L23.193 26.6998Z" fill="#1A237E"/>
</g>
<path opacity="0.2" d="M44.7511 25.3329V24.9998C44.7511 25.368 44.4522 25.6661 44.0835 25.6661H31.3906V25.9993H44.0835C44.4522 26.0001 44.7511 25.7019 44.7511 25.3329ZM44.0835 38.3331H31.3906V38.6662H44.0835C44.4522 38.6662 44.7511 38.368 44.7511 38V37.6669C44.7511 38.0349 44.4522 38.3331 44.0835 38.3331ZM46.0872 31.9997H31.3906V32.3328H46.0872C46.4561 32.3328 46.755 32.0345 46.755 31.6665V31.3333C46.755 31.7014 46.4561 31.9997 46.0872 31.9997Z" fill="#1A237E"/>
<path d="M57.8563 12.6106L46.839 9.65338V1.48576C46.839 0.668992 46.1641 0 45.3395 0H13.6003C12.7756 0 12.1007 0.668992 12.1007 1.48576V9.62114L0.964024 13.6664C0.246106 13.927 -0.109263 14.7752 0.174315 15.5516L6.75672 33.601V46.4998C6.75672 47.3248 7.43336 48 8.25986 48H50.6798C51.5063 48 52.183 47.3248 52.183 46.4998V39.0944L58.8085 14.4196C59.0221 13.6217 58.594 12.8076 57.8563 12.6106Z" fill="url(#paint0_radial_37_54)"/>
</g>
<defs>
<radialGradient id="paint0_radial_37_54" cx="0" cy="0" r="1" gradientUnits="userSpaceOnUse" gradientTransform="translate(13.3257 3.8889) scale(57.1692 57.053)">
<stop stop-color="white" stop-opacity="0.1"/>
<stop offset="1" stop-color="white" stop-opacity="0"/>
</radialGradient>
<clipPath id="clip0_37_54">
<rect width="59" height="48" fill="white"/>
</clipPath>
</defs>
</svg>
