<svg width="48" height="48" viewBox="0 0 48 48" fill="none" xmlns="http://www.w3.org/2000/svg">
<path d="M13.2943 12.3075C19.3836 12.3075 24.3201 17.2597 24.3201 23.3699V24.375H3.27022C2.71706 24.375 2.26855 23.925 2.26855 23.3699C2.26855 17.2597 7.20511 12.3075 13.2943 12.3075Z" fill="#FBBC04"/>
<path d="M36.3473 13.3125C36.3473 19.4219 31.4114 24.375 25.3214 24.375H24.3198V3.25501C24.3198 2.7 24.7683 2.25 25.3214 2.25C31.4114 2.25 36.3473 7.20301 36.3473 13.3125Z" fill="#EA4335"/>
<path d="M35.3455 36.4426C29.2563 36.4426 24.3198 31.4903 24.3198 25.38V24.3751H45.3697C45.9229 24.3751 46.3713 24.825 46.3713 25.38C46.3713 31.4903 41.4348 36.4426 35.3455 36.4426Z" fill="#4285F4"/>
<path d="M12.2925 35.4375C12.2925 29.328 17.2283 24.3751 23.3183 24.3751H24.3199V45.4951C24.3199 46.0499 23.8713 46.5 23.3183 46.5C17.2283 46.5 12.2925 41.5471 12.2925 35.4375Z" fill="#34A853"/>
</svg>
