<svg width="44" height="48" viewBox="0 0 44 48" fill="none" xmlns="http://www.w3.org/2000/svg">
<g clip-path="url(#clip0_37_80)">
<path d="M20.4908 22.9333L0.20166 44.0355C0.434596 44.8336 0.846897 45.569 1.40752 46.1859C1.96815 46.803 2.66248 47.2858 3.43825 47.5979C4.21402 47.9099 5.051 48.0432 5.88618 47.9877C6.72136 47.9322 7.53295 47.6893 8.25989 47.2775L31.089 34.3699L20.4908 22.9333Z" fill="#EA4335"/>
<path d="M41.0066 19.3462L31.1341 13.733L20.022 23.4136L31.1794 34.3398L40.9763 28.7867C41.6021 28.4638 42.1574 28.0214 42.6103 27.4848C43.0631 26.9483 43.4048 26.3282 43.6156 25.66C43.8263 24.992 43.902 24.2891 43.8382 23.592C43.7746 22.8949 43.5726 22.217 43.2441 21.5974C42.7316 20.639 41.9417 19.855 40.9763 19.3462H41.0066Z" fill="#FBBC04"/>
<path d="M0.201445 3.99231C0.0807241 4.44279 0.0197346 4.90698 0.0200205 5.37311V42.6547C0.0197346 43.1208 0.0807241 43.5849 0.201445 44.0355L21.1861 23.4736L0.201445 3.99231Z" fill="#4285F4"/>
<path d="M20.642 24.0139L31.1343 13.7329L8.33548 0.765453C7.4775 0.26744 6.50218 0.00337576 5.50829 1.07344e-05C4.30785 -0.0023509 3.13955 0.385026 2.18149 1.10309C1.22343 1.82115 0.528155 2.83051 0.20166 3.97731L20.642 24.0139Z" fill="#34A853"/>
</g>
<defs>
<clipPath id="clip0_37_80">
<rect width="44" height="48" fill="white"/>
</clipPath>
</defs>
</svg>
