<svg width="47" height="48" viewBox="0 0 47 48" fill="none" xmlns="http://www.w3.org/2000/svg">
<g clip-path="url(#clip0_37_85)">
<path d="M23.9795 19.6367V28.9312H36.8848C36.3183 31.9203 34.6176 34.4514 32.067 36.1531L39.8495 42.197C44.3839 38.008 46.9999 31.8551 46.9999 24.5459C46.9999 22.8442 46.8474 21.2077 46.564 19.6368L23.9795 19.6367Z" fill="#4285F4"/>
<path d="M10.5406 28.5685L8.78535 29.9133L2.57227 34.7568C6.51804 42.5896 14.6052 48.0006 23.979 48.0006C30.4535 48.0006 35.8815 45.8624 39.8492 42.197L32.0667 36.1533C29.9303 37.5933 27.2053 38.4661 23.979 38.4661C17.7443 38.4661 12.4471 34.2552 10.5504 28.5822L10.5406 28.5685Z" fill="#34A853"/>
<path d="M2.57219 13.2438C0.937296 16.4728 0 20.1165 0 24.0002C0 27.8837 0.937296 31.5275 2.57219 34.7565C2.57219 34.7781 10.5511 28.56 10.5511 28.56C10.0715 27.12 9.78802 25.5928 9.78802 23.9999C9.78802 22.4069 10.0715 20.8797 10.5511 19.4397L2.57219 13.2438Z" fill="#FBBC05"/>
<path d="M23.9795 9.55646C27.5112 9.55646 30.6503 10.7783 33.1573 13.1347L40.0243 6.26197C35.8604 2.37835 30.4542 0 23.9795 0C14.6057 0 6.51804 5.38914 2.57227 13.2438L10.5509 19.4403C12.4474 13.7674 17.7448 9.55646 23.9795 9.55646Z" fill="#EA4335"/>
</g>
<defs>
<clipPath id="clip0_37_85">
<rect width="47" height="48" fill="white"/>
</clipPath>
</defs>
</svg>
