<svg width="51" height="48" viewBox="0 0 51 48" fill="none" xmlns="http://www.w3.org/2000/svg">
<g clip-path="url(#clip0_37_90)">
<path d="M39.6181 5.59674L35.6151 7.79514L33.6328 11.5775L35.6151 16.2047L39.3679 20.2559L43.4287 17.9999L45.9209 13.7087L43.4287 8.39994L39.6181 5.59674Z" fill="#0066DA"/>
<path d="M24.1157 21.0624L33.6325 11.568C36.4327 13.6896 38.4919 16.7328 39.3676 20.2464L26.3097 33.2832C25.1357 34.4544 23.2304 34.4544 22.0565 33.2832L13.2518 24.4992C12.3087 23.5584 12.3087 22.0416 13.2518 21.1104L17.0046 17.3664C17.9476 16.4256 19.468 16.4256 20.4014 17.3664L24.1157 21.0624ZM50.1449 6.1056L46.3248 2.2944C45.3914 1.3632 43.8614 1.3632 42.928 2.2944L39.6178 5.5968C42.264 7.8048 44.4195 10.5696 45.9206 13.7088L50.1449 9.4944C51.088 8.5632 51.088 7.0368 50.1449 6.1056ZM39.8199 24C39.8199 32.6208 32.8146 39.6 24.1831 39.6C15.5516 39.6 8.54628 32.6208 8.54628 24C8.54628 15.3792 15.5419 8.4 24.1831 8.4C27.7338 8.4 31.0055 9.5808 33.6325 11.5776L39.6178 5.6064C35.4415 2.1024 30.0625 0 24.1831 0C10.8942 0 0.126465 10.7424 0.126465 24C0.126465 37.2576 10.8942 48 24.1831 48C37.4719 48 48.2397 37.2576 48.2397 24C48.2397 20.3232 47.4025 16.8288 45.9206 13.7088L39.3676 20.256C39.6563 21.456 39.8199 22.7136 39.8199 24Z" fill="#2684FC"/>
</g>
<defs>
<clipPath id="clip0_37_90">
<rect width="51" height="48" fill="white"/>
</clipPath>
</defs>
</svg>
