<svg width="48" height="48" viewBox="0 0 48 48" fill="none" xmlns="http://www.w3.org/2000/svg">
<g clip-path="url(#clip0_37_93)">
<path d="M44.6618 48C46.4108 48 47.8438 46.5864 47.8438 44.8555V12.7802C47.8438 11.0492 46.4108 9.63562 44.6618 9.63562H13.6035L26.0681 48H44.6618Z" fill="#DBDBDB"/>
<path d="M44.6618 11.0781C45.1266 11.0781 45.5674 11.2608 45.8982 11.5877C46.2239 11.9099 46.4061 12.333 46.4061 12.7802V44.8555C46.4061 45.3027 46.2289 45.7257 45.8982 46.048C45.5674 46.3749 45.1266 46.5576 44.6618 46.5576H27.1128L15.5827 11.0781H44.6618ZM44.6618 9.63562H13.6035L26.0681 48H44.6618C46.4108 48 47.8438 46.5864 47.8438 44.8555V12.7802C47.8438 11.0492 46.4108 9.63562 44.6618 9.63562Z" fill="#DCDCDC"/>
<path d="M23.1255 38.9366L26.0678 48L34.2481 38.9366H23.1255Z" fill="#4352B8"/>
<path d="M44.8727 22.8917V21.0117H35.8395V17.973H32.9067V21.0117H27.1416V22.8917H38.6142C38.0008 25.0602 36.6446 27.1085 35.3219 28.7C32.9785 25.916 32.9689 25.0122 32.9689 25.0122H30.5345C30.5345 25.0122 30.6351 26.368 33.9227 30.2338C32.8539 31.3301 32.044 31.9792 32.044 31.9792L32.7916 34.3256C32.7916 34.3256 33.9227 33.3494 35.3364 31.8445C36.7548 33.388 38.5854 35.244 40.9527 37.4557L42.4911 35.9123C39.956 33.6043 38.0966 31.7725 36.7308 30.3011C38.5615 28.1278 40.4209 25.392 40.8138 22.8869H44.868V22.8917H44.8727Z" fill="#607988"/>
<path d="M3.19471 0C1.44556 0 0.0126953 1.43764 0.0126953 3.19744V35.7488C0.0126953 37.5037 1.44556 38.9414 3.19471 38.9414H34.2529L21.7884 0H3.19471Z" fill="#4285F4"/>
<path d="M25.6172 9.63562H44.6614C46.4104 9.63562 47.8434 11.0492 47.8434 12.7802V32.0225L25.6172 9.63562Z" fill="url(#paint0_linear_37_93)"/>
<path d="M17.8103 20.704C17.6905 22.161 16.4492 24.3197 13.4446 24.3197C10.8424 24.3197 8.73385 22.161 8.73385 19.5019C8.73385 16.843 10.8424 14.6842 13.4446 14.6842C14.9254 14.6842 15.9126 15.3285 16.4781 15.8526L18.4525 13.9485C17.1538 12.7465 15.4621 11.9964 13.4446 11.9964C9.3185 11.9964 5.96875 15.3573 5.96875 19.4971C5.96875 23.637 9.3185 26.9979 13.4446 26.9979C17.7671 26.9979 20.6233 23.9544 20.6233 19.6606C20.6233 19.0451 20.5466 18.5933 20.446 18.1317H13.4494V20.6992L17.8103 20.704Z" fill="#EEEEEE"/>
<path d="M44.6616 9.63558H24.8746L21.7884 0H3.19471C1.44556 0 0.0126953 1.43764 0.0126953 3.19744V35.7488C0.0126953 37.5037 1.44556 38.9414 3.19471 38.9414H23.1256L26.0679 48H44.6616C46.4108 48 47.8436 46.5864 47.8436 44.8555V12.7801C47.8436 11.0492 46.4108 9.63558 44.6616 9.63558Z" fill="url(#paint1_radial_37_93)"/>
</g>
<defs>
<linearGradient id="paint0_linear_37_93" x1="25.6172" y1="20.8291" x2="47.8434" y2="20.8291" gradientUnits="userSpaceOnUse">
<stop stop-color="white" stop-opacity="0.2"/>
<stop offset="1" stop-color="white" stop-opacity="0.02"/>
</linearGradient>
<radialGradient id="paint1_radial_37_93" cx="0" cy="0" r="1" gradientUnits="userSpaceOnUse" gradientTransform="translate(3.13759 0.931153) scale(67.008 67.2314)">
<stop stop-color="white" stop-opacity="0.1"/>
<stop offset="1" stop-color="white" stop-opacity="0"/>
</radialGradient>
<clipPath id="clip0_37_93">
<rect width="48" height="48" fill="white"/>
</clipPath>
</defs>
</svg>
