<svg width="69" height="48" viewBox="0 0 69 48" fill="none" xmlns="http://www.w3.org/2000/svg">
<g clip-path="url(#clip0_37_102)">
<path d="M67.4839 7.49578C66.6915 4.54374 64.3647 2.22389 61.4042 1.43368C56.0435 4.57764e-07 34.538 0 34.538 0C34.538 0 13.0326 4.57764e-07 7.67184 1.43368C4.71126 2.22389 2.38466 4.54374 1.59214 7.49578C0.154297 12.841 0.154297 24 0.154297 24C0.154297 24 0.154297 35.159 1.59214 40.5043C2.38466 43.4563 4.71126 45.7762 7.67184 46.5662C13.0326 48 34.538 48 34.538 48C34.538 48 56.0435 48 61.4042 46.5662C64.3647 45.7762 66.6915 43.4563 67.4839 40.5043C68.9218 35.159 68.9218 24 68.9218 24C68.9218 24 68.916 12.841 67.4839 7.49578Z" fill="#FF0000"/>
<path d="M27.6548 34.285L45.5203 24.001L27.6548 13.7167V34.285Z" fill="white"/>
</g>
<defs>
<clipPath id="clip0_37_102">
<rect width="69" height="48" fill="white"/>
</clipPath>
</defs>
</svg>
