<svg width="460" height="500" viewBox="0 0 460 500" fill="none" xmlns="http://www.w3.org/2000/svg">
<path d="M162.726 66.1725C162.16 66.7958 161.586 67.4135 161.005 68.0237C136.699 93.5355 101.332 104.363 69.7101 119.891C34.2494 137.304 4.71737 165.41 0.472768 206.54C-4.25934 252.396 28.1003 292.31 27.8579 337.784C27.6805 371.016 9.55029 403.822 17.108 436.182C25.457 471.932 63.1599 493.891 99.5466 498.579C135.933 503.266 172.588 495.066 209.194 492.628C276.871 488.12 351.545 501.677 407.344 463.091C448.474 434.648 468.951 379.347 456.27 330.952C444.527 286.136 408.032 249.586 402.496 203.587C398.337 169.019 412.495 133.909 406.681 99.5797C399.074 54.6645 358.653 21.7768 315.984 5.89756C279.791 -7.57149 244.891 3.05634 214.868 27.3589C197.267 41.6068 177.947 49.4101 162.726 66.1725Z" fill="#E4677C"/>
</svg>
