<svg width="300" height="55" viewBox="0 0 300 55" fill="none" xmlns="http://www.w3.org/2000/svg">
<g clip-path="url(#clip0_272_2)">
<path d="M0 57C3.53465 42.1657 7.06931 27.3315 12.2917 20.2376C17.514 13.1437 24.4241 13.7902 30 17.3133C35.5759 20.8364 39.8176 27.236 44.375 29.8459C48.9324 32.4559 53.8053 31.2762 59.7917 32.2132C65.778 33.1502 72.8777 36.204 77.7083 32.3525C82.5389 28.5009 85.1004 17.7441 88.5417 18.8451C91.9829 19.946 96.304 32.9048 102.5 32.4917C108.696 32.0786 116.767 18.2938 122.292 13.832C127.816 9.37025 130.795 14.2316 134.792 16.06C138.789 17.8884 143.805 16.6838 148.542 18.1488C153.279 19.6138 157.737 23.7482 162.708 26.5039C167.68 29.2596 173.165 30.6364 179.375 25.9469C185.585 21.2574 192.519 10.5016 197.292 12.9965C202.065 15.4913 204.677 31.2368 209.583 32.3525C214.49 33.4681 221.692 19.9539 227.292 19.2628C232.892 18.5717 236.89 30.7036 241.042 31.9347C245.193 33.1658 249.498 23.4962 255.208 19.5413C260.919 15.5865 268.036 17.3465 272.5 18.5666C276.964 19.7866 278.775 20.4668 282.917 26.7824C287.058 33.098 293.529 45.049 300 57H0Z" fill="#471F25"/>
</g>
<defs>
<clipPath id="clip0_272_2">
<rect width="300" height="55" fill="white"/>
</clipPath>
</defs>
</svg>
