<svg width="500" height="508" viewBox="0 0 500 508" fill="none" xmlns="http://www.w3.org/2000/svg">
<path d="M456.601 389.6C469.617 379.529 480.656 366.964 487.278 351.987C502.112 318.434 492.742 279.809 492.759 243.119C492.781 196.829 508.081 149.301 494.136 105.164C483.197 70.5389 455.512 43.5296 425.02 23.8365C401.092 8.38254 372.804 -3.80292 344.748 1.09979C321.189 5.21696 301.341 20.7177 278.947 29.1138C234.304 45.8515 186.016 33.4964 139.842 35.6586C91.0872 37.9414 40.751 60.3304 15.1445 103.625C-2.71009 133.812 -5.72924 173.396 11.2105 204.107C23.797 226.925 46.0475 243.693 56.3992 267.61C76.3674 313.744 45.663 366.226 49.5722 416.347C53.0907 461.456 89.9269 503.21 134.938 507.577C161.179 510.122 187.199 500.852 210.628 488.756C234.057 476.661 255.97 461.606 280.169 451.138C332.412 428.539 393.244 428.178 442.283 399.272C447.229 396.358 452.037 393.133 456.601 389.6Z" fill="#471F25"/>
</svg>
