<svg width="50" height="50" viewBox="0 0 50 50" fill="none" xmlns="http://www.w3.org/2000/svg">
<path fill-rule="evenodd" clip-rule="evenodd" d="M28.8396 14.1615C28.5071 12.8261 27.8382 11.5981 26.8968 10.5943C25.9554 9.59057 24.7728 8.84448 23.4615 8.42708C24.0469 7.12188 25.3209 6.25208 26.9927 6.25208C27.5453 6.25208 28.0752 6.03259 28.4659 5.64189C28.8566 5.25119 29.0761 4.72128 29.0761 4.16875C29.0761 3.61622 28.8566 3.08631 28.4659 2.69561C28.0752 2.30491 27.5453 2.08542 26.9927 2.08542C22.9469 2.08542 19.9386 4.75521 19.1479 8.27188C17.7683 8.60201 16.5009 9.29214 15.475 10.2719C14.2759 10.1098 13.0696 10.0059 11.8604 9.96042C10.7875 9.92188 9.55835 10.124 8.45731 10.8542C5.88127 12.5625 1.04169 17.274 1.04169 27.9333C1.04169 34.2042 1.2719 38.4104 1.51669 41.1104C1.82919 44.5615 4.53648 47.051 7.88023 47.325C11.2969 47.6042 16.9292 47.9167 25.0156 47.9167C33.0969 47.9167 38.7177 47.6042 42.1302 47.325C45.4719 47.051 48.1761 44.5625 48.4896 41.1135C48.7094 38.6813 48.9188 35.0271 48.9584 29.7417C48.9709 28.0104 48.2365 26.3104 46.8281 25.1729C44.0302 22.9125 37.2719 17.8313 28.8396 14.1615ZM28.6625 18.651C28.016 20.6333 26.6256 22.2874 24.784 23.2651C22.9424 24.2428 20.7933 24.4678 18.7891 23.8927C16.7849 23.3177 15.0821 21.9874 14.039 20.1821C12.9959 18.3767 12.6941 16.237 13.1969 14.2135C12.7025 14.1719 12.2073 14.1424 11.7115 14.125C11.2448 14.1083 10.9427 14.2052 10.7604 14.326C9.35939 15.2563 5.80731 18.2802 5.27502 25.9448C11.8481 26.2093 18.4258 26.344 25.0042 26.349C30.3828 26.3466 35.761 26.2528 41.1365 26.0677C38.1177 23.8781 33.7479 21.025 28.6625 18.651ZM40.2365 30.2656C41.7541 30.2174 43.2715 30.1608 44.7886 30.0958C44.7771 31.4294 44.7518 32.7628 44.7125 34.0958L44.5979 34.101C38.0703 34.375 31.5376 34.5139 25.0042 34.5177C18.4708 34.5139 11.9381 34.375 5.41044 34.101L5.29481 34.0958C5.25835 32.8958 5.23231 31.5708 5.21773 30.1125C11.8096 30.3763 18.406 30.5107 25.0031 30.5156C30.9979 30.5156 36.3667 30.3906 40.2365 30.2656ZM5.59065 39.8438C5.61634 40.1604 5.64169 40.4576 5.66669 40.7354C5.78648 42.0604 6.7844 43.0552 8.21877 43.1729C11.5188 43.4427 17.0365 43.751 25.0156 43.751C32.9896 43.751 38.4969 43.4427 41.7896 43.1729C43.2229 43.0563 44.2198 42.0615 44.3396 40.7385C44.3653 40.4594 44.3903 40.1611 44.4146 39.8438C37.9475 40.1093 31.4757 40.244 25.0031 40.2479C18.5306 40.244 12.0577 40.1093 5.59065 39.8438Z" fill="#311C1F"/>
</svg>
