<svg width="200" height="203" viewBox="0 0 200 203" fill="none" xmlns="http://www.w3.org/2000/svg">
<path d="M17.3596 47.3133C12.153 51.3379 7.73743 56.3588 5.08863 62.3437C-0.844993 75.7518 2.90337 91.1865 2.89656 105.848C2.88776 124.346 -3.23225 143.338 2.34563 160.976C6.72124 174.812 17.795 185.605 29.9919 193.475C39.5633 199.65 50.8785 204.52 62.1009 202.561C71.5244 200.915 79.4634 194.721 88.4212 191.366C106.279 184.677 125.593 189.615 144.063 188.751C163.565 187.838 183.7 178.892 193.942 161.591C201.084 149.528 202.292 133.71 195.516 121.438C190.481 112.319 181.581 105.619 177.44 96.0613C169.453 77.6259 181.735 56.6539 180.171 36.6251C178.764 18.5992 164.029 1.9142 146.025 0.169137C135.529 -0.848012 125.121 2.85648 115.749 7.68985C106.377 12.5232 97.6121 18.5393 87.9324 22.7225C67.0351 31.7529 42.7026 31.8973 23.0869 43.4483C21.1085 44.6129 19.1854 45.9017 17.3596 47.3133Z" fill="#642B34"/>
</svg>
