<svg width="100" height="103" viewBox="0 0 100 103" fill="none" xmlns="http://www.w3.org/2000/svg">
<path d="M6.48814 20.4238C8.60786 15.6112 12.6471 15.8396 16.9903 16.955C17.7427 13.2623 19.2174 10.352 22.7964 9.04464C26.3326 7.75188 29.574 8.65162 32.7591 10.5257C33.3559 9.27298 33.8444 8.16489 34.4003 7.0932C36.3863 3.26223 39.4767 1.64924 43.6779 2.5599C45.1709 2.88377 46.0897 2.47258 47.2214 1.6529C51.4645 -1.42025 57.055 -0.0774627 59.3594 4.59685C59.948 5.79136 60.7495 6.45365 61.8339 7.08229C64.403 8.57247 65.2418 11.0543 64.2511 13.8081C64.0973 14.2357 63.8626 14.6351 63.5879 15.2091C64.4012 16.1507 65.1618 17.0841 65.9769 17.9675C75.8896 28.7044 85.7486 39.4913 95.7732 50.1227C98.2195 52.7173 99.5095 55.1455 99.2457 58.9792C98.7135 66.7112 98.9755 74.4978 98.9318 82.2616C98.9236 83.7281 98.6907 85.191 99.7042 86.5684C100.096 87.1015 100.096 88.3751 99.7178 88.9355C98.7262 90.4057 98.9182 91.9577 98.89 93.528C98.8618 95.1182 98.9591 96.7276 98.7499 98.2951C98.3559 101.244 96.954 102.366 93.9718 102.182C92.579 102.097 91.1871 101.809 89.8234 101.488C86.4527 100.697 83.1094 99.788 79.736 99.0074C58.1275 94.0074 36.5155 89.0211 14.8952 84.0729C14.1492 83.9019 13.274 84.062 12.5089 84.2594C10.5474 84.7643 9.14006 84.5032 8.19301 82.681C7.40334 81.1608 7.02307 79.3604 6.77471 77.6391C5.90863 71.6229 5.28361 65.5713 4.3684 59.5642C3.46683 53.6471 2.20502 47.7838 1.33621 41.8631C0.894068 38.85 0.450991 35.7241 1.97938 32.8683C-1.76062 26.4391 -0.169439 22.035 6.48814 20.4238ZM61.9585 16.6875C61.8384 16.7503 61.7174 16.8121 61.5974 16.8749C61.7857 17.4271 61.9622 17.983 62.1641 18.5297C62.8765 20.4575 63.7598 22.3389 64.2793 24.3167C65.2264 27.9229 64.2029 31.0871 61.2335 33.326C56.2935 37.0523 50.8131 37.7619 45.0371 35.5112C42.4334 34.4968 40.8159 32.4399 39.9561 29.8325C39.5495 28.598 39.373 27.2879 39.0209 25.6877C38.1139 25.5248 37.0549 25.3338 36.0251 25.1482C34.0345 30.795 29.9225 33.0339 22.8519 29.9453C22.1022 31.3345 21.3535 32.7219 20.5047 34.2939C21.1588 34.5277 21.8175 34.8334 22.5107 34.9999C36.3444 38.3323 50.1654 41.7166 64.0237 44.9435C73.7689 47.2124 83.5652 49.2621 93.8554 51.5228C83.012 39.6815 72.4853 28.184 61.9585 16.6875ZM41.3635 25.0481C41.4636 25.9943 41.4709 27.1342 41.7192 28.2195C42.639 32.2306 45.8559 34.5832 50.7895 34.6333C53.818 34.6642 56.7283 33.9255 59.2711 32.1314C61.9731 30.2255 63.022 27.7182 62.1632 24.565C60.6512 19.0092 57.8301 14.233 53.2886 10.5821C51.0879 8.81266 49.4358 8.84086 47.3233 10.7777C43.2021 14.5587 41.6628 19.4513 41.3635 25.0481ZM44.5122 10.3247C43.4523 10.0845 42.8282 9.78518 42.2578 9.86433C41.8111 9.9262 41.1952 10.3974 41.0888 10.8014C40.9923 11.1662 41.3763 11.8758 41.7465 12.085C42.1159 12.2934 42.8191 12.2215 43.2112 11.9922C43.6406 11.7393 43.8826 11.1662 44.5122 10.3247ZM14.0582 81.4692C15.431 81.874 16.8211 82.3544 18.244 82.6919C29.07 85.2592 39.8952 87.8284 50.7349 90.3375C64.3976 93.5007 78.0684 96.6303 91.7475 99.7261C96.087 100.709 96.6856 100.22 96.9149 95.8569C96.9931 94.3722 96.9276 92.8802 96.9276 91.6029C91.2062 90.625 85.7268 89.9781 80.3901 88.7236C59.182 83.74 38.0174 78.5662 16.8375 73.4616C15.7703 73.2041 14.7059 72.9357 13.2066 72.5654C13.506 75.6914 13.7698 78.447 14.0582 81.4692ZM14.7223 70.685C27.992 73.941 41.2671 77.177 54.5531 80.3666C64.565 82.7702 74.5777 85.1719 84.6232 87.429C87.8974 88.165 91.2726 88.457 94.6068 88.911C95.2473 88.9983 95.9669 89.0365 96.5546 88.8291C97.0668 88.6481 97.4444 88.0867 97.882 87.6937C97.3998 87.3599 96.9558 86.8204 96.43 86.7239C89.8106 85.5076 83.1358 84.5596 76.5601 83.1477C57.0659 78.9619 37.6099 74.6015 18.1393 70.3038C16.378 69.9153 14.6259 69.4905 12.7263 69.0502C12.9219 70.6832 14.0072 70.5094 14.7223 70.685ZM14.0364 49.5505C25.1454 53.0021 36.5728 55.1064 47.9065 57.6228C60.7949 60.4848 73.6261 63.6035 86.4909 66.5693C89.3166 67.2206 92.1796 67.7156 95.0317 68.245C95.5539 68.3424 96.1098 68.2587 96.9131 68.2587C96.9131 66.4492 96.9131 64.737 96.9131 63.0258C93.3286 62.3389 89.7169 61.8367 86.2044 60.9415C70.4165 56.9195 54.6605 52.7738 38.8863 48.6972C29.7305 46.3309 20.5629 44.0101 11.3981 41.6784C10.3191 41.4037 9.22467 41.1899 7.47157 40.7996C7.78999 43.4015 8.04654 45.493 8.31947 47.7246C10.3209 48.3651 12.1741 48.9719 14.0364 49.5505ZM9.32384 50.3383C10.0253 53.668 10.4328 56.441 11.2198 59.1011C11.994 61.7194 15.1035 62.9676 17.6417 61.8386C18.7334 61.3527 19.7632 60.6431 20.6857 59.8735C24.8133 56.4282 29.4712 56.6275 33.1221 60.5986C34.1874 61.7576 34.8633 63.2723 35.9114 64.4523C36.9385 65.6086 38.0666 66.8349 39.4121 67.5145C41.6729 68.6571 43.8835 68.2805 45.875 66.481C50.2145 62.56 55.1108 62.7146 59.222 66.9696C60.6367 68.4333 61.7211 70.2292 62.8783 71.9268C64.071 73.6772 65.5166 75.0909 67.528 75.8305C70.2555 76.8331 72.0777 76.2145 73.9955 74.0092C75.1372 72.6965 76.369 71.2672 77.8719 70.504C80.9615 68.9337 84.7933 70.0718 87.3989 73.1995C88.9473 75.0582 90.1836 77.1824 91.5155 79.2157C92.6873 81.0061 94.1383 82.3207 96.5974 82.6091C96.5974 78.5644 96.5974 74.6897 96.5974 70.6622C81.9504 68.3242 67.7109 64.0101 53.1912 60.9215C38.6525 57.8274 24.0054 55.1837 9.32384 50.3383ZM93.0621 84.5769C93.2076 84.3486 93.3532 84.1202 93.4988 83.891C90.8523 82.4654 89.6032 79.9163 88.0321 77.6128C87.0896 76.2308 86.1161 74.7952 84.8725 73.709C81.8476 71.0662 78.5906 71.5047 76.1416 74.6661C72.71 79.0975 67.7455 79.6861 63.5688 75.9106C62.0049 74.4969 60.8404 72.61 59.6268 70.8478C58.1521 68.7063 56.419 66.9887 53.8672 66.1744C51.6119 65.4548 49.5331 65.5922 47.9756 67.4817C44.1938 72.0696 36.822 70.6859 33.9609 65.5658C33.193 64.1921 32.2715 62.8365 31.1606 61.733C28.3713 58.9619 24.6541 58.9728 22.1477 61.4282C19.372 64.1484 16.0842 65.4976 11.7993 63.3924C11.963 64.6797 12.0822 65.6249 12.2332 66.8167C39.2274 72.7483 66.1443 78.6626 93.0621 84.5769ZM3.08292 38.8263C4.09729 45.1991 4.97067 51.6038 6.26434 57.9202C7.60258 64.4532 8.44409 71.0252 8.90078 77.6619C9.0236 79.4459 9.20375 81.1735 10.9159 82.3317C12.1978 81.3519 11.7847 80.1628 11.6592 79.1402C11.0751 74.4031 10.5638 69.6488 9.73141 64.9535C8.68974 59.0738 7.34056 53.2495 6.16788 47.3926C5.85584 45.8351 5.60839 44.253 5.49831 42.671C5.24813 39.0692 6.27797 38.1713 9.72866 39.0337C14.0864 40.1227 18.4095 41.3491 22.76 42.4672C44.6032 48.0794 66.4491 53.6826 88.3004 59.2639C90.2018 59.7497 92.1423 60.0955 94.0764 60.433C94.9598 60.5876 95.8741 60.5649 97.0368 60.6395C97.1305 58.6089 97.2097 56.8768 97.3034 54.8353C91.4655 53.4097 85.7731 51.9686 80.0544 50.6322C60.7376 46.1189 41.4108 41.6457 22.0913 37.1442C20.9996 36.8895 19.947 36.4655 18.8526 36.2253C18.2449 36.0916 17.5307 36.0015 16.9648 36.1908C12.7782 37.5863 8.84349 36.7958 5.0016 34.9671C4.59312 34.7725 4.16825 34.6133 3.70154 34.4158C2.67079 35.8624 2.85093 37.368 3.08292 38.8263ZM2.93919 30.1946C5.62205 34.4049 13.2585 36.1571 17.5453 33.547C20.975 31.4582 21.4326 28.6043 18.8662 25.4065C18.7043 25.2046 18.6506 24.9162 18.5114 24.5841C19.6495 23.2095 20.4174 24.2084 21.217 24.9553C22.3661 26.0297 23.4332 27.2179 24.6978 28.1349C25.4929 28.7108 26.5591 29.0647 27.5462 29.1938C30.8714 29.626 33.123 27.8692 33.7252 24.5432C34.1619 22.1278 34.3566 22.0314 36.5746 22.9484C37.3069 23.2513 38.083 23.4479 38.8708 23.7026C39.7524 20.5321 40.5484 17.6718 41.3062 14.9498C40.4774 13.7708 39.514 12.6709 38.9054 11.4009C38.6652 10.8996 39.0582 9.92073 39.4321 9.3303C40.6021 7.48532 42.6908 7.36888 45.8204 8.90727C46.4045 8.57976 47.034 8.19493 47.6918 7.86378C49.6978 6.85395 51.7138 6.78299 53.4796 8.27498C55.3301 9.83794 57.0531 11.5547 58.7962 13.2413C59.504 13.9264 59.9925 15.2128 61.2444 14.4149C62.3124 13.7344 63.0466 12.5608 62.5298 11.2881C62.1396 10.3265 61.4072 9.27661 60.5348 8.7908C59.1647 8.02843 58.2021 7.19967 57.5308 5.70403C55.9005 2.07138 51.4536 0.995144 48.3677 3.547C46.7529 4.88252 45.3919 5.31102 43.3177 4.69602C40.3883 3.82721 38.0156 5.0581 36.5182 7.77735C35.8441 9.00279 35.3546 10.3283 34.7551 11.5965C34.4121 12.3207 34.0136 13.0194 33.5342 13.9309C32.7691 13.3696 32.2423 13.0257 31.7638 12.6245C26.8002 8.46149 20.7085 10.4284 19.2856 16.6602C19.2229 16.934 19.1974 17.2161 19.131 17.4881C18.6333 19.5086 18.1657 19.7724 16.2125 19.2075C15.3182 18.9491 14.4203 18.6316 13.5032 18.5352C10.5511 18.225 9.16463 19.2639 8.425 22.1223C8.16299 23.1358 7.77633 24.1174 7.44609 25.1136C7.2332 25.1227 7.01941 25.1327 6.80653 25.1418C6.36985 24.4459 5.93228 23.749 5.50015 23.0603C2.15498 24.4104 1.11513 27.3325 2.93919 30.1946Z" fill="#E4677C"/>
<path d="M73.1549 37.9713C74.9235 37.8785 76.41 39.2386 76.4737 41.0053C76.5401 42.8694 75.1282 44.4551 73.296 44.5733C71.4728 44.6907 69.8061 43.2087 69.737 41.4092C69.6769 39.8463 71.4528 38.0604 73.1549 37.9713ZM72.2015 41.9715C72.3525 42.2671 73.4461 42.4445 73.7909 42.2107C74.7607 41.5548 74.6233 40.7288 73.5843 39.9027C72.8347 40.4631 71.4619 40.5213 72.2015 41.9715Z" fill="#E4677C"/>
<path d="M59.5569 42.1265C57.8147 42.2111 56.309 40.8574 56.2008 39.1088C56.088 37.2902 57.5263 35.9174 59.5923 35.8683C61.3727 35.8264 62.792 37.0118 62.8565 38.5957C62.9239 40.2587 61.2554 42.0437 59.5569 42.1265ZM59.8416 37.928C59.3158 38.1527 58.7909 38.5211 58.4633 38.9778C58.3724 39.1052 58.9582 39.7193 59.4441 40.407C59.9817 39.6938 60.4248 39.2726 60.6186 38.7577C60.6813 38.5866 59.9735 37.8715 59.8416 37.928Z" fill="#E4677C"/>
<path d="M68.8054 28.7738C70.4811 28.7465 71.9622 30.1284 71.9449 31.7041C71.9258 33.4136 70.4402 34.8137 68.628 34.8282C66.9258 34.8428 65.4402 33.5109 65.4111 31.9452C65.3838 30.5051 67.2078 28.8002 68.8054 28.7738ZM69.6378 32.1736C69.7934 31.9798 69.6178 31.1874 69.4013 31.0873C68.4451 30.6443 67.9666 31.2538 67.5672 32.0326C68.3087 32.935 69.0255 32.9378 69.6378 32.1736Z" fill="#E4677C"/>
<path d="M35.8485 36.7528C34.0809 36.7355 32.8482 35.5019 32.8655 33.7661C32.8819 32.0985 34.1582 30.9349 35.9978 30.9086C37.7518 30.884 39.2228 32.1567 39.2238 33.7015C39.2238 35.2745 37.5707 36.7692 35.8485 36.7528ZM36.4372 32.0712C35.5747 33.1957 35.2763 33.585 34.9779 33.9735C35.3145 34.2273 35.7585 34.7577 35.9641 34.6767C36.389 34.5103 36.8557 34.0699 36.9839 33.646C37.0876 33.3048 36.7192 32.82 36.4372 32.0712Z" fill="#E4677C"/>
<path d="M27.5271 15.11C29.4894 15.0746 31.0306 16.4547 31.0788 18.2905C31.1288 20.2092 29.5359 21.8004 27.5244 21.8413C25.5593 21.8813 24.1892 20.5094 24.1947 18.5052C24.1992 16.5811 25.6094 15.1446 27.5271 15.11ZM27.2788 19.647C28.0775 19.949 29.2302 19.1157 29.0482 18.3988C28.9127 17.8657 28.3614 17.4381 27.6918 16.5702C27.0932 17.419 26.5528 17.9103 26.4118 18.497C26.3381 18.81 26.8776 19.496 27.2788 19.647Z" fill="#E4677C"/>
<path d="M12.155 26.2995C14.2329 26.2195 15.7349 27.4767 15.7403 29.299C15.7458 31.0466 14.151 32.655 12.3752 32.6923C10.6475 32.7287 9.16557 31.3059 9.12009 29.5673C9.07187 27.7023 10.3091 26.3705 12.155 26.2995ZM12.1523 30.4753C12.6854 30.3479 13.3841 29.9886 13.5506 29.5455C13.677 29.2071 13.0911 28.6021 12.6026 27.7187C11.9849 28.5038 11.449 28.9032 11.3717 29.379C11.3162 29.7147 11.9694 30.5189 12.1523 30.4753Z" fill="#E4677C"/>
<path d="M50.3983 20.8592C51.571 20.6873 51.5946 21.7571 51.6037 22.5904C51.6128 23.4383 51.5373 24.4746 50.4092 24.3599C49.9862 24.3172 49.6578 23.3437 49.181 22.6387C49.6614 21.899 49.9634 20.9238 50.3983 20.8592Z" fill="#E4677C"/>
<path d="M45.5202 27.8156C45.4074 28.0203 44.7587 28.1831 44.5795 28.0548C43.5406 27.3125 43.7298 26.339 44.2584 25.3729C44.3403 25.2228 44.5386 25.1363 44.877 24.8652C46.2398 25.734 46.097 26.7694 45.5202 27.8156Z" fill="#E4677C"/>
<path d="M57.0896 29.0332C56.0743 27.8897 56.6793 26.7024 56.8539 25.1904C58.9336 26.364 58.9355 27.6841 57.0896 29.0332Z" fill="#E4677C"/>
<path d="M55.0226 16.9453C56.5365 19.1915 56.5265 19.3753 54.8807 20.6216C54.2548 19.4226 53.336 18.3181 55.0226 16.9453Z" fill="#E4677C"/>
<path d="M49.9807 13.4956C50.058 12.9443 50.4902 12.443 50.764 11.9199C51.1188 12.363 51.6619 12.7606 51.7793 13.26C51.9148 13.8332 51.6738 14.4954 51.5791 15.2569C49.9916 15.2005 49.8642 14.329 49.9807 13.4956Z" fill="#E4677C"/>
<path d="M51.4991 28.1102C52.5871 28.8071 52.0413 29.6877 51.6365 30.511C51.5682 30.6484 51.3471 30.7103 50.9141 30.9887C49.8897 30.1235 49.8097 29.2374 50.5411 28.3067C50.7022 28.102 51.2935 27.9783 51.4991 28.1102Z" fill="#E4677C"/>
<path d="M47.2834 18.4616C47.7847 19.4241 47.126 20.4276 45.4093 20.9271C45.5394 20.0164 45.5849 19.2404 45.7932 18.5108C45.8605 18.2751 46.3454 18.0777 46.6657 18.0277C46.8494 17.9986 47.1751 18.2542 47.2834 18.4616Z" fill="#E4677C"/>
</svg>
