<svg width="99" height="127" viewBox="0 0 99 127" fill="none" xmlns="http://www.w3.org/2000/svg">
<path d="M96.1037 62.8973C94.6106 61.7562 93.6128 60.3908 92.6726 58.8546C91.4882 56.9169 89.8348 55.4153 87.8728 54.2586C87.3012 53.9218 86.732 53.5792 86.4889 53.4344C86.8805 50.5983 87.5369 48.0642 87.5149 45.5376C87.4699 40.3432 83.9559 37.4058 78.7954 37.8532C78.6332 37.8674 78.4642 37.7892 78.2073 37.7359C74.6914 29.6982 68.4297 25.9787 59.4927 26.4542C59.5778 25.5711 59.6748 24.7421 59.7341 23.9104C60.2598 16.5715 55.8053 11.0061 48.5041 10.0443C46.5548 9.78771 44.5556 9.90216 42.5783 9.86055C41.9991 9.84776 41.4192 9.88479 40.861 9.89818C38.7744 3.64484 34.1596 0.735112 28.0502 0.10935C22.1233 -0.497844 16.8314 1.45079 12.1782 5.10164C11.4977 5.63523 11.0553 6.47152 10.5391 7.12271C10.907 7.58539 11.0384 7.8187 11.2301 7.98116C14.3191 10.5998 15.0195 13.0516 13.5575 16.8438C12.9107 18.5226 12.0757 20.1425 11.2015 21.7206C9.05246 25.5977 8.44942 29.4792 11.0554 33.5063C8.92192 35.8214 6.95792 37.8685 6.50034 40.8826C6.03 43.9777 7.41999 46.5018 8.98794 48.9705C3.98921 52.3182 0.592317 56.5029 0.0641281 62.4362C-0.473151 68.4738 2.41691 72.9465 6.83667 76.2241C6.13865 78.5505 5.38658 80.5655 4.96245 82.6467C4.70612 83.9104 4.34606 84.7488 3.16507 85.4776C0.626588 87.0435 0.358636 90.0029 2.18219 92.3536C5.86958 97.1052 9.46686 101.925 13.1342 106.693C16.1179 110.571 18.9533 114.588 22.211 118.226C25.9776 122.435 30.8283 125.205 36.4689 125.959C40.0176 126.434 43.7005 126.352 47.2843 126.052C56.7495 125.26 65.6566 122.234 74.3608 118.621C78.6612 116.836 82.791 114.691 86.4876 111.792C89.3572 109.541 91.4433 106.773 92.4485 103.259C95.079 94.0742 97.27 84.7886 98.6058 75.3275C98.9033 73.2217 98.8543 71.0331 98.679 68.9064C98.4943 66.6639 97.9628 64.3183 96.1037 62.8973ZM3.79525 57.9265C5.03492 55.4156 6.78686 53.3299 9.10676 51.7105C10.3608 50.8349 11.5136 50.6253 12.9154 51.4497C14.0918 52.1425 15.4075 52.6121 16.6909 53.1043C17.529 53.4257 18.5078 53.5338 18.899 52.5114C19.327 51.3926 18.3842 51.0903 17.5476 50.7507C16.193 50.2025 14.8233 49.6647 13.5454 48.9648C8.0784 45.9716 7.28076 40.984 11.5004 36.4299C11.847 36.0558 12.2413 35.7262 12.7825 35.2159C16.8527 37.7511 21.0369 36.4237 25.2128 35.3799C25.8723 35.2159 26.592 35.0001 27.0886 34.5807C27.4601 34.2661 27.7699 33.5022 27.6365 33.09C27.5283 32.7576 26.6736 32.4076 26.2281 32.4888C24.707 32.7678 23.2301 33.2832 21.717 33.6161C20.5437 33.8732 19.3427 34.1224 18.1499 34.1494C14.1646 34.2373 11.3215 31.0259 11.9099 27.0897C12.0722 26.0039 12.4901 24.9337 12.9268 23.9144C13.5016 22.5717 14.2224 21.293 14.8616 19.9763C17.0681 15.4323 17.7676 10.9815 13.9276 6.91348C19.0335 2.10286 28.0347 1.06162 33.7272 4.53907C38.588 7.5089 39.7144 12.0368 36.7273 16.8791C35.6897 18.5621 34.4868 20.143 33.3764 21.7832C33.0407 22.2791 32.6299 22.785 32.5096 23.3416C32.4236 23.74 32.6369 24.4172 32.9484 24.6265C33.2564 24.8328 33.8867 24.6932 34.3177 24.5433C34.599 24.4451 34.7876 24.0624 35.0034 23.7958C38.1561 19.9146 39.6104 17.2328 41.1672 12.3462C44.7978 11.8544 48.4669 11.8588 51.9188 13.5161C56.0245 15.4881 58.0992 20.5293 56.9667 25.413C56.35 28.0714 55.1366 30.504 53.222 32.3877C50.1624 35.3964 46.872 38.173 43.6519 41.0161C42.9167 41.6649 41.6098 41.9476 42.1946 43.3296C42.535 44.133 43.7096 44.0855 45.1501 43.0149C49.8649 39.513 54.3835 35.8078 57.551 30.7288C58.0061 29.9973 58.8193 29.2156 59.6124 29.0069C65.8935 27.3481 74.1118 32.5095 75.5289 38.8366C70.8034 42.8466 66.3676 46.7943 61.7386 50.5023C52.9135 57.5706 43.0532 62.4526 31.7496 64.154C29.1957 64.538 26.6685 65.098 24.1304 65.5885C23.7091 65.6696 23.1965 65.6911 22.906 65.9458C22.507 66.2958 21.9648 66.926 22.0608 67.2795C22.1705 67.6841 22.8775 68.0215 23.3902 68.1909C23.757 68.3115 24.2351 68.1235 24.6576 68.0421C29.1411 67.1691 33.6608 66.4506 38.0958 65.378C47.033 63.2162 54.9721 58.9306 62.1847 53.3251C65.6484 50.6331 68.8318 47.5861 72.2493 44.8314C74.1117 43.3295 76.0813 41.8702 78.2116 40.8107C81.2732 39.2866 83.8138 40.6204 84.7396 43.9472C85.5426 46.8297 84.9002 49.5827 83.6908 52.2115C82.3413 55.1464 80.3058 57.5792 77.9093 59.737C72.1034 64.9655 65.2638 68.3661 57.9455 70.8374C46.5225 74.6949 34.7794 76.8907 22.7046 77.082C20.3019 77.12 17.8829 76.9448 15.4931 76.6739C12.8954 76.3798 10.4836 75.4264 8.27828 74.0142C2.84584 70.5307 0.939059 63.7098 3.79525 57.9265ZM28.3147 120.137C25.1928 118.077 22.6522 115.404 20.439 112.423C16.2438 106.777 12.0997 101.093 7.90324 95.4467C6.72727 93.8643 5.43808 92.3644 4.20859 90.8205C3.61002 90.0684 2.89225 89.1764 3.63582 88.3065C4.18038 87.6706 5.19732 87.0252 5.95834 87.0733C7.36632 87.1631 8.95713 87.4444 10.08 88.2139C12.0395 89.557 13.9392 91.1339 15.4489 92.9565C21.3309 100.052 25.7672 108.118 30.5609 115.941C31.9341 118.183 33.2412 120.465 34.7412 123.004C32.0842 122.517 30.1743 121.364 28.3147 120.137ZM41.2118 123.701C39.0639 124.504 38.055 123.583 37.0812 121.978C32.4084 114.274 27.6802 106.6 22.8511 98.9933C21.2006 96.3926 19.1971 94.0138 17.3542 91.5335C16.1659 89.934 16.3819 88.5768 18.2259 87.8829C19.2708 87.4896 20.6587 87.371 21.6937 87.7173C24.0998 88.5208 26.2114 90.0218 27.413 92.2858C32.4849 101.842 37.4031 111.478 40.7059 121.832C40.8882 122.398 41.019 122.981 41.2118 123.701ZM53.143 122.783C50.044 123.177 47.0955 123.551 44.1213 123.929C42.8538 120.395 41.9139 117.068 40.4927 113.96C37.2822 106.934 33.9455 99.9606 30.4199 93.0875C29.238 90.7825 29.3262 88.7863 30.6322 86.8519C32.0548 84.7425 34.3225 84.3576 36.6437 84.9828C40.323 85.9733 43.1976 87.9724 44.3324 91.8553C47.177 101.59 50.0311 111.322 52.8688 121.06C53.0065 121.53 53.0281 122.035 53.143 122.783ZM64.0635 118.871C64.1008 119.034 64.0669 119.212 64.066 119.771C61.3669 120.494 58.7427 121.197 55.872 121.967C54.9978 119.342 54.0746 116.778 53.2896 114.172C50.9589 106.437 48.7096 98.6759 46.367 90.9436C45.7509 88.9108 46.1232 87.0128 46.9318 85.199C47.247 84.4935 48.0126 83.82 48.7376 83.4909C52.1016 81.9659 55.9305 83.8771 56.775 87.4765C59.2269 97.9373 61.64 108.406 64.0635 118.871ZM49.141 80.6937C46.271 81.3036 44.742 83.1921 43.882 85.7668C42.0633 84.7778 40.4254 83.673 38.6315 82.9624C35.777 81.8336 32.8067 81.7501 30.2824 83.75C28.9889 84.7737 28.0999 86.3062 27.1116 87.5064C25.054 86.6743 22.8754 85.4191 20.5378 84.9472C17.9967 84.4356 15.8916 85.8371 14.3383 88.0541C13.1329 87.2622 12.0457 86.4209 10.8459 85.798C9.72041 85.2139 8.47536 84.8603 7.16577 84.361C7.18772 81.913 7.79579 79.6654 9.2734 77.5565C17.3635 80.6766 25.6293 79.7064 33.8381 78.819C42.0826 77.9271 50.1635 76.0953 58.0305 73.4464C64.4241 71.2929 70.5412 68.5505 76.0088 64.5083C79.424 61.9833 82.4882 59.1248 84.7688 55.5866C87.9966 56.5836 89.9911 58.4621 91.236 61.6881C86.7987 62.8287 85.8615 66.7591 84.569 70.3736C76.2469 66.7786 73.366 68.1245 70.8247 76.865C68.1718 75.1401 65.4149 73.971 62.193 75.0494C58.7965 76.1861 57.6295 78.9969 56.6792 82.2639C54.3157 80.8712 51.8878 80.1104 49.141 80.6937ZM75.6424 115.404C72.7145 116.579 69.9423 117.692 66.9612 118.888C66.6307 118.045 66.3177 117.458 66.1691 116.833C63.7798 106.729 61.3601 96.6314 59.0754 86.5037C58.4896 83.9079 59.2769 81.405 60.6835 79.1548C61.6495 77.6093 63.2358 77.1498 64.9279 77.147C67.7036 77.1426 70.6101 79.6231 71.0019 82.3765C72.3297 91.7157 73.6012 101.064 74.8996 110.407C75.1119 111.933 75.3517 113.452 75.6424 115.404ZM78.0268 114.192C77.5972 111.26 77.2288 108.737 76.8593 106.214C75.6394 97.8971 74.292 89.5953 73.2696 81.2534C72.9196 78.3985 73.3874 75.4275 74.9759 72.846C76.0091 71.1655 77.8075 70.5016 79.9499 71.1976C81.3822 71.664 82.677 72.5464 84.0268 73.2385C82.9496 85.8947 82.1351 98.2972 83.502 110.993C81.8576 111.956 80.1198 112.97 78.0268 114.192ZM96.3093 72.5461C95.9162 76.0341 95.4667 79.5309 94.7485 82.9635C93.4315 89.2596 91.9408 95.5221 90.4383 101.779C89.7908 104.475 88.5618 106.887 85.7259 109.078C85.5621 105.622 85.2576 102.808 85.3297 100.004C85.5415 91.7797 85.7555 83.5495 86.2911 75.3425C86.4658 72.6689 87.5567 70.0362 88.3749 67.4295C88.792 66.1036 89.6868 65.0214 91.052 64.4418C92.9582 63.6319 94.4392 64.1374 95.3198 66.0039C96.2973 68.0747 96.5612 70.3177 96.3093 72.5461Z" fill="#E4677C"/>
</svg>
