<svg width="100" height="98" viewBox="0 0 100 98" fill="none" xmlns="http://www.w3.org/2000/svg">
<path d="M79.2988 8.74482C78.8465 8.84782 78.3884 8.92337 77.8949 9.01835C75.6205 4.4944 72.0196 3.69098 67.6324 5.2703C64.9226 2.18605 61.7707 1.39525 58.0741 3.15424C55.5922 0.684551 52.863 -0.303076 49.6359 1.67222C47.4765 0.0677206 45.1884 -0.510233 42.6427 0.506025C39.0304 1.94801 37.0567 4.65232 36.6864 8.47816C36.577 9.60658 36.2146 10.3963 35.4055 11.155C31.9722 14.3732 28.5878 17.6451 25.1863 20.8976C20.055 25.8038 14.8428 30.6276 9.82438 35.6459C6.89695 38.5722 4.25552 41.7893 1.53206 44.9159C0.328727 46.2972 -0.340159 47.9097 0.176045 49.79C1.25403 53.7211 2.12918 57.7289 3.50686 61.5536C6.24855 69.1641 8.45012 76.912 10.3771 84.7639C11.1508 87.9157 12.4829 90.9462 13.7386 93.9572C14.591 96.0011 16.3538 97.1707 18.4973 97.5919C19.8134 97.8505 21.2128 98.1252 22.5107 97.9387C25.7298 97.4752 28.9866 97.0025 32.0941 96.0778C38.1222 94.2856 44.0329 92.0997 50.0359 90.2206C63.5677 85.985 77.1349 81.8616 90.6667 77.6272C92.7817 76.9657 94.8397 76.0605 96.835 75.0831C98.9431 74.0509 100.05 72.198 99.9983 69.8416C99.9584 68.014 99.8718 66.1383 99.4354 64.3758C96.0339 50.6392 92.5606 36.9197 89.0566 23.2093C88.6543 21.638 88.5256 20.2418 88.9654 18.5881C90.5163 12.7629 85.156 7.40468 79.2988 8.74482ZM67.0136 9.37885C67.9572 7.5798 69.4898 6.69286 71.5148 6.84736C73.4098 6.99156 74.8627 7.90711 75.5247 9.75308C75.715 10.2841 75.682 10.9936 75.5031 11.5407C75.0393 12.9666 74.4376 14.348 73.8269 15.9136C71.8897 17.0157 69.8374 16.2821 67.8125 15.5554C67.4022 15.4077 67.0045 15.006 66.7709 14.6181C65.6986 12.8362 66.126 11.0715 67.0136 9.37885ZM57.8325 6.89657C59.3333 3.90387 63.7808 3.64752 65.5437 6.62534C64.8246 9.00233 64.2104 11.0337 63.5005 13.3832C62.1 14.356 60.2722 13.73 58.5356 13.3718C58.0342 13.2688 57.5077 12.399 57.33 11.7821C56.8514 10.1204 57.0565 8.44384 57.8325 6.89657ZM49.8376 4.63057C51.8774 2.35429 53.9262 2.40006 56.0651 4.75302C55.672 6.27741 55.109 7.57178 55.0612 8.88445C55.0065 10.3837 54.1963 11.028 53.0647 11.535C49.1311 13.2974 48.3631 11.4045 48.4041 8.33968C48.4223 6.92516 48.8964 5.68231 49.8376 4.63057ZM41.0314 4.17853C42.5276 2.7766 44.2539 1.84275 46.4281 2.542C46.8794 2.68734 47.3409 2.79606 47.9164 2.95513C46.6606 5.30466 46.0122 7.29712 46.1478 9.51618C46.1752 9.97167 45.5644 10.8048 45.1348 10.8895C43.609 11.1905 42.0273 11.3953 40.4844 11.3061C39.9351 11.274 39.1044 10.3642 38.9814 9.74047C38.5495 7.53858 39.452 5.65829 41.0314 4.17853ZM38.0128 12.5878C40.9881 14.4258 43.9543 13.6968 47.1415 12.6325C49.4559 15.9628 52.2671 14.0092 55.1387 13.0445C57.3995 16.8795 60.989 15.9857 64.6058 15.6709C67.1766 18.5767 70.5746 19.0161 74.0696 18.2596C75.9099 20.1594 77.6443 21.9493 79.3627 23.7243C77.3651 24.8928 76.8249 24.8127 75.5225 23.0846C75.331 22.8305 75.1305 22.5708 75.004 22.2835C74.3374 20.766 73.1295 20.2143 71.5535 20.2372C68.9645 20.2738 66.4974 19.9454 64.3643 18.215C63.8788 17.8213 63.0173 17.7778 62.3279 17.7721C59.8962 17.7515 57.6479 17.3246 55.5364 15.9364C54.7227 15.402 53.402 15.3356 52.3799 15.4959C50.38 15.8083 48.5386 15.9605 46.5695 15.0701C45.5222 14.5963 44.0819 14.8481 42.8432 14.9854C40.62 15.2315 38.5723 14.982 36.3126 13.1715C37.1308 12.874 37.7564 12.4299 38.0128 12.5878ZM45.4732 20.1011C47.2349 19.261 48.2992 19.3229 49.3237 20.3254C50.2638 21.2455 50.682 22.9644 50.2353 24.0654C49.6541 25.4971 48.2434 26.186 46.1433 26.0727C45.9268 24.15 45.7114 22.2263 45.4732 20.1011ZM42.4637 17.4757C43.4791 17.2892 44.0864 17.153 44.7029 17.0775C44.9023 17.0523 45.1223 17.185 45.6692 17.3407C44.5627 17.9324 43.879 18.9875 42.4637 17.4757ZM43.6215 23.0583C44.1434 25.568 42.6164 27.7962 40.0092 28.3318C37.1388 28.9201 34.1213 27.018 33.6279 24.308C33.1778 21.8383 34.797 19.4922 37.2983 18.9887C40.2064 18.4039 43.0312 20.2212 43.6215 23.0583ZM3.83846 45.4972C5.80414 43.1912 7.7778 40.8726 9.94518 38.7645C18.0631 30.8725 26.2609 23.0629 34.5862 15.0713C35.3941 15.5657 35.9878 15.9296 36.9735 16.5327C33.2758 17.803 31.2725 20.1296 31.1939 23.7987C30.4771 24.0711 29.872 24.2657 29.2977 24.5277C27.0152 25.5703 25.8837 27.7207 26.4124 29.9603C26.981 32.3694 29.2271 34.07 31.7067 33.9075C33.3453 33.7999 34.8745 33.285 35.94 31.9769C36.7149 31.0258 37.4931 30.6001 38.7831 30.7306C40.4867 30.9022 42.1128 30.346 43.4449 29.2256C44.1787 28.6088 44.9 28.4268 45.8436 28.5195C46.6971 28.6042 47.6133 28.5356 48.4394 28.3067C52.2636 27.2481 53.7792 23.3947 51.7805 19.934C51.5036 19.4533 51.1674 19.007 50.7845 18.4348C52.4152 17.6039 53.7393 17.5604 55.4441 18.4954C57.1203 19.4156 59.1942 19.6936 61.1326 20.0129C62.3074 20.2063 63.3717 20.3826 64.493 20.9319C66.0234 21.6827 67.8067 22.3075 69.4739 22.2881C71.9614 22.2595 73.5727 23.0445 74.4354 25.7008C72.685 26.3565 70.8869 27.089 69.0511 27.7115C58.49 31.2902 47.8981 34.7773 37.3621 38.4257C29.6122 41.1094 21.9387 44.0163 14.215 46.7778C11.5918 47.7151 8.94468 48.6124 6.25654 49.3288C5.04637 49.6515 3.46242 50.4824 2.52231 48.9912C1.57651 47.4931 3.01117 46.4677 3.83846 45.4972ZM34.5008 29.6651C33.4228 31.4424 32.1818 32.0295 30.5466 31.5156C29.3535 31.1403 28.4488 30.0187 28.4602 28.9269C28.4738 27.5582 29.3946 26.693 31.5163 26.107C32.5852 27.3808 33.539 28.5184 34.5008 29.6651ZM3.3496 52.2482C6.48215 51.4094 9.53381 50.7811 12.4578 49.774C24.0605 45.7799 35.6152 41.6473 47.2008 37.6052C56.9061 34.2188 66.6273 30.8782 76.3486 27.5399C77.4585 27.1588 78.6186 26.9207 79.8686 26.5854C81.2919 28.7976 81.9437 31.2536 82.4063 33.7645C82.6547 35.1092 82.0793 36.1186 80.8053 36.645C78.745 37.4976 76.6973 38.3926 74.5972 39.1364C69.7895 40.8382 64.9659 42.4953 60.1287 44.1079C49.5448 47.6339 38.9415 51.105 28.3565 54.6287C21.4772 56.9198 14.6172 59.2671 7.74589 61.5834C7.29805 61.7345 6.83313 61.8317 6.391 61.9507C5.24464 60.3966 3.89316 56.0649 3.3496 52.2482ZM91.6934 70.1644C92.0376 71.5365 92.3042 72.927 92.6267 74.4022C91.739 74.757 91.1043 75.0648 90.4388 75.2685C80.9272 78.1926 71.3917 81.0388 61.9029 84.0361C52.8699 86.8903 43.9052 89.9597 34.8711 92.8093C31.4662 93.8828 27.9531 94.6084 24.4878 95.4827C24.1812 95.5605 23.8599 95.588 23.5431 95.6166C18.2876 96.1018 16.3698 94.9471 14.3848 90.0215C13.9107 88.8438 13.578 87.609 13.1051 86.1704C15.1277 85.4815 16.8381 84.8646 18.5691 84.3153C27.144 81.5961 35.6973 78.806 44.3086 76.2093C54.2943 73.1971 64.3221 70.3292 74.351 67.4658C77.4859 66.5708 80.6503 65.6828 83.8603 65.1655C89.7448 64.219 90.4889 65.3715 91.6934 70.1644ZM96.4338 61.0226C97.0788 63.6514 97.4343 66.3683 97.7147 69.0657C97.9528 71.3614 97.2292 72.2644 94.9206 73.2063C94.5719 71.8925 94.2539 70.5798 93.8699 69.2877C93.5531 68.2177 93.2272 67.1408 92.7828 66.1199C91.7983 63.8551 90.0616 62.5951 87.5627 62.6145C86.0562 62.626 84.5349 62.6901 83.0501 62.9247C81.4024 63.1845 79.7695 63.5953 78.165 64.0622C61.7137 68.8471 45.2567 73.6114 28.8328 78.4878C24.1026 79.8921 19.4739 81.643 14.7938 83.2224C14.1363 83.4444 13.4515 83.5886 12.6755 83.7957C12.4498 82.9454 12.2766 82.2931 12.0647 81.4954C13.4788 80.9644 14.7847 80.4093 16.1305 79.9802C27.5166 76.3466 38.9119 72.7439 50.3003 69.1172C57.5887 66.7963 64.8611 64.4273 72.1552 62.1236C75.8017 60.9711 79.4914 59.9549 83.1379 58.8013C84.5748 58.3469 86.0004 57.793 87.3359 57.0995C89.1306 56.1668 90.13 54.6412 89.5682 52.5526C88.97 50.3256 88.3797 48.0596 87.4305 45.9744C86.3046 43.5002 84.5851 42.7517 81.9357 43.3274C79.6829 43.8172 77.454 44.4649 75.2615 45.1859C60.1264 50.1688 45.0003 55.1825 29.8777 60.2032C23.224 62.4119 16.584 64.6608 9.93492 66.8844C9.41302 67.0584 8.87173 67.174 8.01823 67.4028C7.58977 66.2195 7.24906 65.2788 6.84795 64.1721C9.76741 63.1707 12.4567 62.2128 15.1688 61.3225C27.6602 57.2243 40.1744 53.1935 52.6488 49.0438C61.2659 46.177 69.8351 43.1626 78.4191 40.1939C79.4709 39.83 80.4988 39.3813 81.5072 38.9087C84.3241 37.5892 85.2654 35.7798 84.5714 32.6956C84.1874 30.9881 83.555 29.3355 83.0126 27.6658C82.7938 26.9928 82.5146 26.3382 82.2217 25.5669C83.6552 24.625 85.0249 23.7243 86.5747 22.7058C86.8197 23.2894 87.0863 23.7507 87.2117 24.2462C90.3055 36.4997 93.4244 48.7474 96.4338 61.0226ZM11.4129 79.012C10.5457 75.7492 9.75031 72.7554 8.89111 69.5201C11.0596 68.7567 13.1985 67.9613 15.3647 67.2483C27.087 63.3859 38.8116 59.5291 50.5441 55.6987C59.9304 52.6339 69.328 49.6023 78.7268 46.5753C79.9381 46.185 81.1859 45.9092 82.42 45.5956C83.6564 45.2821 84.7537 45.6288 85.2335 46.7961C86.0482 48.7771 86.7137 50.8257 87.3222 52.8823C87.5991 53.8196 87.1148 54.6275 86.2237 55.0475C85.1469 55.5568 84.062 56.0809 82.9305 56.4346C68.1099 61.0684 53.2664 65.6324 38.456 70.3028C30.1033 72.9373 21.8019 75.7366 13.4754 78.4535C12.8851 78.6481 12.2732 78.7808 11.4129 79.012ZM83.0684 22.1645C81.187 21.5854 79.521 21.0452 78.1924 19.6032C76.5811 17.8557 75.9555 16.0314 76.7873 13.9737C77.5326 12.1301 78.8544 10.9524 80.8896 10.7968C82.9157 10.6423 85.2927 12.1015 86.128 13.9314C87.7154 17.4151 86.9234 19.5975 83.0684 22.1645Z" fill="#E4677C"/>
</svg>
