<svg width="133" height="159" viewBox="0 0 133 159" fill="none" xmlns="http://www.w3.org/2000/svg">
<path d="M110.403 108.441C110.931 105.938 111.324 103.405 111.868 100.905C112.928 96.0379 113.507 90.9744 115.296 86.3839C117.253 81.3604 116.818 77.2134 113.375 73.3103C112.177 71.9516 111.887 70.6477 112.224 68.8954C113.469 62.4184 111.047 57.2892 106.062 53.2491C104.92 52.324 103.521 51.7176 102.359 50.8127C101.557 50.1888 100.62 49.4134 100.33 48.5146C99.3941 45.6165 98.05 43.0738 95.6504 41.118C95.1935 40.745 94.808 40.0551 94.7385 39.4701C94.2618 35.465 92.5822 32.0303 89.9373 29.2406C91.5933 23.1514 89.8507 19.5929 86.8974 14.9255C85.3529 12.4835 84.3083 12.5897 82.1519 14.7269C80.6333 16.233 79.0986 17.7943 77.3228 18.951C74.5459 20.7594 72.0914 22.7097 71.4042 26.1592C68.3493 26.5125 65.7186 27.2695 63.6582 29.549C63.0938 30.174 61.7414 30.256 60.7407 30.2846C57.157 30.3865 54.1457 31.7703 51.8354 34.4109C50.3569 36.1012 49.2476 38.1126 47.9386 40.0298C39.338 41.012 35.9268 43.8629 35.6732 50.8061C30.7517 51.8203 27.1071 54.3188 24.9363 58.7648C24.6598 59.3316 24.1287 59.8775 23.5784 60.192C20.0133 62.2268 18.2638 65.6314 17.432 69.3171C16.1917 74.8159 15.3416 80.4205 14.6766 86.0219C14.451 87.9205 14.7143 90.3661 15.7699 91.8263C17.9427 94.8308 17.3904 97.7921 17.038 101.003C16.3037 107.688 15.6792 114.392 15.2654 121.104C14.935 126.458 17.2569 130.771 21.3883 134.111C22.6423 135.125 23.9488 136.088 25.3052 136.957C35.1935 143.289 46.0284 147.206 57.5081 149.439C63.4599 150.596 69.4178 151.488 75.5398 151.13C83.7981 150.647 89.5411 146.84 92.5109 139.058C94.4299 134.03 96.2913 128.979 98.1633 123.934C98.6215 122.7 98.7424 121.343 100.418 120.908C106.819 119.248 109.173 114.269 110.403 108.441ZM78.8659 21.4943C80.6874 20.152 82.4847 18.7789 84.65 17.1494C86.5454 20.4156 88.4463 23.4639 86.8003 27.6806C82.8479 27.3992 78.9309 27.1219 74.8735 26.8327C74.7485 23.5125 77.1382 22.7696 78.8659 21.4943ZM73.0785 29.396C76.4079 29.7069 79.7312 30.1015 83.0624 30.3804C87.972 30.7909 90.4385 33.316 90.9895 38.3789C87.8165 38.8442 84.6295 39.1649 81.509 39.8082C78.2252 40.4849 75.4012 39.8854 72.969 37.5862C70.742 35.4816 68.5442 33.3442 66.3102 31.1998C68.2409 29.0102 70.6596 29.1706 73.0785 29.396ZM67.7641 36.766C68.7156 37.7201 69.6206 38.7213 70.609 39.6337C73.9049 42.6737 77.7128 43.8484 82.1591 42.8125C83.9899 42.3859 85.853 41.9503 87.7193 41.8516C92.025 41.6234 94.9458 43.7527 96.6916 48.5531C91.3263 47.6086 86.7218 48.9923 82.1284 50.6378C79.8581 51.4506 77.5074 52.1688 75.1331 52.5406C70.4859 53.2693 66.2365 52.1348 62.8795 48.7262C59.5577 45.3528 56.1712 42.1354 51.5356 40.7022C54.5218 32.6772 61.9795 30.9701 67.7641 36.766ZM45.1 43.3579C49.1444 42.9066 52.8636 43.9574 56.0552 46.5169C57.4133 47.607 58.6333 48.8836 59.8402 50.1486C64.8821 55.4298 71.0415 56.854 77.9535 55.2215C80.956 54.5127 83.8503 53.3481 86.7863 52.3668C93.5833 50.0966 99.5411 51.8637 104.834 56.2895C107.976 58.9184 109.595 62.3492 109.369 66.5222C109.003 66.6071 108.668 66.7843 108.566 66.6947C102.748 61.6308 95.8715 60.5076 88.5168 61.4308C85.5883 61.7977 82.7038 62.5313 79.8043 63.1187C77.6957 63.5454 75.6031 64.0591 73.4869 64.4431C68.2068 65.4006 63.3389 64.6476 59.2255 60.8765C58.6328 60.3329 57.9274 59.9163 57.3024 59.4074C51.8392 54.9603 46.2679 50.7348 38.504 50.5254C39.3749 45.7786 41.2442 43.7879 45.1 43.3579ZM106.013 69.1185C96.363 68.4267 87.4427 71.178 78.3914 69.4789C76.8203 69.1839 75.2926 68.6662 73.7441 68.2513C81.6405 65.9992 89.3762 62.9156 97.7191 64.8016C100.564 65.4433 103.439 66.1282 106.013 69.1185ZM34.3365 54.2779C38.9984 52.8771 43.4436 53.7769 47.5242 56.2291C49.9362 57.6788 52.243 59.3537 54.4117 61.1501C65.7989 70.5797 78.7127 74.6049 93.4749 72.713C97.187 72.2378 100.996 72.1895 104.738 72.3807C108.138 72.5547 110.887 74.3141 112.52 77.4299C113.707 79.6964 113.923 82.0668 112.639 84.3917C111.57 86.3273 109.99 87.4701 107.677 87.0236C105.434 86.5907 103.171 86.1793 100.995 85.5015C95.8544 83.9005 90.8035 82.0052 85.6389 80.4886C78.4825 78.3867 71.3456 77.6477 64.5085 82.2063C54.5888 79.6066 45.0574 76.7207 36.2215 71.9728C33.5084 70.5142 31.0011 68.6772 28.3985 67.0139C26.6658 65.9061 26.3783 64.2995 26.7843 62.4303C27.7026 58.2244 30.2756 55.4984 34.3365 54.2779ZM103.633 89.4408C92.0132 89.5599 81.0658 86.8013 69.5051 83.495C71.9655 81.8565 74.1661 81.8094 76.1397 82.0687C79.9729 82.5728 83.8054 83.322 87.5289 84.3617C92.9469 85.873 98.2695 87.7301 103.633 89.4408ZM18.9967 75.1272C19.8613 71.774 20.3565 68.303 22.6172 64.9473C27.404 71.2562 33.7152 74.3387 40.0866 77.2164C51.5447 82.392 63.6608 85.6276 75.8597 88.4126C84.3626 90.3536 93.019 91.6611 101.645 92.9969C104.367 93.4189 107.217 93.0173 110.395 92.9895C109.68 96.2026 109.185 99.3636 108.197 102.361C107.863 103.374 106.374 104.441 105.245 104.674C102.371 105.267 99.3976 105.717 96.4736 105.667C81.2886 105.411 66.551 102.443 52.098 97.9227C44.1038 95.423 36.4083 92.208 29.4015 87.5911C26.2785 85.5336 23.4305 83.0418 20.5706 80.6145C18.9125 79.2083 18.4286 77.3282 18.9967 75.1272ZM18.2878 120.796C18.3896 113.272 18.9411 105.813 20.3321 98.4327C20.8714 98.4728 21.1834 98.4006 21.3591 98.5236C23.5528 100.054 26.5893 101.176 27.6626 103.288C28.7342 105.401 27.8743 108.515 27.7947 111.188C27.6211 116.963 27.4201 122.739 27.1967 128.513C27.1302 130.217 26.9553 131.916 26.8022 133.979C21.3287 130.825 18.205 126.904 18.2878 120.796ZM31.6003 136.955C30.8006 136.45 30.2364 135.027 30.1846 133.992C30.042 131.182 30.2061 128.355 30.291 125.535C30.4918 118.845 30.7183 112.154 30.9549 104.825C35.1622 106.693 38.8937 108.35 43.0308 110.187C41.7817 120.092 40.5296 130.023 39.1718 140.789C36.2908 139.371 33.8229 138.358 31.6003 136.955ZM52.7448 144.842C49.3382 143.929 45.9177 143.013 42.5894 142.121C42.5544 134.652 44.9463 115.861 46.4056 111.896C51.0231 113.134 55.6394 114.371 60.5553 115.688C57.9151 125.546 55.3609 135.079 52.7448 144.842ZM56.2664 146.089C57.9388 136.02 60.8097 126.585 63.5822 116.511C67.0558 117.442 69.9909 118.228 73.4355 119.151C69.7795 128.305 66.1285 137.446 62.3035 147.024C60.4916 146.743 58.591 146.449 56.2664 146.089ZM78.3016 147.502C74.4785 148.215 70.4114 148.69 65.9083 147.046C68.7904 137.569 72.8581 128.693 76.5817 119.367C80.0568 119.908 83.3055 120.414 86.8873 120.971C84.0194 129.834 81.2593 138.36 78.3016 147.502ZM82.4342 146.054C83.7831 137.294 87.4187 129.707 89.9419 121.261C92.0319 121.41 93.7228 121.531 95.4222 121.65C94.552 130.434 87.9382 143.21 82.4342 146.054ZM97.8009 118.132C94.0835 118.41 90.2721 118.123 86.5591 117.651C68.0284 115.294 50.0426 110.923 33.3695 102.209C29.461 100.166 25.7861 97.6153 22.2121 95.0115C18.273 92.142 16.8162 88.1641 18.1998 82.7377C30.5583 93.9219 45.0772 99.7536 60.5016 103.521C75.668 107.224 90.9512 110.325 106.728 107.983C106.61 113.93 103.545 117.703 97.8009 118.132Z" fill="#E4677C"/>
<path d="M60.9389 73.7161C58.7007 70.7333 55.729 70.0074 52.4053 71.733C55.3132 73.4754 57.741 74.3956 60.9389 73.7161Z" fill="#E4677C"/>
<path d="M39.4988 65.9504C39.8672 66.2794 41.1462 66.2536 41.4064 65.9196C42.4261 64.6118 41.2156 61.6212 39.3827 60.5285C38.5407 62.518 38.4773 65.0399 39.4988 65.9504Z" fill="#E4677C"/>
<path d="M93.8813 57.0079C94.4709 57.2702 95.4411 56.678 96.2391 56.4705C95.6275 55.5777 95.0159 54.685 94.2426 53.5565C93.1186 53.888 91.7848 53.9262 91.6134 54.3938C90.9202 56.2782 92.811 56.5328 93.8813 57.0079Z" fill="#E4677C"/>
<path d="M73.1842 62.1751C74.2853 61.3321 75.3436 60.4315 76.3987 59.5274C76.4882 59.4511 76.4989 59.2847 76.6322 58.9289C76.4775 58.6367 76.3295 58.112 75.9879 57.7943C75.7691 57.5893 75.0437 57.5209 74.9277 57.6755C74.0249 58.8859 73.1995 60.1564 72.4184 61.4482C72.3753 61.518 73.135 62.212 73.1842 62.1751Z" fill="#E4677C"/>
<path d="M61.1125 37.6593C60.1706 38.7373 61.4244 42.1026 62.8237 42.2852C63.2412 42.3401 63.7126 41.9814 64.6892 41.6131C63.8677 40.007 63.2211 38.6483 62.4494 37.3672C62.3657 37.2296 61.3666 37.3683 61.1125 37.6593Z" fill="#E4677C"/>
<path d="M78.6938 36.197C80.1506 35.7812 81.5648 35.2105 83.4035 34.5272C82.6805 33.5192 82.1433 32.5813 82.0228 32.6317C80.6036 33.2309 79.248 33.9773 77.8743 34.6849C78.1543 35.2124 78.5739 36.2299 78.6938 36.197Z" fill="#E4677C"/>
<path d="M81.1898 25.4415C82.8604 25.6737 84.4741 23.9439 84.7147 20.7758C82.8794 21.9016 81.654 22.5664 80.5481 23.3918C80.2585 23.6082 80.22 24.3485 80.3053 24.8035C80.3542 25.0713 80.8554 25.3953 81.1898 25.4415Z" fill="#E4677C"/>
</svg>
