<svg width="100" height="109" viewBox="0 0 100 109" fill="none" xmlns="http://www.w3.org/2000/svg">
<path d="M82.7322 31.162C81.1665 31.0862 79.6078 30.8943 77.5754 30.7166C79.468 26.4102 82.7701 24.6881 85.7548 22.6509C87.3585 21.5565 89.1304 20.6777 90.6204 19.4531C92.2501 18.1123 92.9228 16.3997 91.6555 14.3009C87.9483 8.1539 78.0871 7.01925 73.0676 12.214C71.7553 13.5737 70.495 14.9808 69.1614 16.4186C62.344 7.25849 58.7316 3.93032 53.0442 1.46441C46.8379 -1.22654 45.3219 -0.527722 43.3273 6.25177C42.548 6.42706 42.1264 6.60705 41.7071 6.60469C22.6288 6.48625 2.98914 18.8916 0.352674 47.3574C-0.656432 58.2397 0.679566 68.9585 2.09847 79.6796C2.9465 86.1062 4.0504 92.4995 5.08556 98.8977C5.97149 104.377 9.51523 107.075 14.7574 107.868C16.2521 108.096 17.7705 108.288 19.2794 108.297C32.7389 108.375 46.0918 107.413 59.0893 103.638C70.3577 100.364 80.0887 94.4941 87.8559 85.6442C93.7684 78.9074 97.1487 71.1614 96.7389 61.9563C96.6584 60.1513 97.2198 58.1615 97.9991 56.4963C103.803 44.0814 96.457 31.8276 82.7322 31.162ZM90.1631 71.6755C88.7561 76.0293 85.833 80.1581 82.7583 83.6497C76.4952 90.7609 68.4129 95.3729 59.4115 98.3055C46.7124 102.444 33.5537 103.368 20.3453 103.32C11.5144 103.287 10.3917 102.131 9.19069 93.421C7.62728 82.0816 6.03544 70.7256 5.1353 59.3222C4.40097 50.0176 5.37456 40.7627 9.3636 32.055C15.3614 18.9556 25.9854 12.6807 39.8594 11.0888C42.9412 10.7359 45.0163 11.52 44.3696 15.7625C42.7944 16.2102 41.5365 16.5086 40.3166 16.9232C35.7685 18.4676 35.0437 21.4333 39.0375 24.2546C42.856 26.9503 47.2998 28.76 51.7318 31.1004C50.7275 32.3322 49.5265 33.8127 48.3184 35.286C44.4028 40.0521 41.674 45.4292 40.5701 51.4934C39.625 56.6763 42.0317 59.1825 47.1151 57.7209C51.1728 56.5531 54.9415 54.2791 58.7056 52.249C60.3613 51.3536 61.6855 49.8423 63.6516 48.196C64.3717 50.6311 64.8029 52.6801 65.5846 54.587C66.8116 57.5717 67.9699 60.6606 69.7157 63.3397C71.9898 66.8289 75.0266 67.0777 77.746 63.9295C79.5178 61.8782 80.6098 59.173 81.7018 56.6289C82.3343 55.1579 82.3628 53.4287 82.6873 51.6971C92.4941 57.4982 93.5031 61.3404 90.1631 71.6755ZM93.3681 53.5234C90.1157 50.4298 87.0434 47.5351 84.0066 44.6049C83.232 43.8564 82.7038 42.7478 81.8131 42.2503C80.4345 41.4781 78.8403 41.0896 77.3362 40.5377C76.969 42.0585 76.057 43.6905 76.3389 45.0786C77.2129 49.3851 77.8454 53.5969 75.9836 57.773C75.6567 58.505 75.0621 59.1185 74.0624 60.5374C69.1164 53.2628 68.6664 45.6614 67.8373 38.5289C64.2178 36.6149 63.1352 39.1093 61.9366 41.0778C59.1651 45.6353 55.4864 49.1838 50.647 51.4389C49.3394 52.0476 47.8802 52.3272 45.9165 52.9336C46.222 47.0187 48.8182 42.6577 52.0824 38.7066C54.1314 36.2265 56.7939 34.2627 58.9424 31.856C59.8284 30.8635 60.558 29.2764 60.4537 28.0328C60.3969 27.3364 58.561 26.5618 57.4074 26.2231C53.6979 25.1311 49.915 24.2783 46.2007 23.2005C45.4711 22.9897 44.9121 22.1795 43.2302 20.7748C49.6449 20.7748 54.8515 20.7748 60.4135 20.7748C59.1343 14.3507 53.7264 16.8829 49.6971 14.7913C49.2896 12.2756 48.7922 9.21276 48.0934 4.89919C55.818 7.50249 60.5556 11.6502 63.6043 17.8446C64.3647 19.3891 64.7223 21.1373 65.5301 22.6486C66.859 25.131 68.7398 25.4248 70.6988 23.3118C72.4517 21.4215 73.7924 19.1546 75.4387 17.1577C79.153 12.657 80.2545 12.5835 85.8567 16.4257C83.6774 17.9323 81.3702 19.1285 79.5818 20.8601C76.9808 23.3805 74.2994 26.0193 72.4873 29.0988C70.5519 32.3866 72.0277 34.9687 75.8012 35.7551C78.3121 36.2786 80.9415 36.2573 83.5235 36.4041C92.2548 36.9016 96.9379 44.4651 93.3681 53.5234Z" fill="#E4677C"/>
<path d="M24.9574 86.1513C24.5357 85.8907 23.3727 85.9784 23.2211 86.265C21.7998 88.9749 20.5112 91.7535 19.2794 94.5558C19.2462 94.6316 20.6486 95.5388 20.7409 95.4441C22.835 93.2695 24.8389 91.0073 26.9827 88.6243C25.9499 87.312 25.5756 86.5326 24.9574 86.1513Z" fill="#E4677C"/>
<path d="M74.7779 75.5807C73.0463 77.3099 71.4143 79.1529 69.9314 81.1C69.7822 81.2966 70.77 82.3626 71.0684 82.7913C73.7641 83.149 77.585 78.7431 76.7014 76.6799C76.4574 76.1066 74.9319 75.4268 74.7779 75.5807Z" fill="#E4677C"/>
<path d="M25.3056 40.9562C25.1564 41.5199 25.8244 42.4864 26.3763 42.9791C26.7151 43.2799 27.6531 43.2373 28.1363 42.9909C30.5833 41.7379 31.3389 37.2822 29.586 34.4443C26.381 35.4369 25.9926 38.3552 25.3056 40.9562Z" fill="#E4677C"/>
<path d="M20.08 57.9873C16.6168 62.0427 16.4983 62.8007 18.8956 67.588C22.9438 62.758 23.0812 61.2444 20.08 57.9873Z" fill="#E4677C"/>
<path d="M58.7079 64.9767C58.1678 64.6379 56.801 64.7137 56.448 65.1425C54.7449 67.2057 52.3666 69.1978 54.4583 72.8552C58.028 72.0333 58.7482 69.4158 59.6459 67.092C59.8544 66.5519 59.274 65.3296 58.7079 64.9767Z" fill="#E4677C"/>
<path d="M34.9254 76.6152C39.6251 73.73 39.952 72.8157 37.8343 67.5664C34.788 70.39 32.893 72.818 34.9254 76.6152Z" fill="#E4677C"/>
<path d="M44.8174 89.6228C46.6816 93.3773 48.7045 91.9158 50.4669 90.909C52.2814 89.8715 53.4705 88.4289 50.9454 85.79C48.9675 87.0265 46.864 88.3436 44.8174 89.6228Z" fill="#E4677C"/>
</svg>
