<svg width="266" height="121" viewBox="0 0 266 121" fill="none" xmlns="http://www.w3.org/2000/svg">
<path d="M8.9574 120.067C3.60926 112.867 0.400391 103.801 0.400391 94.2006C0.400391 70.2006 19.9211 50.7339 43.9877 50.7339C54.1491 50.7339 63.5084 54.2006 70.9958 60.0673C69.1239 55.0006 68.0543 49.6673 68.0543 44.0673C68.0543 20.0673 87.5749 0.600586 111.642 0.600586C132.767 0.600586 150.416 15.8006 154.427 35.5339C161.379 31.0006 169.669 28.3339 178.493 28.3339C199.084 28.3339 216.465 42.7339 220.744 61.9339C221.011 61.9339 221.546 61.9339 221.813 61.9339C245.88 61.9339 265.4 81.4006 265.4 105.401C265.4 110.467 264.598 115.534 262.994 120.067H8.9574Z" fill="url(#paint0_linear_128_5277)"/>
<path d="M8.9574 120.067C3.60926 112.867 0.400391 103.801 0.400391 94.2006C0.400391 70.2006 19.9211 50.7339 43.9877 50.7339C54.1491 50.7339 63.5084 54.2006 70.9958 60.0673C69.1239 55.0006 68.0543 49.6673 68.0543 44.0673C68.0543 20.0673 87.5749 0.600586 111.642 0.600586C132.767 0.600586 150.416 15.8006 154.427 35.5339C161.379 31.0006 169.669 28.3339 178.493 28.3339C199.084 28.3339 216.465 42.7339 220.744 61.9339C221.011 61.9339 221.546 61.9339 221.813 61.9339C245.88 61.9339 265.4 81.4006 265.4 105.401C265.4 110.467 264.598 115.534 262.994 120.067H8.9574Z" stroke="white" stroke-width="0.093166" stroke-miterlimit="10"/>
<path d="M210.314 62.2006C210.047 62.2006 209.779 62.2006 209.244 62.2006C205.501 43.0006 191.061 28.6006 173.947 28.6006C169.401 28.6006 164.855 29.6673 160.844 31.5339V120.067H244.275C245.612 115.534 246.414 110.734 246.414 105.401C246.414 81.6673 230.102 62.2006 210.314 62.2006Z" fill="url(#paint1_linear_128_5277)"/>
<defs>
<linearGradient id="paint0_linear_128_5277" x1="265.062" y1="60.543" x2="0.308138" y2="60.543" gradientUnits="userSpaceOnUse">
<stop stop-color="#D8F1FF"/>
<stop offset="1" stop-color="white"/>
</linearGradient>
<linearGradient id="paint1_linear_128_5277" x1="160.814" y1="74.4134" x2="246.447" y2="74.4134" gradientUnits="userSpaceOnUse">
<stop stop-color="#D8F1FF"/>
<stop offset="1" stop-color="white"/>
</linearGradient>
</defs>
</svg>
