<svg width="266" height="121" viewBox="0 0 266 121" fill="none" xmlns="http://www.w3.org/2000/svg">
<path d="M256.643 119.533C261.991 112.333 265.2 103.266 265.2 93.6664C265.2 69.6664 245.68 50.1997 221.613 50.1997C211.452 50.1997 202.092 53.6664 194.605 59.5331C196.477 54.4664 197.546 49.1331 197.546 43.5331C197.546 19.5331 178.026 0.0664062 153.959 0.0664062C132.834 0.0664062 115.185 15.2664 111.174 34.9997C104.221 30.4664 95.9317 27.7997 87.1073 27.7997C66.517 27.7997 49.1356 42.1997 44.8571 61.3997C44.5897 61.3997 44.055 61.3997 43.7876 61.3997C19.721 61.3997 0.200195 80.8664 0.200195 104.866C0.200195 109.933 1.00248 115 2.60692 119.533H256.643Z" fill="url(#paint0_linear_128_5269)"/>
<path d="M256.643 119.533C261.991 112.333 265.2 103.266 265.2 93.6664C265.2 69.6664 245.68 50.1997 221.613 50.1997C211.452 50.1997 202.092 53.6664 194.605 59.5331C196.477 54.4664 197.546 49.1331 197.546 43.5331C197.546 19.5331 178.026 0.0664062 153.959 0.0664062C132.834 0.0664062 115.185 15.2664 111.174 34.9997C104.221 30.4664 95.9317 27.7997 87.1073 27.7997C66.517 27.7997 49.1356 42.1997 44.8571 61.3997C44.5897 61.3997 44.055 61.3997 43.7876 61.3997C19.721 61.3997 0.200195 80.8664 0.200195 104.866C0.200195 109.933 1.00248 115 2.60692 119.533H256.643Z" stroke="white" stroke-width="0.093166" stroke-miterlimit="10"/>
<path d="M116.79 22.7334C114.918 26.7334 113.581 31.0001 112.779 35.5334C107.163 31.0001 100.211 28.3334 92.7234 28.3334C75.6094 28.3334 61.4368 42.7334 57.6931 61.9334C57.4257 61.9334 57.1584 61.9334 56.6236 61.9334C36.8355 61.9334 20.791 81.4 20.791 105.4C20.791 110.467 21.5932 115.533 22.9302 120.067H116.523V22.7334H116.79Z" fill="url(#paint1_linear_128_5269)"/>
<defs>
<linearGradient id="paint0_linear_128_5269" x1="0.611199" y1="60.0277" x2="265.365" y2="60.0277" gradientUnits="userSpaceOnUse">
<stop stop-color="#D8F1FF"/>
<stop offset="1" stop-color="white"/>
</linearGradient>
<linearGradient id="paint1_linear_128_5269" x1="21.2863" y1="71.1022" x2="116.863" y2="71.1022" gradientUnits="userSpaceOnUse">
<stop stop-color="#D8F1FF"/>
<stop offset="1" stop-color="white"/>
</linearGradient>
</defs>
</svg>
