<svg width="2000" height="1334" viewBox="0 0 2000 1334" fill="none" xmlns="http://www.w3.org/2000/svg">
<path d="M1015.8 1025.87C1015.8 1028.8 1013.4 1031.47 1010.2 1031.47H980.867C977.934 1031.47 975.267 1029.07 975.267 1025.87V942.401C975.267 939.467 977.667 936.801 980.867 936.801H1010.2C1013.13 936.801 1015.8 939.201 1015.8 942.401V1025.87Z" fill="url(#paint0_linear_144_2)"/>
<path d="M1015.8 1025.87C1015.8 1028.8 1013.4 1031.47 1010.2 1031.47H980.867C977.934 1031.47 975.267 1029.07 975.267 1025.87V942.401C975.267 939.467 977.667 936.801 980.867 936.801H1010.2C1013.13 936.801 1015.8 939.201 1015.8 942.401V1025.87Z" stroke="#FF0A06" stroke-width="0.5182" stroke-miterlimit="10"/>
<path d="M993.133 572.801C993.4 572.801 993.4 572.801 993.133 572.801C996.6 572.801 999.8 576.001 1001.4 581.067L1003.53 586.134C1010.73 597.601 1040.33 645.867 1048.87 657.601C1089.13 715.201 1205.67 870.134 1240.6 904.267C1262.47 925.601 1233.4 941.601 1187.8 925.601C1146.2 911.201 1136.87 939.467 1131.53 957.334C1131.53 957.334 1125.93 989.067 1082.2 960.267C1082.2 960.267 1043 927.734 1027 958.667C1014.73 982.667 995.267 980.534 993.133 980.267V572.801Z" fill="url(#paint1_linear_144_2)"/>
<path d="M993.133 572.801C993.4 572.801 993.4 572.801 993.133 572.801ZM993.133 572.801C996.6 572.801 999.8 576.001 1001.4 581.067L1003.53 586.134C1010.73 597.601 1040.33 645.867 1048.87 657.601C1089.13 715.201 1205.67 870.134 1240.6 904.267C1262.47 925.601 1233.4 941.601 1187.8 925.601C1146.2 911.201 1136.87 939.467 1131.53 957.334C1131.53 957.334 1125.93 989.067 1082.2 960.267C1082.2 960.267 1043 927.734 1027 958.667C1014.73 982.667 995.267 980.534 993.133 980.267V572.801Z" stroke="#FF0A06" stroke-width="0.5182" stroke-miterlimit="10"/>
<path d="M993.133 445.333C993.4 445.333 993.4 445.333 993.133 445.333C995.533 445.333 997.933 448.266 999 452.8L1000.6 457.333C1005.67 468 1027.27 512 1033.13 522.666C1062.2 575.2 1146.2 716.533 1171.53 747.733C1187.27 767.2 1166.2 781.866 1133.4 767.2C1103.53 754.133 1096.6 780 1092.87 796.266C1092.87 796.266 1088.87 825.333 1057.4 798.933C1057.4 798.933 1029.13 769.066 1017.67 797.333C1008.87 819.2 994.733 817.333 993.4 817.066V445.333H993.133Z" fill="url(#paint2_linear_144_2)"/>
<path d="M993.133 445.333C993.4 445.333 993.4 445.333 993.133 445.333ZM993.133 445.333C995.533 445.333 997.933 448.266 999 452.8L1000.6 457.333C1005.67 468 1027.27 512 1033.13 522.666C1062.2 575.2 1146.2 716.533 1171.53 747.733C1187.27 767.2 1166.2 781.866 1133.4 767.2C1103.53 754.133 1096.6 780 1092.87 796.266C1092.87 796.266 1088.87 825.333 1057.4 798.933C1057.4 798.933 1029.13 769.066 1017.67 797.333C1008.87 819.2 994.733 817.333 993.4 817.066V445.333H993.133Z" stroke="#FF0A06" stroke-width="0.5182" stroke-miterlimit="10"/>
<path d="M993.133 381.867C994.467 381.867 995.533 383.467 996.067 386.401L996.867 389.067C999.533 395.201 1010.73 421.334 1013.67 427.734C1028.6 458.934 1072.07 542.401 1084.87 561.067C1092.87 572.534 1082.2 581.334 1065.13 572.534C1049.67 564.801 1046.2 580.001 1044.33 589.601C1044.33 589.601 1042.2 606.667 1025.93 591.201C1025.93 591.201 1011.27 573.601 1005.4 590.401C1000.87 603.467 993.667 602.134 992.867 602.134V381.867H993.133Z" fill="url(#paint3_linear_144_2)"/>
<path d="M993.133 381.867C994.467 381.867 995.533 383.467 996.067 386.401L996.867 389.067C999.533 395.201 1010.73 421.334 1013.67 427.734C1028.6 458.934 1072.07 542.401 1084.87 561.067C1092.87 572.534 1082.2 581.334 1065.13 572.534C1049.67 564.801 1046.2 580.001 1044.33 589.601C1044.33 589.601 1042.2 606.667 1025.93 591.201C1025.93 591.201 1011.27 573.601 1005.4 590.401C1000.87 603.467 993.667 602.134 992.867 602.134V381.867H993.133Z" stroke="#FF0A06" stroke-width="0.5182" stroke-miterlimit="10"/>
<path d="M992.867 572.801C992.6 572.801 992.6 572.801 992.867 572.801C989.4 572.801 986.467 576.001 984.6 581.067L982.467 586.134C975.267 597.601 945.4 645.867 937.4 657.601C897.133 715.201 780.6 870.134 745.667 904.267C723.8 925.601 752.867 941.601 798.467 925.601C840.067 911.201 849.4 939.467 854.733 957.334C854.733 957.334 860.333 989.067 904.067 960.267C904.067 960.267 943.267 927.734 959.267 958.667C971.533 982.667 991 980.534 993.133 980.267V572.801H992.867Z" fill="url(#paint4_linear_144_2)"/>
<path d="M992.867 572.801C992.6 572.801 992.6 572.801 992.867 572.801ZM992.867 572.801C989.4 572.801 986.467 576.001 984.6 581.067L982.467 586.134C975.267 597.601 945.4 645.867 937.4 657.601C897.133 715.201 780.6 870.134 745.667 904.267C723.8 925.601 752.867 941.601 798.467 925.601C840.067 911.201 849.4 939.467 854.733 957.334C854.733 957.334 860.333 989.067 904.067 960.267C904.067 960.267 943.267 927.734 959.267 958.667C971.533 982.667 991 980.534 993.133 980.267V572.801H992.867Z" stroke="#FF0A06" stroke-width="0.5182" stroke-miterlimit="10"/>
<path d="M992.867 445.333C992.6 445.333 992.6 445.333 992.867 445.333C990.467 445.333 988.067 448.266 987 452.8L985.4 457.333C980.333 468 958.733 512 952.867 522.666C923.8 575.2 839.8 716.533 814.467 747.733C798.733 767.2 819.8 781.866 852.6 767.2C882.467 754.133 889.4 780 893.133 796.266C893.133 796.266 897.133 825.333 928.6 798.933C928.6 798.933 956.867 769.066 968.333 797.333C977.133 819.2 991.267 817.333 992.6 817.066V445.333H992.867Z" fill="url(#paint5_linear_144_2)"/>
<path d="M992.867 445.333C992.6 445.333 992.6 445.333 992.867 445.333ZM992.867 445.333C990.467 445.333 988.067 448.266 987 452.8L985.4 457.333C980.333 468 958.733 512 952.867 522.666C923.8 575.2 839.8 716.533 814.467 747.733C798.733 767.2 819.8 781.866 852.6 767.2C882.467 754.133 889.4 780 893.133 796.266C893.133 796.266 897.133 825.333 928.6 798.933C928.6 798.933 956.867 769.066 968.333 797.333C977.133 819.2 991.267 817.333 992.6 817.066V445.333H992.867Z" stroke="#FF0A06" stroke-width="0.5182" stroke-miterlimit="10"/>
<path d="M992.867 381.867C991.533 381.867 990.467 383.467 989.933 386.401L989.133 389.067C986.467 395.201 975.267 421.334 972.333 427.734C957.4 458.934 913.933 542.401 901.133 561.067C893.133 572.534 903.8 581.334 920.867 572.534C936.333 564.801 939.8 580.001 941.933 589.601C941.933 589.601 944.067 606.667 960.333 591.201C960.333 591.201 975 573.601 980.867 590.401C985.4 603.467 992.6 602.134 993.4 602.134V381.867H992.867Z" fill="url(#paint6_linear_144_2)"/>
<path d="M992.867 381.867C991.533 381.867 990.467 383.467 989.933 386.401L989.133 389.067C986.467 395.201 975.267 421.334 972.333 427.734C957.4 458.934 913.933 542.401 901.133 561.067C893.133 572.534 903.8 581.334 920.867 572.534C936.333 564.801 939.8 580.001 941.933 589.601C941.933 589.601 944.067 606.667 960.333 591.201C960.333 591.201 975 573.601 980.867 590.401C985.4 603.467 992.6 602.134 993.4 602.134V381.867H992.867Z" stroke="#FF0A06" stroke-width="0.5182" stroke-miterlimit="10"/>
<path d="M974.467 375.733L955 356.533L981.933 352.533L994.2 328L1006.2 352.533L1033.13 356.533L1013.67 375.733L1018.2 402.667L994.2 389.867L969.933 402.667L974.467 375.733Z" fill="url(#paint7_linear_144_2)"/>
<path d="M994.2 329.067L1005.93 352.8L1032.33 356.534L1013.4 375.2L1017.93 401.334L994.467 389.067L971 401.334L975.533 375.2L956.6 356.534L983 352.8L994.2 329.067ZM994.2 326.934L993.4 328.534L981.934 352L956.067 355.734L954.2 356L955.534 357.334L974.2 375.467L969.667 401.334L969.4 403.2L971 402.4L994.2 390.134L1017.4 402.4L1019 403.2L1018.73 401.334L1014.2 375.467L1032.87 357.334L1034.2 356L1032.33 355.734L1006.47 352L995 328.534L994.2 326.934Z" fill="#F5C35F"/>
<path d="M1032.07 356.8L1005.93 353.066L994.2 329.066V389.333L1017.67 401.6L1013.13 375.466L1032.07 356.8Z" fill="url(#paint8_linear_144_2)"/>
<defs>
<linearGradient id="paint0_linear_144_2" x1="975.295" y1="984.123" x2="1015.76" y2="984.123" gradientUnits="userSpaceOnUse">
<stop stop-color="#952422"/>
<stop offset="1" stop-color="#FF0A06"/>
</linearGradient>
<linearGradient id="paint1_linear_144_2" x1="993.245" y1="776.453" x2="1247.74" y2="776.453" gradientUnits="userSpaceOnUse">
<stop stop-color="#B70300"/>
<stop offset="1" stop-color="#FF0A06"/>
</linearGradient>
<linearGradient id="paint2_linear_144_2" x1="993.245" y1="631.212" x2="1176.83" y2="631.212" gradientUnits="userSpaceOnUse">
<stop stop-color="#B70300"/>
<stop offset="1" stop-color="#FF0A06"/>
</linearGradient>
<linearGradient id="paint3_linear_144_2" x1="993.245" y1="491.899" x2="1087.9" y2="491.899" gradientUnits="userSpaceOnUse">
<stop stop-color="#952422"/>
<stop offset="1" stop-color="#FF0A06"/>
</linearGradient>
<linearGradient id="paint4_linear_144_2" x1="738.27" y1="776.453" x2="992.756" y2="776.453" gradientUnits="userSpaceOnUse">
<stop stop-color="#B70300"/>
<stop offset="1" stop-color="#FF0A06"/>
</linearGradient>
<linearGradient id="paint5_linear_144_2" x1="809.177" y1="631.212" x2="992.756" y2="631.212" gradientUnits="userSpaceOnUse">
<stop stop-color="#B70300"/>
<stop offset="1" stop-color="#FF0A06"/>
</linearGradient>
<linearGradient id="paint6_linear_144_2" x1="898.102" y1="491.899" x2="992.756" y2="491.899" gradientUnits="userSpaceOnUse">
<stop stop-color="#B70300"/>
<stop offset="1" stop-color="#FF0A06"/>
</linearGradient>
<linearGradient id="paint7_linear_144_2" x1="954.938" y1="365.325" x2="1033.21" y2="365.325" gradientUnits="userSpaceOnUse">
<stop stop-color="#CB9A37"/>
<stop offset="1" stop-color="#F5C35F"/>
</linearGradient>
<linearGradient id="paint8_linear_144_2" x1="994.074" y1="365.43" x2="1032.19" y2="365.43" gradientUnits="userSpaceOnUse">
<stop stop-color="#CB9A37"/>
<stop offset="1" stop-color="#F5C35F"/>
</linearGradient>
</defs>
</svg>
