<svg width="2000" height="1334" viewBox="0 0 2000 1334" fill="none" xmlns="http://www.w3.org/2000/svg">
<path d="M1571.8 478.4H1525.4V600.534H1571.8V478.4Z" fill="url(#paint0_linear_142_223)" stroke="white" stroke-width="0.476" stroke-miterlimit="10"/>
<path d="M1524.6 477.601H1572.87V601.334H1524.6V477.601ZM1571 479.467H1526.2V599.734H1571V479.467Z" fill="url(#paint1_linear_142_223)" stroke="white" stroke-width="0.476" stroke-miterlimit="10"/>
<path d="M1392.07 601.334L1489.13 486.134L1585.93 601.334H1586.2V863.201H1391.8V601.334H1392.07Z" fill="url(#paint2_linear_142_223)" stroke="#F5C35F" stroke-width="0.3123" stroke-miterlimit="10"/>
<path d="M1342.47 616L1480.6 477.867C1483 475.467 1485.93 474.4 1488.87 474.4C1491.8 474.4 1495 475.467 1497.13 477.867L1635.27 616C1639.8 620.534 1639.8 628 1635.27 632.534C1632.87 634.934 1629.93 636 1627 636C1624.07 636 1620.87 634.934 1618.73 632.534L1488.87 502.667L1359 632.534C1356.6 634.934 1353.67 636 1350.73 636C1347.8 636 1344.6 634.934 1342.47 632.534C1337.93 628 1337.93 620.534 1342.47 616Z" fill="url(#paint3_linear_142_223)" stroke="white" stroke-width="0.476" stroke-miterlimit="10"/>
<path d="M1535.53 636.001H1504.6V666.934H1535.53V636.001Z" fill="url(#paint4_linear_142_223)" stroke="white" stroke-width="0.476" stroke-miterlimit="10"/>
<path d="M1572.07 636.001H1541.13V666.934H1572.07V636.001Z" fill="url(#paint5_linear_142_223)" stroke="white" stroke-width="0.476" stroke-miterlimit="10"/>
<path d="M1535.53 672.535H1504.6V703.468H1535.53V672.535Z" fill="url(#paint6_linear_142_223)" stroke="white" stroke-width="0.476" stroke-miterlimit="10"/>
<path d="M1572.07 672.535H1541.13V703.468H1572.07V672.535Z" fill="url(#paint7_linear_142_223)" stroke="white" stroke-width="0.476" stroke-miterlimit="10"/>
<path d="M1435.8 636.001H1404.87V666.934H1435.8V636.001Z" fill="url(#paint8_linear_142_223)" stroke="white" stroke-width="0.476" stroke-miterlimit="10"/>
<path d="M1472.33 636.001H1441.4V666.934H1472.33V636.001Z" fill="url(#paint9_linear_142_223)" stroke="white" stroke-width="0.476" stroke-miterlimit="10"/>
<path d="M1435.8 672.535H1404.87V703.468H1435.8V672.535Z" fill="url(#paint10_linear_142_223)" stroke="white" stroke-width="0.476" stroke-miterlimit="10"/>
<path d="M1472.33 672.535H1441.4V703.468H1472.33V672.535Z" fill="url(#paint11_linear_142_223)" stroke="white" stroke-width="0.476" stroke-miterlimit="10"/>
<path d="M1519.8 474.667C1519.8 480.8 1524.87 485.867 1531 485.867H1569.4C1575.53 485.867 1580.6 480.8 1580.6 474.667C1580.6 468.533 1575.53 463.467 1569.4 463.467H1531C1524.87 463.467 1519.8 468.533 1519.8 474.667Z" fill="url(#paint12_linear_142_223)" stroke="white" stroke-width="0.476" stroke-miterlimit="10"/>
<path d="M1519 474.667C1519 468 1524.33 462.667 1531 462.667H1569.4C1576.07 462.667 1581.4 468 1581.4 474.667C1581.4 481.334 1576.07 486.667 1569.4 486.667H1531C1524.6 486.667 1519 481.334 1519 474.667ZM1531 464.267C1525.13 464.267 1520.6 469.067 1520.6 474.667C1520.6 480.534 1525.4 485.067 1531 485.067H1569.4C1575.27 485.067 1579.8 480.267 1579.8 474.667C1579.8 468.8 1575 464.267 1569.4 464.267H1531Z" fill="url(#paint13_linear_142_223)" stroke="white" stroke-width="0.476" stroke-miterlimit="10"/>
<path d="M1505.13 558.933C1505.13 550.4 1498.2 543.467 1489.67 543.467C1481.13 543.467 1474.2 550.4 1474.2 558.933V613.333H1504.6V562.667C1504.87 561.333 1505.13 560.267 1505.13 558.933Z" fill="url(#paint14_linear_142_223)" stroke="white" stroke-width="0.476" stroke-miterlimit="10"/>
<path d="M1447 581.601C1447 577.067 1443.27 573.334 1438.73 573.334C1434.2 573.334 1430.47 577.067 1430.47 581.601V611.201H1447V583.734C1447 582.667 1447 582.134 1447 581.601Z" fill="url(#paint15_linear_142_223)" stroke="white" stroke-width="0.476" stroke-miterlimit="10"/>
<path d="M1546.2 581.601C1546.2 577.067 1542.47 573.334 1537.93 573.334C1533.4 573.334 1529.67 577.067 1529.67 581.601V611.201H1546.2V583.734C1546.2 582.667 1546.2 582.134 1546.2 581.601Z" fill="url(#paint16_linear_142_223)" stroke="white" stroke-width="0.476" stroke-miterlimit="10"/>
<path d="M1505.13 724.801C1505.13 716.267 1498.2 709.334 1489.67 709.334C1481.13 709.334 1474.2 716.267 1474.2 724.801V779.201H1504.6V728.534C1504.87 727.201 1505.13 726.134 1505.13 724.801Z" fill="url(#paint17_linear_142_223)" stroke="white" stroke-width="0.476" stroke-miterlimit="10"/>
<defs>
<linearGradient id="paint0_linear_142_223" x1="1571.94" y1="539.543" x2="1525.43" y2="539.543" gradientUnits="userSpaceOnUse">
<stop stop-color="#D8F1FF"/>
<stop offset="1" stop-color="white"/>
</linearGradient>
<linearGradient id="paint1_linear_142_223" x1="1524.61" y1="539.542" x2="1572.75" y2="539.542" gradientUnits="userSpaceOnUse">
<stop stop-color="#D4D4D4"/>
<stop offset="1" stop-color="white"/>
</linearGradient>
<linearGradient id="paint2_linear_142_223" x1="1586.2" y1="674.67" x2="1391.81" y2="674.67" gradientUnits="userSpaceOnUse">
<stop stop-color="#D7B165"/>
<stop offset="1" stop-color="#F5C35F"/>
</linearGradient>
<linearGradient id="paint3_linear_142_223" x1="1639" y1="555.067" x2="1339.01" y2="555.067" gradientUnits="userSpaceOnUse">
<stop stop-color="#D8F1FF"/>
<stop offset="1" stop-color="white"/>
</linearGradient>
<linearGradient id="paint4_linear_142_223" x1="1504.55" y1="651.433" x2="1535.53" y2="651.433" gradientUnits="userSpaceOnUse">
<stop stop-color="#D8F1FF"/>
<stop offset="1" stop-color="white"/>
</linearGradient>
<linearGradient id="paint5_linear_142_223" x1="1541.07" y1="651.433" x2="1572.04" y2="651.433" gradientUnits="userSpaceOnUse">
<stop stop-color="#D8F1FF"/>
<stop offset="1" stop-color="white"/>
</linearGradient>
<linearGradient id="paint6_linear_142_223" x1="1504.55" y1="687.952" x2="1535.53" y2="687.952" gradientUnits="userSpaceOnUse">
<stop stop-color="#D8F1FF"/>
<stop offset="1" stop-color="white"/>
</linearGradient>
<linearGradient id="paint7_linear_142_223" x1="1541.07" y1="687.952" x2="1572.04" y2="687.952" gradientUnits="userSpaceOnUse">
<stop stop-color="#D8F1FF"/>
<stop offset="1" stop-color="white"/>
</linearGradient>
<linearGradient id="paint8_linear_142_223" x1="1404.82" y1="651.433" x2="1435.8" y2="651.433" gradientUnits="userSpaceOnUse">
<stop stop-color="#D8F1FF"/>
<stop offset="1" stop-color="white"/>
</linearGradient>
<linearGradient id="paint9_linear_142_223" x1="1441.34" y1="651.433" x2="1472.32" y2="651.433" gradientUnits="userSpaceOnUse">
<stop stop-color="#D8F1FF"/>
<stop offset="1" stop-color="white"/>
</linearGradient>
<linearGradient id="paint10_linear_142_223" x1="1404.82" y1="687.952" x2="1435.8" y2="687.952" gradientUnits="userSpaceOnUse">
<stop stop-color="#D8F1FF"/>
<stop offset="1" stop-color="white"/>
</linearGradient>
<linearGradient id="paint11_linear_142_223" x1="1441.34" y1="687.952" x2="1472.32" y2="687.952" gradientUnits="userSpaceOnUse">
<stop stop-color="#D8F1FF"/>
<stop offset="1" stop-color="white"/>
</linearGradient>
<linearGradient id="paint12_linear_142_223" x1="1580.73" y1="474.719" x2="1519.9" y2="474.719" gradientUnits="userSpaceOnUse">
<stop stop-color="#D8F1FF"/>
<stop offset="1" stop-color="white"/>
</linearGradient>
<linearGradient id="paint13_linear_142_223" x1="1519.08" y1="474.718" x2="1581.55" y2="474.718" gradientUnits="userSpaceOnUse">
<stop stop-color="#D4D4D4"/>
<stop offset="1" stop-color="white"/>
</linearGradient>
<linearGradient id="paint14_linear_142_223" x1="1474.24" y1="578.437" x2="1505.14" y2="578.437" gradientUnits="userSpaceOnUse">
<stop stop-color="#D8F1FF"/>
<stop offset="1" stop-color="white"/>
</linearGradient>
<linearGradient id="paint15_linear_142_223" x1="1430.23" y1="592.021" x2="1447.02" y2="592.021" gradientUnits="userSpaceOnUse">
<stop stop-color="#D8F1FF"/>
<stop offset="1" stop-color="white"/>
</linearGradient>
<linearGradient id="paint16_linear_142_223" x1="1529.48" y1="592.021" x2="1546.27" y2="592.021" gradientUnits="userSpaceOnUse">
<stop stop-color="#D8F1FF"/>
<stop offset="1" stop-color="white"/>
</linearGradient>
<linearGradient id="paint17_linear_142_223" x1="1474.24" y1="744.334" x2="1505.14" y2="744.334" gradientUnits="userSpaceOnUse">
<stop stop-color="#D8F1FF"/>
<stop offset="1" stop-color="white"/>
</linearGradient>
</defs>
</svg>
