<svg width="2000" height="1334" viewBox="0 0 2000 1334" fill="none" xmlns="http://www.w3.org/2000/svg">
<path d="M1643.8 891.2C1643.8 892.8 1642.47 893.867 1641.13 893.867H1626.47C1624.87 893.867 1623.8 892.534 1623.8 891.2V849.867C1623.8 848.267 1625.13 847.2 1626.47 847.2H1641.13C1642.73 847.2 1643.8 848.534 1643.8 849.867V891.2Z" fill="url(#paint0_linear_142_342)"/>
<path d="M1643.8 891.2C1643.8 892.8 1642.47 893.867 1641.13 893.867H1626.47C1624.87 893.867 1623.8 892.534 1623.8 891.2V849.867C1623.8 848.267 1625.13 847.2 1626.47 847.2H1641.13C1642.73 847.2 1643.8 848.534 1643.8 849.867V891.2Z" stroke="white" stroke-width="0.2562" stroke-miterlimit="10"/>
<path d="M1632.6 667.2C1632.87 667.2 1632.87 667.2 1632.6 667.2C1634.2 667.2 1635.8 668.8 1636.6 671.2L1637.67 673.6C1641.13 679.2 1655.8 703.2 1660.07 709.067C1679.8 737.6 1737.67 814.134 1754.73 830.934C1765.4 841.6 1751.27 849.334 1728.6 841.6C1708.07 834.4 1703.27 848.534 1700.87 857.334C1700.87 857.334 1698.2 873.067 1676.6 858.667C1676.6 858.667 1657.13 842.4 1649.4 857.867C1643.27 869.867 1633.67 868.534 1632.6 868.534V667.2Z" fill="url(#paint1_linear_142_342)"/>
<path d="M1632.6 667.2C1632.87 667.2 1632.87 667.2 1632.6 667.2ZM1632.6 667.2C1634.2 667.2 1635.8 668.8 1636.6 671.2L1637.67 673.6C1641.13 679.2 1655.8 703.2 1660.07 709.067C1679.8 737.6 1737.67 814.134 1754.73 830.934C1765.4 841.6 1751.27 849.334 1728.6 841.6C1708.07 834.4 1703.27 848.534 1700.87 857.334C1700.87 857.334 1698.2 873.067 1676.6 858.667C1676.6 858.667 1657.13 842.4 1649.4 857.867C1643.27 869.867 1633.67 868.534 1632.6 868.534V667.2Z" stroke="white" stroke-width="0.2562" stroke-miterlimit="10"/>
<path d="M1632.6 604.001C1632.87 604.001 1632.87 604.001 1632.6 604.001C1633.93 604.001 1635 605.334 1635.53 607.734L1636.33 610.134C1639 615.468 1649.4 637.068 1652.33 642.401C1666.73 668.268 1708.33 738.134 1720.6 753.601C1728.33 763.201 1717.93 770.401 1701.67 763.201C1687 756.801 1683.53 769.601 1681.67 777.601C1681.67 777.601 1679.8 792.001 1664.07 778.934C1664.07 778.934 1649.93 764.268 1644.33 778.134C1640.07 789.068 1633.13 788.001 1632.33 787.734V604.001H1632.6Z" fill="url(#paint2_linear_142_342)"/>
<path d="M1632.6 604.001C1632.87 604.001 1632.87 604.001 1632.6 604.001ZM1632.6 604.001C1633.93 604.001 1635 605.334 1635.53 607.734L1636.33 610.134C1639 615.468 1649.4 637.068 1652.33 642.401C1666.73 668.268 1708.33 738.134 1720.6 753.601C1728.33 763.201 1717.93 770.401 1701.67 763.201C1687 756.801 1683.53 769.601 1681.67 777.601C1681.67 777.601 1679.8 792.001 1664.07 778.934C1664.07 778.934 1649.93 764.268 1644.33 778.134C1640.07 789.068 1633.13 788.001 1632.33 787.734V604.001H1632.6Z" stroke="white" stroke-width="0.2562" stroke-miterlimit="10"/>
<path d="M1632.6 572.8C1633.13 572.8 1633.93 573.6 1634.2 574.933L1634.47 576.266C1635.8 579.466 1641.13 592.266 1642.73 595.466C1650.2 610.933 1671.53 652.266 1677.93 661.333C1681.93 666.933 1676.6 671.2 1668.33 666.933C1660.6 663.2 1659 670.666 1657.93 675.466C1657.93 675.466 1656.87 684 1648.87 676.266C1648.87 676.266 1641.67 667.466 1638.73 675.733C1636.6 682.133 1632.87 681.6 1632.6 681.6V572.8Z" fill="url(#paint3_linear_142_342)"/>
<path d="M1632.6 572.8C1633.13 572.8 1633.93 573.6 1634.2 574.933L1634.47 576.266C1635.8 579.466 1641.13 592.266 1642.73 595.466C1650.2 610.933 1671.53 652.266 1677.93 661.333C1681.93 666.933 1676.6 671.2 1668.33 666.933C1660.6 663.2 1659 670.666 1657.93 675.466C1657.93 675.466 1656.87 684 1648.87 676.266C1648.87 676.266 1641.67 667.466 1638.73 675.733C1636.6 682.133 1632.87 681.6 1632.6 681.6V572.8Z" stroke="white" stroke-width="0.2562" stroke-miterlimit="10"/>
<path d="M1632.6 667.2C1632.33 667.2 1632.33 667.2 1632.6 667.2C1631 667.2 1629.4 668.8 1628.6 671.2L1627.53 673.6C1624.07 679.2 1609.4 703.2 1605.13 709.067C1585.4 737.6 1527.53 814.134 1510.47 830.934C1499.8 841.6 1513.93 849.334 1536.6 841.6C1557.13 834.4 1561.93 848.534 1564.33 857.334C1564.33 857.334 1567 873.067 1588.6 858.667C1588.6 858.667 1608.07 842.4 1615.8 857.867C1621.93 869.867 1631.53 868.534 1632.6 868.534V667.2Z" fill="url(#paint4_linear_142_342)"/>
<path d="M1632.6 667.2C1632.33 667.2 1632.33 667.2 1632.6 667.2ZM1632.6 667.2C1631 667.2 1629.4 668.8 1628.6 671.2L1627.53 673.6C1624.07 679.2 1609.4 703.2 1605.13 709.067C1585.4 737.6 1527.53 814.134 1510.47 830.934C1499.8 841.6 1513.93 849.334 1536.6 841.6C1557.13 834.4 1561.93 848.534 1564.33 857.334C1564.33 857.334 1567 873.067 1588.6 858.667C1588.6 858.667 1608.07 842.4 1615.8 857.867C1621.93 869.867 1631.53 868.534 1632.6 868.534V667.2Z" stroke="white" stroke-width="0.2562" stroke-miterlimit="10"/>
<path d="M1632.6 604.001C1632.33 604.001 1632.33 604.001 1632.6 604.001C1631.27 604.001 1630.2 605.334 1629.67 607.734L1628.87 610.134C1626.2 615.468 1615.8 637.068 1612.87 642.401C1598.47 668.268 1556.87 738.134 1544.6 753.601C1536.87 763.201 1547.27 770.401 1563.53 763.201C1578.2 756.801 1581.67 769.601 1583.53 777.601C1583.53 777.601 1585.4 792.001 1601.13 778.934C1601.13 778.934 1615 764.268 1620.87 778.134C1625.13 789.068 1632.07 788.001 1632.87 787.734V604.001H1632.6Z" fill="url(#paint5_linear_142_342)"/>
<path d="M1632.6 604.001C1632.33 604.001 1632.33 604.001 1632.6 604.001ZM1632.6 604.001C1631.27 604.001 1630.2 605.334 1629.67 607.734L1628.87 610.134C1626.2 615.468 1615.8 637.068 1612.87 642.401C1598.47 668.268 1556.87 738.134 1544.6 753.601C1536.87 763.201 1547.27 770.401 1563.53 763.201C1578.2 756.801 1581.67 769.601 1583.53 777.601C1583.53 777.601 1585.4 792.001 1601.13 778.934C1601.13 778.934 1615 764.268 1620.87 778.134C1625.13 789.068 1632.07 788.001 1632.87 787.734V604.001H1632.6Z" stroke="white" stroke-width="0.2562" stroke-miterlimit="10"/>
<path d="M1632.6 572.8C1632.07 572.8 1631.27 573.6 1631 574.933L1630.73 576.266C1629.4 579.466 1624.07 592.266 1622.47 595.466C1615 610.933 1593.67 652.266 1587.27 661.333C1583.27 666.933 1588.6 671.2 1596.87 666.933C1604.6 663.2 1606.2 670.666 1607.27 675.466C1607.27 675.466 1608.33 684 1616.33 676.266C1616.33 676.266 1623.53 667.466 1626.47 675.733C1628.6 682.133 1632.33 681.6 1632.6 681.6V572.8Z" fill="url(#paint6_linear_142_342)"/>
<path d="M1632.6 572.8C1632.07 572.8 1631.27 573.6 1631 574.933L1630.73 576.266C1629.4 579.466 1624.07 592.266 1622.47 595.466C1615 610.933 1593.67 652.266 1587.27 661.333C1583.27 666.933 1588.6 671.2 1596.87 666.933C1604.6 663.2 1606.2 670.666 1607.27 675.466C1607.27 675.466 1608.33 684 1616.33 676.266C1616.33 676.266 1623.53 667.466 1626.47 675.733C1628.6 682.133 1632.33 681.6 1632.6 681.6V572.8Z" stroke="white" stroke-width="0.2562" stroke-miterlimit="10"/>
<defs>
<linearGradient id="paint0_linear_142_342" x1="1623.84" y1="870.464" x2="1643.85" y2="870.464" gradientUnits="userSpaceOnUse">
<stop stop-color="#D8F1FF"/>
<stop offset="1" stop-color="white"/>
</linearGradient>
<linearGradient id="paint1_linear_142_342" x1="1632.72" y1="767.803" x2="1758.52" y2="767.803" gradientUnits="userSpaceOnUse">
<stop stop-color="#D8F1FF"/>
<stop offset="1" stop-color="white"/>
</linearGradient>
<linearGradient id="paint2_linear_142_342" x1="1632.72" y1="696.005" x2="1723.47" y2="696.005" gradientUnits="userSpaceOnUse">
<stop stop-color="#D8F1FF"/>
<stop offset="1" stop-color="white"/>
</linearGradient>
<linearGradient id="paint3_linear_142_342" x1="1632.72" y1="627.134" x2="1679.51" y2="627.134" gradientUnits="userSpaceOnUse">
<stop stop-color="#D8F1FF"/>
<stop offset="1" stop-color="white"/>
</linearGradient>
<linearGradient id="paint4_linear_142_342" x1="1506.67" y1="767.803" x2="1632.48" y2="767.803" gradientUnits="userSpaceOnUse">
<stop stop-color="#D8F1FF"/>
<stop offset="1" stop-color="white"/>
</linearGradient>
<linearGradient id="paint5_linear_142_342" x1="1541.72" y1="696.005" x2="1632.48" y2="696.005" gradientUnits="userSpaceOnUse">
<stop stop-color="#D8F1FF"/>
<stop offset="1" stop-color="white"/>
</linearGradient>
<linearGradient id="paint6_linear_142_342" x1="1585.68" y1="627.134" x2="1632.48" y2="627.134" gradientUnits="userSpaceOnUse">
<stop stop-color="#D8F1FF"/>
<stop offset="1" stop-color="white"/>
</linearGradient>
</defs>
</svg>
