<svg width="2000" height="1334" viewBox="0 0 2000 1334" fill="none" xmlns="http://www.w3.org/2000/svg">
<path d="M489.4 1023.47C489.4 1025.07 488.067 1026.13 486.733 1026.13H472.067C470.467 1026.13 469.4 1024.8 469.4 1023.47V982.132C469.4 980.532 470.733 979.466 472.067 979.466H486.733C488.333 979.466 489.4 980.799 489.4 982.132V1023.47Z" fill="url(#paint0_linear_142_311)"/>
<path d="M489.4 1023.47C489.4 1025.07 488.067 1026.13 486.733 1026.13H472.067C470.467 1026.13 469.4 1024.8 469.4 1023.47V982.132C469.4 980.532 470.733 979.466 472.067 979.466H486.733C488.333 979.466 489.4 980.799 489.4 982.132V1023.47Z" stroke="white" stroke-width="0.2562" stroke-miterlimit="10"/>
<path d="M478.2 799.466C479.8 799.466 481.4 801.066 482.2 803.466L483.266 805.866C486.733 811.466 501.4 835.466 505.666 841.333C525.4 869.866 583.266 946.399 600.333 963.199C611 973.866 596.866 981.599 574.2 973.866C553.666 966.666 548.866 980.799 546.466 989.599C546.466 989.599 543.8 1005.33 522.2 990.933C522.2 990.933 502.733 974.666 495 990.132C488.866 1002.13 479.266 1000.8 478.2 1000.8V799.466Z" fill="url(#paint1_linear_142_311)"/>
<path d="M478.2 799.466C479.8 799.466 481.4 801.066 482.2 803.466L483.266 805.866C486.733 811.466 501.4 835.466 505.666 841.333C525.4 869.866 583.266 946.399 600.333 963.199C611 973.866 596.866 981.599 574.2 973.866C553.666 966.666 548.866 980.799 546.466 989.599C546.466 989.599 543.8 1005.33 522.2 990.933C522.2 990.933 502.733 974.666 495 990.132C488.866 1002.13 479.266 1000.8 478.2 1000.8V799.466Z" stroke="white" stroke-width="0.2562" stroke-miterlimit="10"/>
<path d="M478.2 736.267C479.533 736.267 480.6 737.6 481.133 740L481.933 742.4C484.6 747.733 495 769.333 497.933 774.667C512.333 800.533 553.933 870.4 566.2 885.867C573.933 895.467 563.533 902.667 547.266 895.467C532.6 889.067 529.133 901.867 527.266 909.867C527.266 909.867 525.4 924.267 509.666 911.2C509.666 911.2 495.533 896.533 489.933 910.4C485.666 921.333 478.733 920.267 477.933 920V736.267H478.2Z" fill="url(#paint2_linear_142_311)"/>
<path d="M478.2 736.267C479.533 736.267 480.6 737.6 481.133 740L481.933 742.4C484.6 747.733 495 769.333 497.933 774.667C512.333 800.533 553.933 870.4 566.2 885.867C573.933 895.467 563.533 902.667 547.266 895.467C532.6 889.067 529.133 901.867 527.266 909.867C527.266 909.867 525.4 924.267 509.666 911.2C509.666 911.2 495.533 896.533 489.933 910.4C485.666 921.333 478.733 920.267 477.933 920V736.267H478.2Z" stroke="white" stroke-width="0.2562" stroke-miterlimit="10"/>
<path d="M478.2 705.066C478.733 705.066 479.533 705.866 479.8 707.2L480.066 708.533C481.4 711.733 486.733 724.533 488.333 727.733C495.8 743.2 517.133 784.533 523.533 793.6C527.533 799.2 522.2 803.466 513.933 799.2C506.2 795.466 504.6 802.933 503.533 807.733C503.533 807.733 502.466 816.266 494.466 808.533C494.466 808.533 487.266 799.733 484.333 808C482.2 814.4 478.466 813.866 478.2 813.866V705.066Z" fill="url(#paint3_linear_142_311)"/>
<path d="M478.2 705.066C478.733 705.066 479.533 705.866 479.8 707.2L480.066 708.533C481.4 711.733 486.733 724.533 488.333 727.733C495.8 743.2 517.133 784.533 523.533 793.6C527.533 799.2 522.2 803.466 513.933 799.2C506.2 795.466 504.6 802.933 503.533 807.733C503.533 807.733 502.466 816.266 494.466 808.533C494.466 808.533 487.266 799.733 484.333 808C482.2 814.4 478.466 813.866 478.2 813.866V705.066Z" stroke="white" stroke-width="0.2562" stroke-miterlimit="10"/>
<path d="M477.933 799.466C476.333 799.466 474.733 801.066 473.933 803.466L472.867 805.866C469.4 811.466 454.733 835.466 450.467 841.333C430.733 869.866 372.867 946.399 355.8 963.199C345.133 973.866 359.267 981.599 381.933 973.866C402.467 966.666 407.267 980.799 409.667 989.599C409.667 989.599 412.333 1005.33 433.933 990.933C433.933 990.933 453.4 974.666 461.133 990.132C467.267 1002.13 476.867 1000.8 477.933 1000.8V799.466Z" fill="url(#paint4_linear_142_311)"/>
<path d="M477.933 799.466C476.333 799.466 474.733 801.066 473.933 803.466L472.867 805.866C469.4 811.466 454.733 835.466 450.467 841.333C430.733 869.866 372.867 946.399 355.8 963.199C345.133 973.866 359.267 981.599 381.933 973.866C402.467 966.666 407.267 980.799 409.667 989.599C409.667 989.599 412.333 1005.33 433.933 990.933C433.933 990.933 453.4 974.666 461.133 990.132C467.267 1002.13 476.867 1000.8 477.933 1000.8V799.466Z" stroke="white" stroke-width="0.2562" stroke-miterlimit="10"/>
<path d="M477.933 736.267C476.6 736.267 475.533 737.6 475 740L474.2 742.4C471.533 747.733 461.133 769.333 458.2 774.667C443.8 800.533 402.2 870.4 389.933 885.867C382.2 895.467 392.6 902.667 408.867 895.467C423.533 889.067 427 901.867 428.867 909.867C428.867 909.867 430.733 924.267 446.467 911.2C446.467 911.2 460.6 896.533 466.2 910.4C470.467 921.333 477.4 920.267 478.2 920V736.267H477.933Z" fill="url(#paint5_linear_142_311)"/>
<path d="M477.933 736.267C476.6 736.267 475.533 737.6 475 740L474.2 742.4C471.533 747.733 461.133 769.333 458.2 774.667C443.8 800.533 402.2 870.4 389.933 885.867C382.2 895.467 392.6 902.667 408.867 895.467C423.533 889.067 427 901.867 428.867 909.867C428.867 909.867 430.733 924.267 446.467 911.2C446.467 911.2 460.6 896.533 466.2 910.4C470.467 921.333 477.4 920.267 478.2 920V736.267H477.933Z" stroke="white" stroke-width="0.2562" stroke-miterlimit="10"/>
<path d="M477.933 705.066C477.4 705.066 476.6 705.866 476.333 707.2L476.067 708.533C474.733 711.733 469.4 724.533 467.8 727.733C460.333 743.2 439 784.533 432.6 793.6C428.6 799.2 433.933 803.466 442.2 799.2C449.933 795.466 451.533 802.933 452.6 807.733C452.6 807.733 453.667 816.266 461.667 808.533C461.667 808.533 468.867 799.733 471.8 808C473.933 814.4 477.667 813.866 477.933 813.866V705.066Z" fill="url(#paint6_linear_142_311)"/>
<path d="M477.933 705.066C477.4 705.066 476.6 705.866 476.333 707.2L476.067 708.533C474.733 711.733 469.4 724.533 467.8 727.733C460.333 743.2 439 784.533 432.6 793.6C428.6 799.2 433.933 803.466 442.2 799.2C449.933 795.466 451.533 802.933 452.6 807.733C452.6 807.733 453.667 816.266 461.667 808.533C461.667 808.533 468.867 799.733 471.8 808C473.933 814.4 477.667 813.866 477.933 813.866V705.066Z" stroke="white" stroke-width="0.2562" stroke-miterlimit="10"/>
<defs>
<linearGradient id="paint0_linear_142_311" x1="469.271" y1="1002.75" x2="489.274" y2="1002.75" gradientUnits="userSpaceOnUse">
<stop stop-color="#D8F1FF"/>
<stop offset="1" stop-color="white"/>
</linearGradient>
<linearGradient id="paint1_linear_142_311" x1="478.143" y1="900.086" x2="603.953" y2="900.086" gradientUnits="userSpaceOnUse">
<stop stop-color="#CCEDFF"/>
<stop offset="1" stop-color="white"/>
</linearGradient>
<linearGradient id="paint2_linear_142_311" x1="478.144" y1="828.285" x2="568.902" y2="828.285" gradientUnits="userSpaceOnUse">
<stop stop-color="#CCEDFF"/>
<stop offset="1" stop-color="white"/>
</linearGradient>
<linearGradient id="paint3_linear_142_311" x1="478.143" y1="759.416" x2="524.941" y2="759.416" gradientUnits="userSpaceOnUse">
<stop stop-color="#CCEDFF"/>
<stop offset="1" stop-color="white"/>
</linearGradient>
<linearGradient id="paint4_linear_142_311" x1="352.099" y1="900.086" x2="477.904" y2="900.086" gradientUnits="userSpaceOnUse">
<stop stop-color="#CCEDFF"/>
<stop offset="1" stop-color="white"/>
</linearGradient>
<linearGradient id="paint5_linear_142_311" x1="387.151" y1="828.285" x2="477.904" y2="828.285" gradientUnits="userSpaceOnUse">
<stop stop-color="#CCEDFF"/>
<stop offset="1" stop-color="white"/>
</linearGradient>
<linearGradient id="paint6_linear_142_311" x1="431.112" y1="759.416" x2="477.904" y2="759.416" gradientUnits="userSpaceOnUse">
<stop stop-color="#CCEDFF"/>
<stop offset="1" stop-color="white"/>
</linearGradient>
</defs>
</svg>
