<svg width="2000" height="1334" viewBox="0 0 2000 1334" fill="none" xmlns="http://www.w3.org/2000/svg">
<path d="M1357.4 676.8H1317.67V781.066H1357.4V676.8Z" fill="url(#paint0_linear_142_249)"/>
<path d="M1358.2 781.6H1317.13V676H1358.2V781.6ZM1318.47 780.267H1356.6V677.333H1318.2V780.267H1318.47Z" fill="white"/>
<path d="M1471.27 765.867L1388.6 683.2L1305.67 765.867H1305.4V953.867H1471.53V765.867H1471.27Z" fill="url(#paint1_linear_142_249)"/>
<path d="M1472.07 954.667H1304.87V765.334H1305.4L1388.6 682.134L1389.13 682.667L1471.8 765.334H1472.07L1472.33 766.134V954.667H1472.07ZM1306.2 953.334H1470.73V766.4L1388.6 684L1306.2 766.4V953.334Z" fill="white"/>
<path d="M1513.67 793.867L1395.53 675.734C1393.67 673.867 1391 672.801 1388.33 672.801C1385.67 672.801 1383.27 673.867 1381.13 675.734L1263.27 793.867C1259.27 797.867 1259.27 804.267 1263.27 808.001C1265.13 809.867 1267.8 810.934 1270.47 810.934C1273.13 810.934 1275.53 809.867 1277.67 808.001L1388.6 697.067L1499.53 808.001C1501.4 809.867 1504.07 810.934 1506.73 810.934C1509.4 810.934 1511.8 809.867 1513.93 808.001C1517.67 804.267 1517.67 797.867 1513.67 793.867Z" fill="url(#paint2_linear_142_249)" stroke="#F5C35F" stroke-width="0.2864" stroke-miterlimit="10"/>
<path d="M1387.8 803.201C1402.09 803.201 1413.67 791.62 1413.67 777.334C1413.67 763.049 1402.09 751.468 1387.8 751.468C1373.51 751.468 1361.93 763.049 1361.93 777.334C1361.93 791.62 1373.51 803.201 1387.8 803.201Z" fill="#890200"/>
<path d="M1375.27 823.468H1348.87V849.868H1375.27V823.468Z" fill="#890200"/>
<path d="M1344.07 823.468H1317.67V849.868H1344.07V823.468Z" fill="#890200"/>
<path d="M1375.27 854.669H1348.87V881.069H1375.27V854.669Z" fill="#890200"/>
<path d="M1344.07 854.669H1317.67V881.069H1344.07V854.669Z" fill="#890200"/>
<path d="M1460.33 823.468H1433.93V849.868H1460.33V823.468Z" fill="#890200"/>
<path d="M1429.13 823.468H1402.73V849.868H1429.13V823.468Z" fill="#890200"/>
<path d="M1460.33 854.669H1433.93V881.069H1460.33V854.669Z" fill="#890200"/>
<path d="M1429.13 854.669H1402.73V881.069H1429.13V854.669Z" fill="#890200"/>
<path d="M1362.2 673.6C1362.2 678.933 1357.93 683.2 1352.6 683.2H1319.8C1314.47 683.2 1310.2 678.933 1310.2 673.6C1310.2 668.267 1314.47 664 1319.8 664H1352.6C1357.93 664 1362.2 668.267 1362.2 673.6Z" fill="url(#paint3_linear_142_249)"/>
<path d="M1352.6 683.734H1319.8C1314.2 683.734 1309.4 679.2 1309.4 673.334C1309.4 667.734 1313.93 662.934 1319.8 662.934H1352.6C1358.2 662.934 1363 667.467 1363 673.334C1362.73 679.2 1358.2 683.734 1352.6 683.734ZM1319.8 664.534C1315 664.534 1311 668.534 1311 673.334C1311 678.134 1315 682.134 1319.8 682.134H1352.6C1357.4 682.134 1361.4 678.134 1361.4 673.334C1361.4 668.534 1357.4 664.534 1352.6 664.534H1319.8Z" fill="white"/>
<defs>
<linearGradient id="paint0_linear_142_249" x1="1317.7" y1="728.829" x2="1357.41" y2="728.829" gradientUnits="userSpaceOnUse">
<stop stop-color="white"/>
<stop offset="1" stop-color="#D8F1FF"/>
</linearGradient>
<linearGradient id="paint1_linear_142_249" x1="1305.52" y1="818.486" x2="1471.49" y2="818.486" gradientUnits="userSpaceOnUse">
<stop stop-color="white"/>
<stop offset="1" stop-color="#D8F1FF"/>
</linearGradient>
<linearGradient id="paint2_linear_142_249" x1="1260.45" y1="742.084" x2="1516.56" y2="742.084" gradientUnits="userSpaceOnUse">
<stop stop-color="#D7B165"/>
<stop offset="1" stop-color="#F5C35F"/>
</linearGradient>
<linearGradient id="paint3_linear_142_249" x1="1310.19" y1="673.487" x2="1362.13" y2="673.487" gradientUnits="userSpaceOnUse">
<stop stop-color="white"/>
<stop offset="1" stop-color="#D8F1FF"/>
</linearGradient>
</defs>
</svg>
