<svg width="2000" height="1334" viewBox="0 0 2000 1334" fill="none" xmlns="http://www.w3.org/2000/svg">
<path d="M374.733 559.467H328.333V681.6H374.733V559.467Z" fill="url(#paint0_linear_142_164)"/>
<path d="M327.533 558.667H375.8V682.4H327.533V558.667ZM374.2 560.267H329.4V680.534H374.2V560.267Z" fill="white"/>
<path d="M195 663.999L292.067 566.933L389.133 663.999V883.999H194.733V663.999H195Z" fill="url(#paint1_linear_142_164)"/>
<path d="M193.933 664L194.2 663.2H194.733L291.533 566.4L292.066 565.866L389.4 663.2H389.933V885.066H193.933V664ZM388.333 664.266L292.066 568L195.8 664.266V883.2H388.6V664.266H388.333Z" fill="white"/>
<path d="M145.4 696.8L283.533 558.667C285.933 556.267 288.867 555.2 291.8 555.2C294.733 555.2 297.933 556.267 300.067 558.667L438.2 696.8C442.733 701.334 442.733 708.8 438.2 713.334C435.8 715.734 432.867 716.8 429.933 716.8C427 716.8 423.8 715.734 421.667 713.334L291.8 583.467L161.933 713.334C159.533 715.734 156.6 716.8 153.667 716.8C150.733 716.8 147.533 715.734 145.4 713.334C140.867 708.8 140.867 701.334 145.4 696.8Z" fill="url(#paint2_linear_142_164)" stroke="#F5C35F" stroke-width="0.3354" stroke-miterlimit="10"/>
<path d="M338.467 716.8H307.533V747.733H338.467V716.8Z" fill="#890200"/>
<path d="M375 716.8H344.066V747.733H375V716.8Z" fill="#890200"/>
<path d="M338.467 753.334H307.533V784.267H338.467V753.334Z" fill="#890200"/>
<path d="M375 753.334H344.066V784.267H375V753.334Z" fill="#890200"/>
<path d="M238.734 716.8H207.8V747.733H238.734V716.8Z" fill="#890200"/>
<path d="M275.267 716.8H244.333V747.733H275.267V716.8Z" fill="#890200"/>
<path d="M238.734 753.334H207.8V784.267H238.734V753.334Z" fill="#890200"/>
<path d="M275.267 753.334H244.333V784.267H275.267V753.334Z" fill="#890200"/>
<path d="M323 555.733C323 561.867 328.067 566.933 334.2 566.933H372.6C378.733 566.933 383.8 561.867 383.8 555.733C383.8 549.6 378.733 544.533 372.6 544.533H334.2C327.8 544.533 323 549.333 323 555.733Z" fill="url(#paint3_linear_142_164)"/>
<path d="M322.2 555.733C322.2 549.067 327.533 543.733 334.2 543.733H372.6C379.266 543.733 384.6 549.067 384.6 555.733C384.6 562.4 379.266 567.733 372.6 567.733H334.2C327.533 567.733 322.2 562.4 322.2 555.733ZM334.2 545.333C328.333 545.333 323.8 550.133 323.8 555.733C323.8 561.6 328.6 566.133 334.2 566.133H372.6C378.466 566.133 383 561.333 383 555.733C383 549.867 378.2 545.333 372.6 545.333H334.2Z" fill="white"/>
<path d="M308.067 640C308.067 631.467 301.133 624.533 292.6 624.533C284.067 624.533 277.133 631.467 277.133 640V694.4H307.533V643.733C308.067 642.4 308.067 641.067 308.067 640Z" fill="#890200"/>
<path d="M249.933 662.4C249.933 657.867 246.2 654.134 241.667 654.134C237.133 654.134 233.4 657.867 233.4 662.4V692H249.933V664.534C249.933 663.734 249.933 662.934 249.933 662.4Z" fill="#890200"/>
<path d="M349.133 662.4C349.133 657.867 345.4 654.134 340.867 654.134C336.333 654.134 332.6 657.867 332.6 662.4V692H349.133V664.534C349.133 663.734 349.133 662.934 349.133 662.4Z" fill="#890200"/>
<path d="M308.067 805.867C308.067 797.334 301.133 790.4 292.6 790.4C284.067 790.4 277.133 797.334 277.133 805.867V860.267H307.533V809.6C308.067 808.267 308.067 806.934 308.067 805.867Z" fill="#890200"/>
<defs>
<linearGradient id="paint0_linear_142_164" x1="374.941" y1="620.455" x2="328.431" y2="620.455" gradientUnits="userSpaceOnUse">
<stop stop-color="white"/>
<stop offset="1" stop-color="#D8F1FF"/>
</linearGradient>
<linearGradient id="paint1_linear_142_164" x1="389.204" y1="725.471" x2="194.808" y2="725.471" gradientUnits="userSpaceOnUse">
<stop stop-color="white"/>
<stop offset="1" stop-color="#D8F1FF"/>
</linearGradient>
<linearGradient id="paint2_linear_142_164" x1="441.998" y1="635.98" x2="142.015" y2="635.98" gradientUnits="userSpaceOnUse">
<stop stop-color="#D7B165"/>
<stop offset="1" stop-color="#F5C35F"/>
</linearGradient>
<linearGradient id="paint3_linear_142_164" x1="383.735" y1="555.632" x2="322.899" y2="555.632" gradientUnits="userSpaceOnUse">
<stop stop-color="white"/>
<stop offset="1" stop-color="#D8F1FF"/>
</linearGradient>
</defs>
</svg>
