<svg width="800" height="462" viewBox="0 0 800 462" fill="none" xmlns="http://www.w3.org/2000/svg">
<path d="M1.52942 355.542C2.28913 354.402 12.925 339.588 31.9176 329.712L19.7623 303.502L18.6228 303.882L15.584 297.045L20.1422 294.766L15.9638 286.029C15.5839 284.889 16.7235 283.75 17.4832 283.37C19.0026 281.851 21.2817 281.471 23.5609 281.471C26.2198 281.471 29.2586 282.23 32.2975 283.37C33.0572 283.75 33.8169 283.75 34.9564 284.13C34.9564 284.13 35.3363 284.51 35.7161 284.51C37.6154 282.23 40.6542 281.851 41.0341 281.851C41.0341 281.471 41.0341 281.471 41.0341 281.091C41.4139 280.331 41.7938 279.571 42.1736 278.432C43.3132 275.773 44.8326 272.734 46.7318 270.455C48.2513 268.556 50.1505 267.036 52.4296 267.036C53.1893 267.036 55.0886 266.656 55.4685 267.796L59.6468 276.533L64.2051 274.254L67.2439 281.091L66.1043 281.471L73.7014 297.424C75.2208 296.665 76.7402 295.905 78.2596 295.145C80.5387 294.386 82.8179 294.006 85.097 295.145C85.8567 295.525 87.3761 296.285 87.3761 297.424L86.2365 307.301L91.1746 307.68L90.4149 315.278H89.2753L88.5156 322.875C91.9343 323.634 95.353 324.014 98.3918 324.774C99.5314 323.254 101.051 321.735 102.57 320.595C102.95 306.921 109.408 301.983 109.408 301.983C109.408 301.983 109.408 301.983 108.268 294.006C107.508 289.068 108.268 288.308 109.028 288.688C105.609 285.649 104.469 276.533 103.71 270.835C102.57 270.835 101.431 270.835 100.671 270.075C96.8724 268.176 102.19 257.16 102.19 257.16C102.19 257.16 102.57 256.78 103.71 256.4L110.167 215.756C106.749 214.617 104.469 211.578 105.229 208.159C105.609 204.361 109.408 201.322 113.206 202.082C117.005 202.461 120.043 206.26 119.284 210.058C118.904 211.958 118.144 213.477 116.625 214.617L139.036 246.904C140.176 247.284 140.935 247.664 141.695 248.424C149.292 256.4 144.354 262.858 144.354 262.858L142.835 263.238L143.974 267.796L145.873 273.494C152.711 279.951 155.75 283.75 156.889 286.789L176.641 287.168C176.641 287.168 177.781 287.928 179.3 288.688C180.06 286.789 181.579 284.889 182.339 284.889C183.479 285.269 192.215 284.889 193.735 286.409C195.254 287.928 196.394 293.246 196.394 293.246C196.394 293.246 196.014 295.145 194.874 297.424C257.55 302.742 319.466 297.424 377.963 286.029C378.343 284.13 378.723 282.61 378.723 281.091C379.483 276.533 381.382 272.354 384.041 268.936C384.041 267.796 384.041 267.036 384.041 265.897C380.242 254.881 388.599 243.865 387.46 233.989C387.46 233.989 391.258 236.268 395.436 241.206C407.212 230.57 423.546 232.85 437.98 233.609C453.554 234.749 469.128 230.57 482.043 221.074C498.376 209.299 505.214 194.105 507.493 188.027C505.214 186.887 502.935 185.368 501.035 183.469L497.617 180.43C479.004 183.089 480.523 162.577 480.903 161.817C479.764 160.678 478.624 159.538 477.864 158.398C475.965 156.119 473.686 153.84 471.787 151.181C470.647 149.662 469.508 148.522 468.368 147.003C466.849 144.724 465.329 142.825 462.67 141.685C461.151 140.925 459.252 140.166 457.732 139.026C456.593 138.266 455.833 137.507 455.073 136.747C454.314 135.987 453.554 135.227 453.174 134.468C452.794 133.708 452.414 132.948 452.034 132.569C451.655 132.189 451.655 131.809 451.655 131.809C451.275 131.429 451.655 130.669 452.034 130.669C452.414 130.289 453.174 130.289 453.554 131.049C453.554 131.049 453.554 131.429 453.934 131.429C454.314 131.809 454.693 132.189 455.073 132.948C455.453 133.328 456.213 134.088 456.973 134.848C457.732 135.607 458.492 135.987 459.252 136.367C460.011 136.747 460.771 137.127 461.531 137.507C461.151 137.127 461.151 136.747 460.771 136.367C459.252 134.088 458.112 131.429 456.593 129.15C455.453 126.871 454.314 124.592 453.554 122.313C452.794 120.033 452.034 118.134 451.275 116.235C450.515 114.336 450.515 112.816 450.135 111.297C449.755 109.777 449.755 108.638 449.755 108.258C449.755 107.498 449.755 107.118 449.755 107.118C449.755 106.739 450.135 105.979 450.515 105.979C451.275 105.979 451.655 106.359 451.655 106.739V107.118C451.655 107.118 451.655 107.498 451.655 108.258C451.655 109.018 451.655 109.777 452.034 111.297C452.414 112.436 452.794 113.956 453.554 115.855C454.314 117.374 455.073 119.274 455.833 121.553C456.593 123.452 457.732 125.351 458.872 127.251C458.872 126.871 458.872 126.491 458.872 126.111C458.872 124.592 458.872 123.072 459.252 121.933C459.252 121.173 459.632 120.793 459.632 120.033C460.011 119.274 460.011 118.894 460.391 118.514C460.771 118.134 460.771 117.754 461.151 116.995C461.531 116.615 461.531 116.235 461.911 115.855C462.29 115.475 462.67 115.095 462.67 115.095C463.05 114.715 463.43 114.715 464.19 114.715C464.57 115.095 464.949 115.475 464.57 116.235C464.57 116.235 464.57 116.615 464.19 116.995C464.19 117.374 463.81 117.374 463.81 117.754C463.81 118.134 463.43 118.514 463.43 118.894C463.05 119.654 463.05 120.793 462.67 121.933C462.67 123.072 462.67 124.212 462.67 125.731C462.67 128.39 463.43 130.669 463.81 132.569C464.19 134.088 465.329 135.607 466.089 136.747C467.229 138.266 468.368 139.786 469.508 141.305C474.826 148.142 480.903 156.499 488.88 160.678C489.64 161.057 490.4 161.817 491.159 162.197C491.539 162.577 491.919 162.577 492.679 162.957L493.438 163.337C493.818 163.337 494.198 163.716 494.198 163.716C494.578 164.096 495.338 164.096 495.717 164.096H496.097H496.477L497.237 164.476C498.376 164.856 499.516 164.856 500.656 165.236C502.175 163.337 504.074 161.437 506.353 159.538V159.158V158.778C506.353 158.778 506.353 158.398 505.974 158.398C505.594 158.019 505.214 157.259 504.834 156.499C504.454 155.74 504.074 154.98 503.315 154.22C502.555 152.701 501.415 151.181 500.656 149.282C500.276 148.902 499.896 148.522 499.136 148.142C498.376 147.383 497.617 146.623 496.857 145.863C496.477 145.484 496.097 145.104 495.338 144.724C494.958 144.344 494.578 143.964 493.818 143.204C493.438 142.825 493.059 142.065 492.679 141.685C492.299 141.305 491.919 140.545 491.539 140.166C491.159 139.786 490.779 139.026 490.4 138.646C490.02 138.266 490.02 137.507 489.64 137.127C489.26 136.747 489.26 136.367 489.26 135.987C489.26 135.607 489.26 135.607 488.88 135.607V135.227C488.88 134.468 488.5 134.468 488.5 134.468C488.5 134.088 488.5 133.328 489.26 133.328C489.64 133.328 490.4 133.328 490.4 134.088C490.4 134.088 490.4 134.468 490.779 134.848V135.227C490.779 135.227 490.779 135.607 491.159 135.607C491.159 135.987 491.539 136.367 491.919 136.747C492.299 137.127 492.299 137.507 492.679 137.886C493.059 138.266 493.438 138.646 493.818 139.026C494.198 139.406 494.578 139.786 494.958 140.166C495.338 140.545 495.718 140.925 496.097 141.305C496.477 141.685 496.857 142.065 497.617 142.445C497.617 141.685 497.237 140.925 497.237 140.166C497.237 140.166 496.857 139.786 496.857 139.406C496.857 139.026 496.477 138.646 496.477 138.266C496.097 137.886 496.097 137.127 495.717 136.747C495.338 135.987 495.338 135.607 495.338 134.848C495.338 134.468 495.338 134.088 494.958 133.708C494.958 133.328 494.958 132.948 494.958 132.569C494.958 131.809 494.958 131.049 494.958 130.289V129.53V128.77V127.63C494.958 126.871 495.338 126.111 495.338 125.351C495.338 124.592 495.717 123.832 495.717 123.072C495.717 122.692 496.097 122.312 496.097 121.933C496.097 121.553 496.477 121.173 496.477 121.173C496.857 120.413 496.857 120.033 497.237 119.654C497.617 118.514 497.997 117.754 498.376 117.374C498.376 116.995 498.756 116.995 498.756 116.615V116.235C499.136 115.855 499.896 115.475 500.276 115.855C500.656 116.235 500.656 116.615 500.656 116.995C500.656 117.374 500.276 117.754 500.276 118.134C499.896 118.514 499.896 119.654 499.516 120.413C499.516 120.793 499.136 121.553 499.136 121.933C499.136 122.312 499.136 122.312 498.756 122.692C498.756 123.072 498.756 123.452 498.756 123.452C498.756 124.212 498.756 124.592 498.376 125.351C498.376 126.111 498.376 126.491 498.376 127.251V128.39V128.77V129.15C498.756 135.987 502.175 139.406 502.175 139.406C502.555 139.406 502.555 139.406 502.935 139.026C503.315 139.026 503.694 138.646 504.074 138.646C504.454 138.646 504.834 138.266 505.214 138.266C505.594 138.266 505.974 137.886 506.353 137.507C506.733 137.127 507.113 137.127 507.493 136.747C507.873 136.367 508.253 135.987 508.633 135.987C509.012 135.607 509.392 135.227 509.392 135.227C509.772 134.848 509.772 134.468 510.152 134.088C510.532 133.708 510.532 133.328 510.912 133.328C510.912 132.948 511.291 132.948 511.291 132.569C511.291 132.189 511.671 132.189 511.671 131.809C511.671 131.429 512.051 131.049 512.051 131.049C512.431 130.669 512.811 130.669 513.191 130.669C513.571 130.669 513.571 131.049 513.571 131.429C513.571 131.429 513.571 131.809 513.191 132.189C513.191 132.568 513.191 132.568 512.811 132.948C512.811 133.328 512.431 133.708 512.431 134.088C512.431 134.468 512.051 134.848 512.051 135.227C511.671 135.607 511.671 135.987 511.291 136.367C510.912 136.747 510.912 137.127 510.532 137.507C510.152 137.886 509.772 138.266 509.392 138.646C509.012 139.026 508.632 139.406 508.253 139.786C507.873 140.166 507.493 140.545 507.113 140.925C506.733 141.305 506.353 141.685 505.974 141.685C505.594 142.065 505.214 142.065 504.834 142.445C504.454 142.445 504.454 142.825 504.074 142.825C504.454 143.964 505.214 144.724 505.594 145.863C506.353 147.383 507.493 148.902 508.633 150.042C509.012 150.801 509.772 151.561 510.152 151.941C510.532 152.701 511.292 153.46 511.671 154.22C511.671 154.6 512.051 154.6 512.051 154.6V154.98C514.71 153.84 517.369 153.46 520.408 153.84C529.145 155.36 535.222 162.197 543.579 164.096C545.098 164.476 547.757 164.096 550.796 163.716C555.734 163.337 560.672 163.716 560.292 169.034C559.913 172.073 553.835 179.67 544.719 185.748C541.68 187.647 538.641 188.787 535.602 189.926C535.602 190.686 535.982 191.066 535.982 191.825C534.462 213.857 531.804 229.431 527.625 240.826C548.517 232.85 568.649 224.113 587.642 215.756C590.301 207.779 592.96 200.182 593.719 198.663C595.239 194.484 599.037 193.345 599.037 193.345C599.037 193.345 602.456 191.826 610.433 189.546C616.891 187.647 617.27 180.81 618.41 175.112C619.17 170.554 621.069 166.375 623.728 162.957C623.728 161.817 623.728 161.057 623.728 159.918C619.929 148.902 628.286 137.886 627.146 128.01C627.146 128.01 630.945 130.289 635.123 135.227C646.899 124.592 663.232 126.871 677.667 127.63C693.241 128.77 708.815 124.592 721.73 115.095C738.063 103.32 744.901 88.1258 747.18 82.0481C744.901 80.9086 742.622 79.3892 740.722 77.4899L737.304 74.4511C718.691 77.11 720.21 56.598 720.59 55.8383C719.451 54.6988 718.311 53.5592 717.551 52.4196C715.652 50.1405 713.373 47.8614 711.474 45.2024C710.334 43.683 709.195 42.5435 708.055 41.0241C706.536 38.7449 705.016 36.8457 702.357 35.7061C700.838 34.9464 698.939 34.1867 697.419 33.0472C696.28 32.2874 695.52 31.5278 694.76 30.768C694 30.0083 693.241 29.2486 692.861 28.4889C692.481 27.7292 692.101 26.9695 691.721 26.5897C691.342 26.2098 691.342 25.83 691.342 25.83C690.962 25.4501 691.342 24.6904 691.721 24.6904C692.101 24.3106 692.861 24.3106 693.241 25.0703C693.241 25.0703 693.241 25.4501 693.621 25.4501C694.001 25.83 694.38 26.2098 694.76 26.9695C695.14 27.3494 695.9 28.1091 696.659 28.8688C697.419 29.6285 698.179 30.0083 698.939 30.3882C699.698 30.7681 700.458 31.1479 701.218 31.5277C700.838 31.1479 700.838 30.7681 700.458 30.3882C698.939 28.1091 697.799 25.4501 696.28 23.171C695.14 20.8919 694 18.6128 693.241 16.3336C692.481 14.0545 691.721 12.1553 690.962 10.256C690.202 8.35674 690.202 6.83735 689.822 5.31794C689.442 3.79853 689.442 2.65896 689.442 2.27911C689.442 1.5194 689.442 1.13954 689.442 1.13954C689.442 0.759688 689.822 0 690.202 0C690.962 0 691.342 0.379841 691.342 0.759693V1.13954C691.342 1.13954 691.342 1.5194 691.342 2.27911C691.342 3.03881 691.342 3.79853 691.721 5.31794C692.101 6.4575 692.481 7.9769 693.241 9.87616C694 11.3956 694.76 13.2948 695.52 15.5739C696.28 17.4732 697.419 19.3725 698.559 21.2717C698.559 20.8919 698.559 20.512 698.559 20.1322C698.559 18.6128 698.559 17.0933 698.939 15.9538C698.939 15.1941 699.318 14.8142 699.318 14.0545C699.698 13.2948 699.698 12.915 700.078 12.5351C700.458 12.1553 700.458 11.7754 700.838 11.0157C701.218 10.6359 701.218 10.256 701.598 9.87616C701.977 9.49631 702.357 9.11647 702.357 9.11647C702.737 8.73661 703.117 8.73659 703.877 8.73659C704.257 9.11644 704.636 9.4963 704.256 10.256C704.256 10.256 704.257 10.6359 703.877 11.0157C703.877 11.3956 703.497 11.3956 703.497 11.7754C703.497 12.1553 703.117 12.5351 703.117 12.915C702.737 13.6747 702.737 14.8142 702.357 15.9538C702.357 17.0933 702.357 18.2329 702.357 19.7523C702.357 22.4113 703.117 24.6904 703.497 26.5897C703.877 28.1091 705.016 29.6285 705.776 30.768C706.916 32.2875 708.055 33.8069 709.195 35.3263C714.513 42.1636 720.59 50.5204 728.567 54.6988C729.327 55.0786 730.086 55.8383 730.846 56.2182C731.226 56.598 731.606 56.598 732.366 56.9778L733.125 57.3577C733.505 57.3577 733.885 57.7376 733.885 57.7376C734.265 58.1174 735.025 58.1174 735.404 58.1174H735.784H736.164L736.924 58.4973C738.063 58.8771 739.203 58.8771 740.342 59.257C741.862 57.3577 743.761 55.4585 746.04 53.5592V53.1793V52.7995C746.04 52.7995 746.04 52.4196 745.661 52.4196C745.281 52.0398 744.901 51.2801 744.521 50.5204C744.141 49.7607 743.761 49.001 743.002 48.2413C742.242 46.7219 741.102 45.2024 740.342 43.3032C739.963 42.9233 739.583 42.5435 738.823 42.1636C738.063 41.4039 737.304 40.6442 736.544 39.8845C736.164 39.5047 735.784 39.1248 735.025 38.7449C734.645 38.3651 734.265 37.9852 733.505 37.2255C733.125 36.8457 732.746 36.086 732.366 35.7061C731.986 35.3263 731.606 34.5666 731.226 34.1867C730.846 33.8069 730.466 33.0472 730.087 32.6673C729.707 32.2875 729.707 31.5277 729.327 31.1479C728.947 30.768 728.947 30.3882 728.947 30.0084C728.947 29.6285 728.947 29.6285 728.567 29.6285V29.2486C728.567 28.4889 728.187 28.4889 728.187 28.4889C728.187 28.1091 728.187 27.3494 728.947 27.3494C729.327 27.3494 730.087 27.3494 730.087 28.1091C730.087 28.1091 730.087 28.4889 730.466 28.8688V29.2486C730.466 29.2486 730.466 29.6285 730.846 29.6285C730.846 30.0083 731.226 30.3882 731.606 30.768C731.986 31.1479 731.986 31.5278 732.366 31.9076C732.746 32.2875 733.125 32.6673 733.505 33.0472C733.885 33.427 734.265 33.8069 734.645 34.1867C735.025 34.5666 735.404 34.9464 735.784 35.3263C736.164 35.7061 736.544 36.086 737.304 36.4658C737.304 35.7061 736.924 34.9464 736.924 34.1867C736.924 34.1867 736.544 33.8069 736.544 33.427C736.544 33.0471 736.164 32.6673 736.164 32.2875C735.784 31.9076 735.784 31.1479 735.404 30.768C735.025 30.0083 735.025 29.6285 735.025 28.8688C735.025 28.4889 735.025 28.1091 734.645 27.7292C734.645 27.3494 734.645 26.9695 734.645 26.5897C734.645 25.83 734.645 25.0703 734.645 24.3106V23.5508V22.7911V21.6516C734.645 20.8919 735.025 20.1322 735.025 19.3725C735.025 18.6128 735.404 17.8531 735.404 17.0934C735.404 16.7135 735.784 16.3336 735.784 15.9538C735.784 15.5739 736.164 15.1941 736.164 15.1941C736.544 14.4344 736.544 14.0545 736.924 13.6747C737.304 12.5351 737.684 11.7754 738.063 11.3956C738.063 11.0157 738.443 11.0157 738.443 10.6359V10.256C738.823 9.87615 739.583 9.49631 739.963 9.87616C740.343 10.256 740.342 10.6359 740.342 11.0157C740.342 11.3956 739.963 11.7754 739.963 12.1553C739.583 12.5351 739.583 13.6747 739.203 14.4344C739.203 14.8142 738.823 15.5739 738.823 15.9538C738.823 16.3336 738.823 16.7135 738.443 16.7135C738.443 17.0934 738.443 17.4732 738.443 17.4732C738.443 18.2329 738.443 18.6128 738.063 19.3725C738.063 20.1322 738.063 20.512 738.063 21.2717V22.4113V22.7911V23.171C738.443 30.0083 741.862 33.427 741.862 33.427C742.242 33.427 742.242 33.427 742.622 33.0472C743.001 33.0472 743.381 32.6673 743.761 32.6673C744.141 32.6673 744.521 32.2875 744.901 32.2875C745.281 32.2875 745.66 31.9076 746.04 31.5277C746.42 31.1479 746.8 31.1479 747.18 30.768C747.56 30.3882 747.94 30.0084 748.319 30.0084C748.699 29.6285 749.079 29.2486 749.079 29.2486C749.459 28.8688 749.459 28.4889 749.839 28.1091C750.219 27.7292 750.219 27.3494 750.599 27.3494C750.599 26.9695 750.978 26.9695 750.978 26.5897C750.978 26.2098 751.358 26.2098 751.358 25.83C751.358 25.4501 751.738 25.0703 751.738 25.0703C752.118 24.6904 752.498 24.6904 752.878 24.6904C753.258 24.6904 753.258 25.0703 753.258 25.4501C753.258 25.4501 753.258 25.83 752.878 26.2098C752.878 26.5897 752.878 26.5897 752.498 26.9695C752.498 27.3494 752.118 27.7292 752.118 28.1091C752.118 28.4889 751.738 28.8688 751.738 29.2486C751.358 29.6285 751.358 30.0083 750.978 30.3882C750.599 30.7681 750.599 31.1479 750.219 31.5277C749.839 31.9076 749.459 32.2875 749.079 32.6673C748.699 33.0472 748.319 33.427 747.94 33.8069C747.56 34.1867 747.18 34.5666 746.8 34.9464C746.42 35.3263 746.04 35.7061 745.661 35.7061C745.281 36.086 744.901 36.086 744.521 36.4658C744.141 36.4658 744.141 36.8457 743.761 36.8457C744.141 37.9852 744.901 38.745 745.281 39.8845C746.04 41.4039 747.18 42.9233 748.319 44.0629C748.699 44.8226 749.459 45.5823 749.839 45.9621C750.219 46.7219 750.978 47.4816 751.358 48.2413C751.358 48.6211 751.738 48.6211 751.738 48.6211V49.001C754.397 47.8614 757.056 47.4816 760.095 47.8614C768.831 49.3808 774.909 56.2182 783.266 58.1174C784.785 58.4973 787.444 58.1174 790.483 57.7376C795.421 57.3577 800.359 57.7376 799.979 63.0555C799.6 66.0943 793.522 73.6914 784.405 79.769C781.367 81.6683 778.328 82.8078 775.289 83.9474C775.289 84.7071 775.669 85.087 775.669 85.8467C773.01 121.173 768.072 140.166 757.436 151.561C758.575 152.321 759.335 152.701 759.335 152.701C764.273 154.6 772.25 150.801 776.428 154.98C780.987 159.918 772.63 171.313 769.211 174.352C762.374 181.19 755.157 187.267 746.42 191.446C743.761 192.965 741.102 194.105 738.443 195.624C737.684 196.004 736.924 196.384 736.164 196.004C735.025 195.624 735.025 194.105 735.404 192.965C735.784 190.686 736.164 188.787 737.304 186.887C738.443 184.988 739.583 183.089 741.862 182.329C743.761 181.569 746.04 181.949 747.94 181.569C754.017 180.81 759.335 176.252 760.095 169.794C755.917 166.755 750.219 166.755 744.901 168.655C740.722 170.174 735.784 169.034 732.366 166.375C721.73 170.174 708.435 173.593 692.101 178.151C670.07 184.228 657.155 187.647 648.798 188.407C647.659 189.167 646.899 189.926 645.759 190.306L645.379 190.686C639.302 196.764 635.503 204.361 633.224 212.338C630.945 220.314 629.805 228.671 628.666 237.028C627.906 241.586 627.526 246.144 627.526 250.703C627.526 252.982 627.526 255.261 625.627 256.78C623.728 258.68 620.309 257.92 618.41 256.021C614.991 252.982 614.231 248.044 614.991 243.485C615.751 238.927 618.03 235.129 619.549 230.95C622.208 224.873 623.728 218.415 624.867 211.958C625.627 207.02 626.007 202.081 626.767 197.523C625.247 197.903 623.728 198.663 622.208 199.043C614.991 202.461 607.774 206.26 600.557 209.299C600.177 209.679 599.797 210.058 599.797 210.818C596.378 217.276 588.781 240.447 588.781 240.447C588.781 240.447 595.239 245.765 594.479 248.424C593.719 250.323 587.262 248.803 582.704 247.664C580.045 246.904 578.525 243.865 579.665 241.586L581.944 235.888C581.944 235.888 585.743 225.632 589.161 214.997C569.029 224.113 548.897 232.47 529.145 240.447C526.865 246.524 523.827 251.083 520.028 255.261C521.168 256.021 521.927 256.4 521.927 256.4C526.865 258.3 534.842 254.501 539.021 258.68C543.579 263.618 535.222 275.013 531.803 278.052C524.966 284.889 517.749 290.967 509.012 295.145C506.353 296.665 503.694 297.804 501.035 299.324C500.276 299.704 499.516 300.083 498.756 299.704C497.617 299.324 497.617 297.804 497.997 296.665C498.376 294.386 498.756 292.486 499.896 290.587C500.656 288.688 502.175 286.789 504.454 286.029C506.353 285.269 508.633 285.649 510.532 285.269C516.609 284.509 521.927 279.951 522.687 273.494C518.509 270.455 512.811 270.455 507.493 272.354C503.315 273.874 498.376 272.734 494.958 270.075C484.322 273.874 471.027 277.292 454.693 281.851C432.662 287.928 419.747 291.347 411.39 292.107C410.251 292.866 409.491 293.626 408.351 294.006L407.972 294.386C401.894 300.463 398.095 308.06 395.816 316.037C393.537 324.014 392.398 332.371 391.258 340.728C390.498 345.286 390.119 349.844 390.119 354.402C390.119 356.681 390.119 358.961 388.219 360.48C386.32 362.379 382.901 361.62 381.002 359.72C377.583 356.681 376.824 351.743 377.583 347.185C378.343 342.627 380.622 338.828 382.142 334.65C384.801 328.572 386.32 322.115 387.46 315.657C388.219 310.719 388.599 305.781 389.359 301.223C370.366 306.921 365.808 308.44 362.389 314.518C358.971 320.975 351.374 344.146 351.374 344.146C351.374 344.146 357.831 349.464 357.071 352.123C356.312 354.023 349.854 352.503 345.296 351.364C342.637 350.604 341.118 347.565 342.257 345.286L344.536 339.588C344.536 339.588 357.071 303.882 358.591 299.704C360.11 295.525 363.909 294.386 363.909 294.386C363.909 294.386 367.327 292.866 375.304 290.587C379.483 289.448 381.002 286.409 381.762 282.99C317.947 295.525 256.41 299.324 198.293 294.006C196.774 295.905 194.874 297.424 191.456 297.804C187.657 298.184 184.998 296.665 183.099 294.766C182.339 294.766 181.579 295.145 180.44 295.145C177.021 295.525 170.564 296.665 164.486 297.804C165.246 300.083 166.385 301.983 166.765 303.882C172.843 302.363 180.06 301.603 181.579 306.921C182.339 309.2 182.719 312.619 182.719 317.177C204.371 311.859 210.068 311.099 228.301 319.076C233.239 320.975 235.139 326.673 233.239 331.611C232.1 334.65 229.441 336.549 226.402 337.309C225.642 337.309 224.883 337.309 223.743 337.309C222.604 343.387 222.224 353.643 226.022 368.077C228.301 376.054 227.162 382.891 224.883 388.209C222.604 393.147 218.805 397.326 214.247 400.365L227.162 422.396L268.186 416.318C277.682 414.799 286.419 413.659 293.636 406.822C301.613 398.845 303.892 387.45 298.954 377.573C293.256 366.938 283 364.279 275.403 366.178C268.566 368.077 261.728 374.155 262.108 385.93C262.108 389.349 263.248 393.907 267.426 394.667C271.605 395.806 277.302 392.767 279.581 388.969C281.101 386.31 280.721 383.651 278.442 381.372C277.302 380.232 277.302 378.333 278.442 377.194C279.581 376.054 281.481 376.054 282.62 377.194C286.799 381.372 287.558 387.07 284.899 392.008C281.101 398.465 272.744 402.264 265.907 400.744C263.248 399.985 256.41 397.326 256.031 386.31C255.651 373.775 262.488 363.519 273.884 360.48C283.76 357.821 297.055 361.24 304.272 374.914C310.349 386.69 308.07 401.504 297.814 411C289.837 418.597 279.961 420.497 270.465 421.636C270.085 421.636 269.705 421.636 269.325 421.636L30.7781 461.901C29.2586 462.28 27.7392 461.141 27.3594 459.242C26.9795 457.722 28.1191 456.203 30.0184 455.823L69.523 450.125L74.0812 428.853C50.1505 422.396 40.2744 393.527 35.7161 375.294C33.0572 364.658 28.1191 360.1 23.9407 357.821C19.3825 361.999 17.1034 365.418 17.1034 365.418C14.0645 369.596 8.36676 370.736 4.18838 367.697C-0.369853 365.418 -1.12955 359.72 1.52942 355.542ZM600.557 211.578C603.596 210.058 606.255 208.919 609.293 207.399C605.115 208.539 602.456 210.058 600.557 211.578ZM215.386 429.233L203.611 409.101C202.471 409.481 200.952 409.861 199.812 410.241C198.673 410.621 197.153 411 195.634 411C198.293 417.458 201.712 424.675 204.371 430.753L215.386 429.233ZM197.913 431.512C194.115 423.156 191.456 417.078 189.556 412.14C166.006 417.458 123.462 426.194 97.2522 429.233L96.4925 446.327L197.913 431.512ZM90.035 447.466L90.7948 430.373C89.2754 430.373 87.3761 430.753 85.8567 430.753C83.5776 430.753 81.6783 430.753 79.779 430.753L75.9805 449.745L90.035 447.466Z" fill="white"/>
</svg>
