<svg width="100" height="95" viewBox="0 0 100 95" fill="none" xmlns="http://www.w3.org/2000/svg">
<g clip-path="url(#clip0_28_5904)">
<path d="M32.9161 70.7354L41.458 59.0442C32.1797 62.206 13.7703 70.5883 15.0221 87.2795L24.2268 85.8089L25.6996 95.0001C41.9735 91.103 44.2563 70.956 44.4035 61.2501L35.8616 72.9412L32.9161 70.7354Z" fill="#BE393E"/>
<path d="M55.5964 61.1766C55.7437 70.8825 58.0265 91.0295 74.3004 94.9266L75.7732 85.7354L84.9779 87.206C86.2297 70.5148 67.8203 62.1325 58.6156 58.9707L67.1576 70.6619L64.1384 72.8678L55.5964 61.1766Z" fill="#BE393E"/>
<path d="M95.9499 28.5294C80.486 22.1324 66.7158 37.0588 60.8984 44.853L74.6686 40.3677L75.7732 43.8971L62.0029 48.3824C71.2813 51.25 91.1635 55.2941 100 41.0294L91.6789 36.8382L95.9499 28.5294Z" fill="#BE393E"/>
<path d="M50 55.147C52.6435 55.147 54.7865 53.0071 54.7865 50.3675C54.7865 47.728 52.6435 45.5881 50 45.5881C47.3565 45.5881 45.2136 47.728 45.2136 50.3675C45.2136 53.0071 47.3565 55.147 50 55.147Z" fill="#BE393E"/>
<path d="M39.1016 44.9265C33.2842 37.1324 19.514 22.2059 4.05007 28.5294L8.24742 36.8383L0 41.0294C8.76289 55.2942 28.6451 51.25 37.9971 48.3824L24.2268 43.8971L25.3314 40.3677L39.1016 44.9265Z" fill="#BE393E"/>
<path d="M48.1591 23.8235H51.841V38.3088C57.4374 30.3676 67.4521 12.7206 56.6274 0L50.0736 6.54412L43.4463 0C32.5479 12.7206 42.5626 30.3676 48.1591 38.3088V23.8235Z" fill="#BE393E"/>
</g>
<defs>
<clipPath id="clip0_28_5904">
<rect width="100" height="95" fill="white"/>
</clipPath>
</defs>
</svg>
